<ttFont>
    <TTGlyph name=".notdef" xMin="0" yMin="0" xMax="500" yMax="700">
      <contour>
        <pt x="0" y="700" on="1"/>
        <pt x="500" y="700" on="1"/>
        <pt x="500" y="0" on="1"/>
        <pt x="0" y="0" on="1"/>
      </contour>
      <contour>
        <pt x="420" y="650" on="1"/>
        <pt x="80" y="650" on="1"/>
        <pt x="250" y="395" on="1"/>
      </contour>
      <contour>
        <pt x="220" y="350" on="1"/>
        <pt x="50" y="605" on="1"/>
        <pt x="50" y="95" on="1"/>
      </contour>
      <contour>
        <pt x="450" y="605" on="1"/>
        <pt x="280" y="350" on="1"/>
        <pt x="450" y="95" on="1"/>
      </contour>
      <contour>
        <pt x="420" y="50" on="1"/>
        <pt x="250" y="305" on="1"/>
        <pt x="80" y="50" on="1"/>
      </contour>
    </TTGlyph>
    <TTGlyph name=".ttfautohint" xMin="0" yMin="0" xMax="0" yMax="0">
      <contour>
        <pt x="0" y="0" on="1"/>
      </contour>
    </TTGlyph>
    <TTGlyph name="A" xMin="-45" yMin="0" xMax="628" yMax="686">
      <contour>
        <pt x="342" y="686" on="1"/>
        <pt x="483" y="686" on="1"/>
        <pt x="628" y="0" on="1"/>
        <pt x="514" y="0" on="1"/>
        <pt x="480" y="167" on="1"/>
        <pt x="163" y="167" on="1"/>
        <pt x="72" y="0" on="1"/>
        <pt x="-45" y="0" on="1"/>
      </contour>
      <contour>
        <pt x="461" y="262" on="1"/>
        <pt x="425" y="446" on="1"/>
        <pt x="421" y="464" on="0"/>
        <pt x="410" y="527" on="1"/>
        <pt x="399" y="591" on="1"/>
        <pt x="394" y="591" on="1"/>
        <pt x="318" y="449" on="1"/>
        <pt x="215" y="262" on="1"/>
      </contour>
    </TTGlyph>
    <TTGlyph name="AE" xMin="-61" yMin="0" xMax="1001" yMax="686">
      <contour>
        <pt x="400" y="686" on="1"/>
        <pt x="1001" y="686" on="1"/>
        <pt x="983" y="591" on="1"/>
        <pt x="556" y="591" on="1"/>
        <pt x="576" y="398" on="1"/>
        <pt x="906" y="398" on="1"/>
        <pt x="889" y="303" on="1"/>
        <pt x="586" y="303" on="1"/>
        <pt x="607" y="95" on="1"/>
        <pt x="903" y="95" on="1"/>
        <pt x="886" y="0" on="1"/>
        <pt x="511" y="0" on="1"/>
        <pt x="494" y="167" on="1"/>
        <pt x="168" y="167" on="1"/>
        <pt x="58" y="0" on="1"/>
        <pt x="-61" y="0" on="1"/>
      </contour>
      <contour>
        <pt x="485" y="262" on="1"/>
        <pt x="453" y="591" on="1"/>
        <pt x="448" y="591" on="1"/>
        <pt x="230" y="262" on="1"/>
      </contour>
    </TTGlyph>
    <TTGlyph name="AEacute" xMin="-61" yMin="0" xMax="1001" yMax="868">
      <component glyphName=".ttfautohint" x="0" y="0" flags="0x0"/>
      <component glyphName="AE" x="0" y="0" flags="0x0"/>
      <component glyphName="acute" x="478" y="145" flags="0x4"/>
    </TTGlyph>
    <TTGlyph name="Aacute" xMin="-45" yMin="0" xMax="628" yMax="868">
      <component glyphName=".ttfautohint" x="0" y="0" flags="0x0"/>
      <component glyphName="A" x="0" y="0" flags="0x0"/>
      <component glyphName="acute" x="316" y="145" flags="0x4"/>
    </TTGlyph>
    <TTGlyph name="Abreve" xMin="-45" yMin="0" xMax="628" yMax="868">
      <component glyphName=".ttfautohint" x="0" y="0" flags="0x0"/>
      <component glyphName="A" x="0" y="0" flags="0x0"/>
      <component glyphName="breve" x="261" y="145" flags="0x4"/>
    </TTGlyph>
    <TTGlyph name="Acircumflex" xMin="-45" yMin="0" xMax="628" yMax="868">
      <component glyphName=".ttfautohint" x="0" y="0" flags="0x0"/>
      <component glyphName="A" x="0" y="0" flags="0x0"/>
      <component glyphName="circumflex" x="264" y="145" flags="0x4"/>
    </TTGlyph>
    <TTGlyph name="Adieresis" xMin="-45" yMin="0" xMax="628" yMax="868">
      <component glyphName=".ttfautohint" x="0" y="0" flags="0x0"/>
      <component glyphName="A" x="0" y="0" flags="0x0"/>
      <component glyphName="dieresis" x="273" y="145" flags="0x4"/>
    </TTGlyph>
    <TTGlyph name="Agrave" xMin="-45" yMin="0" xMax="628" yMax="868">
      <component glyphName=".ttfautohint" x="0" y="0" flags="0x0"/>
      <component glyphName="A" x="0" y="0" flags="0x0"/>
      <component glyphName="grave" x="212" y="145" flags="0x4"/>
    </TTGlyph>
    <TTGlyph name="Amacron" xMin="-45" yMin="0" xMax="628" yMax="844">
      <component glyphName=".ttfautohint" x="0" y="0" flags="0x0"/>
      <component glyphName="A" x="0" y="0" flags="0x0"/>
      <component glyphName="macron" x="274" y="145" flags="0x4"/>
    </TTGlyph>
    <TTGlyph name="Aogonek" xMin="-45" yMin="-182" xMax="628" yMax="686">
      <contour>
        <pt x="491" y="-182" on="0"/>
        <pt x="444" y="-146" on="0"/>
        <pt x="444" y="-107" on="1"/>
        <pt x="444" y="-44" on="0"/>
        <pt x="514" y="0" on="1"/>
        <pt x="480" y="167" on="1"/>
        <pt x="163" y="167" on="1"/>
        <pt x="72" y="0" on="1"/>
        <pt x="-45" y="0" on="1"/>
        <pt x="342" y="686" on="1"/>
        <pt x="483" y="686" on="1"/>
        <pt x="628" y="0" on="1"/>
        <pt x="594" y="0" on="1"/>
        <pt x="569" y="-15" on="0"/>
        <pt x="537" y="-54" on="0"/>
        <pt x="537" y="-76" on="1"/>
        <pt x="537" y="-93" on="0"/>
        <pt x="558" y="-116" on="0"/>
        <pt x="578" y="-116" on="1"/>
        <pt x="608" y="-116" on="1"/>
        <pt x="599" y="-168" on="1"/>
        <pt x="561" y="-182" on="0"/>
        <pt x="524" y="-182" on="1"/>
      </contour>
      <contour>
        <pt x="461" y="262" on="1"/>
        <pt x="425" y="446" on="1"/>
        <pt x="421" y="464" on="0"/>
        <pt x="410" y="527" on="1"/>
        <pt x="399" y="591" on="1"/>
        <pt x="394" y="591" on="1"/>
        <pt x="318" y="449" on="1"/>
        <pt x="215" y="262" on="1"/>
      </contour>
    </TTGlyph>
    <TTGlyph name="Aring" xMin="-45" yMin="0" xMax="628" yMax="903">
      <component glyphName=".ttfautohint" x="0" y="0" flags="0x0"/>
      <component glyphName="A" x="0" y="0" flags="0x0"/>
      <component glyphName="ring" x="266" y="145" flags="0x4"/>
    </TTGlyph>
    <TTGlyph name="Aringacute" xMin="-45" yMin="0" xMax="628" yMax="993">
      <contour>
        <pt x="502" y="993" on="1"/>
        <pt x="614" y="993" on="1"/>
        <pt x="615" y="990" on="1"/>
        <pt x="489" y="861" on="1"/>
        <pt x="396" y="861" on="1"/>
      </contour>
      <contour>
        <pt x="337" y="677" on="1"/>
        <pt x="321" y="696" on="0"/>
        <pt x="321" y="723" on="1"/>
        <pt x="321" y="773" on="0"/>
        <pt x="383" y="838" on="0"/>
        <pt x="434" y="838" on="1"/>
        <pt x="472" y="838" on="0"/>
        <pt x="519" y="791" on="0"/>
        <pt x="519" y="756" on="1"/>
        <pt x="519" y="701" on="0"/>
        <pt x="485" y="674" on="1"/>
        <pt x="628" y="0" on="1"/>
        <pt x="514" y="0" on="1"/>
        <pt x="480" y="167" on="1"/>
        <pt x="163" y="167" on="1"/>
        <pt x="72" y="0" on="1"/>
        <pt x="-45" y="0" on="1"/>
      </contour>
      <contour>
        <pt x="438" y="691" on="0"/>
        <pt x="470" y="725" on="0"/>
        <pt x="470" y="749" on="1"/>
        <pt x="470" y="766" on="0"/>
        <pt x="447" y="789" on="0"/>
        <pt x="428" y="789" on="1"/>
        <pt x="402" y="789" on="0"/>
        <pt x="371" y="755" on="0"/>
        <pt x="371" y="730" on="1"/>
        <pt x="371" y="713" on="0"/>
        <pt x="393" y="691" on="0"/>
        <pt x="413" y="691" on="1"/>
      </contour>
      <contour>
        <pt x="461" y="262" on="1"/>
        <pt x="425" y="446" on="1"/>
        <pt x="421" y="464" on="0"/>
        <pt x="410" y="527" on="1"/>
        <pt x="399" y="591" on="1"/>
        <pt x="394" y="591" on="1"/>
        <pt x="318" y="449" on="1"/>
        <pt x="215" y="262" on="1"/>
      </contour>
    </TTGlyph>
    <TTGlyph name="Atilde" xMin="-45" yMin="0" xMax="628" yMax="868">
      <component glyphName=".ttfautohint" x="0" y="0" flags="0x0"/>
      <component glyphName="A" x="0" y="0" flags="0x0"/>
      <component glyphName="tilde" x="271" y="145" flags="0x4"/>
    </TTGlyph>
    <TTGlyph name="B" xMin="15" yMin="0" xMax="649" yMax="686">
      <contour>
        <pt x="136" y="686" on="1"/>
        <pt x="446" y="686" on="1"/>
        <pt x="541" y="686" on="0"/>
        <pt x="649" y="609" on="0"/>
        <pt x="649" y="535" on="1"/>
        <pt x="649" y="472" on="0"/>
        <pt x="567" y="376" on="0"/>
        <pt x="506" y="360" on="1"/>
        <pt x="506" y="356" on="1"/>
        <pt x="555" y="342" on="0"/>
        <pt x="612" y="268" on="0"/>
        <pt x="612" y="211" on="1"/>
        <pt x="612" y="140" on="0"/>
        <pt x="547" y="45" on="0"/>
        <pt x="441" y="0" on="0"/>
        <pt x="376" y="0" on="1"/>
        <pt x="15" y="0" on="1"/>
      </contour>
      <contour>
        <pt x="408" y="399" on="1"/>
        <pt x="467" y="399" on="0"/>
        <pt x="536" y="462" on="0"/>
        <pt x="536" y="510" on="1"/>
        <pt x="536" y="591" on="0"/>
        <pt x="446" y="591" on="1"/>
        <pt x="230" y="591" on="1"/>
        <pt x="196" y="399" on="1"/>
      </contour>
      <contour>
        <pt x="371" y="95" on="1"/>
        <pt x="429" y="95" on="0"/>
        <pt x="500" y="152" on="0"/>
        <pt x="500" y="215" on="1"/>
        <pt x="500" y="259" on="0"/>
        <pt x="449" y="304" on="0"/>
        <pt x="400" y="304" on="1"/>
        <pt x="180" y="304" on="1"/>
        <pt x="143" y="95" on="1"/>
      </contour>
    </TTGlyph>
    <TTGlyph name="C" xMin="36" yMin="-12" xMax="699" yMax="698">
      <contour>
        <pt x="36" y="-12" on="0"/>
        <pt x="36" y="252" on="1"/>
        <pt x="36" y="370" on="0"/>
        <pt x="113" y="562" on="0"/>
        <pt x="187" y="620" on="1"/>
        <pt x="285" y="698" on="0"/>
        <pt x="430" y="698" on="1"/>
        <pt x="553" y="698" on="0"/>
        <pt x="699" y="593" on="0"/>
        <pt x="699" y="492" on="1"/>
        <pt x="699" y="469" on="0"/>
        <pt x="694" y="436" on="1"/>
        <pt x="581" y="436" on="1"/>
        <pt x="585" y="462" on="0"/>
        <pt x="585" y="474" on="1"/>
        <pt x="585" y="538" on="0"/>
        <pt x="505" y="604" on="0"/>
        <pt x="433" y="604" on="1"/>
        <pt x="325" y="604" on="0"/>
        <pt x="187" y="483" on="0"/>
        <pt x="163" y="374" on="1"/>
        <pt x="150" y="312" on="0"/>
        <pt x="150" y="259" on="1"/>
        <pt x="150" y="168" on="0"/>
        <pt x="236" y="82" on="0"/>
        <pt x="324" y="82" on="1"/>
        <pt x="416" y="82" on="0"/>
        <pt x="537" y="167" on="0"/>
        <pt x="552" y="248" on="1"/>
        <pt x="661" y="248" on="1"/>
        <pt x="639" y="119" on="0"/>
        <pt x="458" y="-12" on="0"/>
        <pt x="326" y="-12" on="1"/>
      </contour>
    </TTGlyph>
    <TTGlyph name="Cacute" xMin="36" yMin="-12" xMax="699" yMax="868">
      <component glyphName=".ttfautohint" x="36" y="0" flags="0x0"/>
      <component glyphName="C" x="0" y="0" flags="0x0"/>
      <component glyphName="acute" x="334" y="145" flags="0x4"/>
    </TTGlyph>
    <TTGlyph name="Cacute.loclPLK" xMin="36" yMin="-12" xMax="699" yMax="868">
      <component glyphName=".ttfautohint" x="36" y="0" flags="0x0"/>
      <component glyphName="C" x="0" y="0" flags="0x0"/>
      <component glyphName="acute.loclPLK" x="229" y="145" flags="0x4"/>
    </TTGlyph>
    <TTGlyph name="Ccaron" xMin="36" yMin="-12" xMax="699" yMax="868">
      <component glyphName=".ttfautohint" x="36" y="0" flags="0x0"/>
      <component glyphName="C" x="0" y="0" flags="0x0"/>
      <component glyphName="caron" x="288" y="145" flags="0x4"/>
    </TTGlyph>
    <TTGlyph name="Ccedilla" xMin="36" yMin="-182" xMax="699" yMax="698">
      <contour>
        <pt x="581" y="436" on="1"/>
        <pt x="585" y="462" on="0"/>
        <pt x="585" y="474" on="1"/>
        <pt x="585" y="538" on="0"/>
        <pt x="505" y="604" on="0"/>
        <pt x="433" y="604" on="1"/>
        <pt x="325" y="604" on="0"/>
        <pt x="187" y="483" on="0"/>
        <pt x="163" y="374" on="1"/>
        <pt x="150" y="312" on="0"/>
        <pt x="150" y="259" on="1"/>
        <pt x="150" y="168" on="0"/>
        <pt x="236" y="82" on="0"/>
        <pt x="324" y="82" on="1"/>
        <pt x="416" y="82" on="0"/>
        <pt x="537" y="167" on="0"/>
        <pt x="552" y="248" on="1"/>
        <pt x="661" y="248" on="1"/>
        <pt x="639" y="124" on="0"/>
        <pt x="471" y="-7" on="0"/>
        <pt x="346" y="-12" on="1"/>
        <pt x="338" y="-35" on="1"/>
        <pt x="375" y="-36" on="0"/>
        <pt x="422" y="-66" on="0"/>
        <pt x="422" y="-95" on="1"/>
        <pt x="422" y="-144" on="0"/>
        <pt x="344" y="-182" on="0"/>
        <pt x="289" y="-182" on="1"/>
        <pt x="232" y="-182" on="0"/>
        <pt x="187" y="-174" on="1"/>
        <pt x="196" y="-125" on="1"/>
        <pt x="292" y="-125" on="1"/>
        <pt x="314" y="-125" on="0"/>
        <pt x="338" y="-112" on="0"/>
        <pt x="338" y="-95" on="1"/>
        <pt x="338" y="-86" on="0"/>
        <pt x="322" y="-77" on="0"/>
        <pt x="302" y="-77" on="1"/>
        <pt x="254" y="-77" on="1"/>
        <pt x="278" y="-10" on="1"/>
        <pt x="36" y="11" on="0"/>
        <pt x="36" y="252" on="1"/>
        <pt x="36" y="370" on="0"/>
        <pt x="113" y="562" on="0"/>
        <pt x="187" y="620" on="1"/>
        <pt x="285" y="698" on="0"/>
        <pt x="430" y="698" on="1"/>
        <pt x="553" y="698" on="0"/>
        <pt x="699" y="593" on="0"/>
        <pt x="699" y="492" on="1"/>
        <pt x="699" y="469" on="0"/>
        <pt x="694" y="436" on="1"/>
      </contour>
    </TTGlyph>
    <TTGlyph name="Ccircumflex" xMin="36" yMin="-12" xMax="699" yMax="868">
      <component glyphName=".ttfautohint" x="36" y="0" flags="0x0"/>
      <component glyphName="C" x="0" y="0" flags="0x0"/>
      <component glyphName="circumflex" x="282" y="145" flags="0x4"/>
    </TTGlyph>
    <TTGlyph name="Cdotaccent" xMin="36" yMin="-12" xMax="699" yMax="868">
      <component glyphName=".ttfautohint" x="36" y="0" flags="0x0"/>
      <component glyphName="C" x="0" y="0" flags="0x0"/>
      <component glyphName="dotaccent" x="290" y="145" flags="0x4"/>
    </TTGlyph>
    <TTGlyph name="D" xMin="15" yMin="0" xMax="686" yMax="686">
      <contour>
        <pt x="136" y="686" on="1"/>
        <pt x="382" y="686" on="1"/>
        <pt x="529" y="686" on="0"/>
        <pt x="686" y="552" on="0"/>
        <pt x="686" y="415" on="1"/>
        <pt x="686" y="320" on="0"/>
        <pt x="631" y="164" on="0"/>
        <pt x="578" y="109" on="1"/>
        <pt x="527" y="56" on="0"/>
        <pt x="384" y="0" on="0"/>
        <pt x="298" y="0" on="1"/>
        <pt x="15" y="0" on="1"/>
      </contour>
      <contour>
        <pt x="293" y="95" on="1"/>
        <pt x="400" y="95" on="0"/>
        <pt x="544" y="213" on="0"/>
        <pt x="564" y="322" on="1"/>
        <pt x="572" y="373" on="0"/>
        <pt x="572" y="407" on="1"/>
        <pt x="572" y="591" on="0"/>
        <pt x="382" y="591" on="1"/>
        <pt x="229" y="591" on="1"/>
        <pt x="143" y="95" on="1"/>
      </contour>
    </TTGlyph>
    <TTGlyph name="Dcaron" xMin="15" yMin="0" xMax="686" yMax="868">
      <component glyphName=".ttfautohint" x="15" y="0" flags="0x0"/>
      <component glyphName="D" x="0" y="0" flags="0x0"/>
      <component glyphName="caron" x="241" y="145" flags="0x4"/>
    </TTGlyph>
    <TTGlyph name="Dcroat" xMin="1" yMin="0" xMax="686" yMax="686">
      <component glyphName=".ttfautohint" x="1" y="0" flags="0x0"/>
      <component glyphName="Eth" x="0" y="0" flags="0x0"/>
    </TTGlyph>
    <TTGlyph name="E" xMin="15" yMin="0" xMax="668" yMax="686">
      <contour>
        <pt x="136" y="686" on="1"/>
        <pt x="668" y="686" on="1"/>
        <pt x="650" y="591" on="1"/>
        <pt x="229" y="591" on="1"/>
        <pt x="196" y="398" on="1"/>
        <pt x="573" y="398" on="1"/>
        <pt x="556" y="303" on="1"/>
        <pt x="179" y="303" on="1"/>
        <pt x="143" y="95" on="1"/>
        <pt x="570" y="95" on="1"/>
        <pt x="553" y="0" on="1"/>
        <pt x="15" y="0" on="1"/>
      </contour>
    </TTGlyph>
    <TTGlyph name="Eacute" xMin="15" yMin="0" xMax="668" yMax="868">
      <component glyphName=".ttfautohint" x="15" y="0" flags="0x0"/>
      <component glyphName="E" x="0" y="0" flags="0x0"/>
      <component glyphName="acute" x="309" y="145" flags="0x4"/>
    </TTGlyph>
    <TTGlyph name="Ebreve" xMin="15" yMin="0" xMax="668" yMax="868">
      <component glyphName=".ttfautohint" x="15" y="0" flags="0x0"/>
      <component glyphName="E" x="0" y="0" flags="0x0"/>
      <component glyphName="breve" x="254" y="145" flags="0x4"/>
    </TTGlyph>
    <TTGlyph name="Ecaron" xMin="15" yMin="0" xMax="668" yMax="868">
      <component glyphName=".ttfautohint" x="15" y="0" flags="0x0"/>
      <component glyphName="E" x="0" y="0" flags="0x0"/>
      <component glyphName="caron" x="263" y="145" flags="0x4"/>
    </TTGlyph>
    <TTGlyph name="Ecircumflex" xMin="15" yMin="0" xMax="668" yMax="868">
      <component glyphName=".ttfautohint" x="15" y="0" flags="0x0"/>
      <component glyphName="E" x="0" y="0" flags="0x0"/>
      <component glyphName="circumflex" x="257" y="145" flags="0x4"/>
    </TTGlyph>
    <TTGlyph name="Edieresis" xMin="15" yMin="0" xMax="668" yMax="868">
      <component glyphName=".ttfautohint" x="15" y="0" flags="0x0"/>
      <component glyphName="E" x="0" y="0" flags="0x0"/>
      <component glyphName="dieresis" x="266" y="145" flags="0x4"/>
    </TTGlyph>
    <TTGlyph name="Edotaccent" xMin="15" yMin="0" xMax="668" yMax="868">
      <component glyphName=".ttfautohint" x="15" y="0" flags="0x0"/>
      <component glyphName="E" x="0" y="0" flags="0x0"/>
      <component glyphName="dotaccent" x="265" y="145" flags="0x4"/>
    </TTGlyph>
    <TTGlyph name="Egrave" xMin="15" yMin="0" xMax="668" yMax="868">
      <component glyphName=".ttfautohint" x="15" y="0" flags="0x0"/>
      <component glyphName="E" x="0" y="0" flags="0x0"/>
      <component glyphName="grave" x="205" y="145" flags="0x4"/>
    </TTGlyph>
    <TTGlyph name="Emacron" xMin="15" yMin="0" xMax="668" yMax="844">
      <component glyphName=".ttfautohint" x="15" y="0" flags="0x0"/>
      <component glyphName="E" x="0" y="0" flags="0x0"/>
      <component glyphName="macron" x="267" y="145" flags="0x4"/>
    </TTGlyph>
    <TTGlyph name="Eng" xMin="15" yMin="-182" xMax="708" yMax="686">
      <contour>
        <pt x="422" y="-182" on="0"/>
        <pt x="378" y="-174" on="0"/>
        <pt x="363" y="-169" on="1"/>
        <pt x="375" y="-100" on="1"/>
        <pt x="420" y="-100" on="1"/>
        <pt x="465" y="-100" on="0"/>
        <pt x="473" y="-53" on="1"/>
        <pt x="484" y="7" on="1"/>
        <pt x="239" y="457" on="1"/>
        <pt x="237" y="460" on="0"/>
        <pt x="224" y="486" on="1"/>
        <pt x="222" y="490" on="0"/>
        <pt x="214" y="508" on="0"/>
        <pt x="210" y="512" on="1"/>
        <pt x="205" y="512" on="1"/>
        <pt x="199" y="445" on="1"/>
        <pt x="120" y="0" on="1"/>
        <pt x="15" y="0" on="1"/>
        <pt x="136" y="686" on="1"/>
        <pt x="238" y="686" on="1"/>
        <pt x="486" y="235" on="1"/>
        <pt x="506" y="195" on="0"/>
        <pt x="512" y="185" on="1"/>
        <pt x="516" y="185" on="1"/>
        <pt x="523" y="224" on="1"/>
        <pt x="526" y="246" on="1"/>
        <pt x="603" y="686" on="1"/>
        <pt x="708" y="686" on="1"/>
        <pt x="578" y="-55" on="1"/>
        <pt x="567" y="-112" on="0"/>
        <pt x="506" y="-182" on="0"/>
        <pt x="441" y="-182" on="1"/>
      </contour>
    </TTGlyph>
    <TTGlyph name="Eogonek" xMin="15" yMin="-182" xMax="668" yMax="686">
      <contour>
        <pt x="420" y="-182" on="0"/>
        <pt x="367" y="-147" on="0"/>
        <pt x="367" y="-110" on="1"/>
        <pt x="367" y="-73" on="0"/>
        <pt x="409" y="-20" on="0"/>
        <pt x="449" y="0" on="1"/>
        <pt x="15" y="0" on="1"/>
        <pt x="136" y="686" on="1"/>
        <pt x="668" y="686" on="1"/>
        <pt x="650" y="591" on="1"/>
        <pt x="229" y="591" on="1"/>
        <pt x="196" y="398" on="1"/>
        <pt x="573" y="398" on="1"/>
        <pt x="556" y="303" on="1"/>
        <pt x="179" y="303" on="1"/>
        <pt x="143" y="95" on="1"/>
        <pt x="570" y="95" on="1"/>
        <pt x="553" y="0" on="1"/>
        <pt x="514" y="-14" on="0"/>
        <pt x="459" y="-58" on="0"/>
        <pt x="459" y="-82" on="1"/>
        <pt x="459" y="-96" on="0"/>
        <pt x="482" y="-116" on="0"/>
        <pt x="503" y="-116" on="1"/>
        <pt x="533" y="-116" on="1"/>
        <pt x="523" y="-168" on="1"/>
        <pt x="486" y="-182" on="0"/>
        <pt x="456" y="-182" on="1"/>
      </contour>
    </TTGlyph>
    <TTGlyph name="Eth" xMin="1" yMin="0" xMax="686" yMax="686">
      <contour>
        <pt x="529" y="686" on="0"/>
        <pt x="686" y="552" on="0"/>
        <pt x="686" y="415" on="1"/>
        <pt x="686" y="320" on="0"/>
        <pt x="631" y="164" on="0"/>
        <pt x="578" y="109" on="1"/>
        <pt x="527" y="56" on="0"/>
        <pt x="384" y="0" on="0"/>
        <pt x="298" y="0" on="1"/>
        <pt x="15" y="0" on="1"/>
        <pt x="71" y="320" on="1"/>
        <pt x="1" y="320" on="1"/>
        <pt x="13" y="390" on="1"/>
        <pt x="84" y="390" on="1"/>
        <pt x="136" y="686" on="1"/>
        <pt x="382" y="686" on="1"/>
      </contour>
      <contour>
        <pt x="572" y="373" on="0"/>
        <pt x="572" y="407" on="1"/>
        <pt x="572" y="591" on="0"/>
        <pt x="382" y="591" on="1"/>
        <pt x="229" y="591" on="1"/>
        <pt x="194" y="390" on="1"/>
        <pt x="357" y="390" on="1"/>
        <pt x="345" y="320" on="1"/>
        <pt x="182" y="320" on="1"/>
        <pt x="143" y="95" on="1"/>
        <pt x="293" y="95" on="1"/>
        <pt x="400" y="95" on="0"/>
        <pt x="544" y="213" on="0"/>
        <pt x="564" y="322" on="1"/>
      </contour>
    </TTGlyph>
    <TTGlyph name="Euro" xMin="-2" yMin="-12" xMax="581" yMax="698">
      <contour>
        <pt x="242" y="-12" on="0"/>
        <pt x="79" y="110" on="0"/>
        <pt x="73" y="240" on="1"/>
        <pt x="-2" y="240" on="1"/>
        <pt x="9" y="310" on="1"/>
        <pt x="75" y="310" on="1"/>
        <pt x="78" y="344" on="0"/>
        <pt x="87" y="380" on="1"/>
        <pt x="22" y="380" on="1"/>
        <pt x="34" y="450" on="1"/>
        <pt x="107" y="450" on="1"/>
        <pt x="155" y="577" on="0"/>
        <pt x="358" y="698" on="0"/>
        <pt x="479" y="698" on="1"/>
        <pt x="524" y="698" on="0"/>
        <pt x="581" y="686" on="1"/>
        <pt x="567" y="603" on="1"/>
        <pt x="564" y="604" on="0"/>
        <pt x="520" y="613" on="0"/>
        <pt x="493" y="613" on="1"/>
        <pt x="407" y="613" on="0"/>
        <pt x="258" y="534" on="0"/>
        <pt x="221" y="450" on="1"/>
        <pt x="468" y="450" on="1"/>
        <pt x="456" y="380" on="1"/>
        <pt x="196" y="380" on="1"/>
        <pt x="186" y="348" on="0"/>
        <pt x="184" y="310" on="1"/>
        <pt x="443" y="310" on="1"/>
        <pt x="431" y="240" on="1"/>
        <pt x="183" y="240" on="1"/>
        <pt x="190" y="150" on="0"/>
        <pt x="311" y="73" on="0"/>
        <pt x="387" y="73" on="1"/>
        <pt x="418" y="73" on="0"/>
        <pt x="471" y="82" on="0"/>
        <pt x="475" y="83" on="1"/>
        <pt x="461" y="0" on="1"/>
        <pt x="443" y="-4" on="0"/>
        <pt x="391" y="-12" on="0"/>
        <pt x="363" y="-12" on="1"/>
      </contour>
    </TTGlyph>
    <TTGlyph name="F" xMin="15" yMin="0" xMax="626" yMax="686">
      <contour>
        <pt x="136" y="686" on="1"/>
        <pt x="626" y="686" on="1"/>
        <pt x="608" y="591" on="1"/>
        <pt x="229" y="591" on="1"/>
        <pt x="194" y="388" on="1"/>
        <pt x="537" y="388" on="1"/>
        <pt x="520" y="293" on="1"/>
        <pt x="177" y="293" on="1"/>
        <pt x="126" y="0" on="1"/>
        <pt x="15" y="0" on="1"/>
      </contour>
    </TTGlyph>
    <TTGlyph name="G" xMin="36" yMin="-12" xMax="734" yMax="698">
      <contour>
        <pt x="616" y="452" on="1"/>
        <pt x="619" y="467" on="0"/>
        <pt x="619" y="480" on="1"/>
        <pt x="619" y="541" on="0"/>
        <pt x="527" y="604" on="0"/>
        <pt x="449" y="604" on="1"/>
        <pt x="335" y="604" on="0"/>
        <pt x="188" y="486" on="0"/>
        <pt x="164" y="377" on="1"/>
        <pt x="150" y="310" on="0"/>
        <pt x="150" y="261" on="1"/>
        <pt x="150" y="168" on="0"/>
        <pt x="240" y="82" on="0"/>
        <pt x="330" y="82" on="1"/>
        <pt x="401" y="82" on="0"/>
        <pt x="513" y="130" on="0"/>
        <pt x="580" y="212" on="0"/>
        <pt x="586" y="262" on="1"/>
        <pt x="587" y="268" on="1"/>
        <pt x="355" y="268" on="1"/>
        <pt x="372" y="362" on="1"/>
        <pt x="714" y="362" on="1"/>
        <pt x="650" y="0" on="1"/>
        <pt x="569" y="0" on="1"/>
        <pt x="569" y="82" on="1"/>
        <pt x="520" y="34" on="0"/>
        <pt x="398" y="-12" on="0"/>
        <pt x="322" y="-12" on="1"/>
        <pt x="183" y="-12" on="0"/>
        <pt x="36" y="123" on="0"/>
        <pt x="36" y="254" on="1"/>
        <pt x="36" y="357" on="0"/>
        <pt x="96" y="527" on="0"/>
        <pt x="153" y="586" on="1"/>
        <pt x="206" y="640" on="0"/>
        <pt x="353" y="698" on="0"/>
        <pt x="444" y="698" on="1"/>
        <pt x="575" y="698" on="0"/>
        <pt x="734" y="596" on="0"/>
        <pt x="734" y="498" on="1"/>
        <pt x="734" y="473" on="0"/>
        <pt x="730" y="452" on="1"/>
      </contour>
    </TTGlyph>
    <TTGlyph name="G_tilde.loclGUA" xMin="36" yMin="-12" xMax="734" yMax="868">
      <component glyphName=".ttfautohint" x="36" y="0" flags="0x0"/>
      <component glyphName="G" x="0" y="0" flags="0x0"/>
      <component glyphName="tilde" x="289" y="145" flags="0x4"/>
    </TTGlyph>
    <TTGlyph name="Gbreve" xMin="36" yMin="-12" xMax="734" yMax="868">
      <component glyphName=".ttfautohint" x="36" y="0" flags="0x0"/>
      <component glyphName="G" x="0" y="0" flags="0x0"/>
      <component glyphName="breve" x="279" y="145" flags="0x4"/>
    </TTGlyph>
    <TTGlyph name="Gcaron" xMin="36" yMin="-12" xMax="734" yMax="868">
      <component glyphName=".ttfautohint" x="36" y="0" flags="0x0"/>
      <component glyphName="G" x="0" y="0" flags="0x0"/>
      <component glyphName="caron" x="288" y="145" flags="0x4"/>
    </TTGlyph>
    <TTGlyph name="Gcircumflex" xMin="36" yMin="-12" xMax="734" yMax="868">
      <component glyphName=".ttfautohint" x="36" y="0" flags="0x0"/>
      <component glyphName="G" x="0" y="0" flags="0x0"/>
      <component glyphName="circumflex" x="282" y="145" flags="0x4"/>
    </TTGlyph>
    <TTGlyph name="Gcommaaccent" xMin="36" yMin="-230" xMax="734" yMax="698">
      <component glyphName=".ttfautohint" x="36" y="0" flags="0x0"/>
      <component glyphName="G" x="0" y="0" flags="0x0"/>
      <component glyphName="uni0326" x="447" y="0" flags="0x0"/>
    </TTGlyph>
    <TTGlyph name="Gdotaccent" xMin="36" yMin="-12" xMax="734" yMax="868">
      <component glyphName=".ttfautohint" x="36" y="0" flags="0x0"/>
      <component glyphName="G" x="0" y="0" flags="0x0"/>
      <component glyphName="dotaccent" x="290" y="145" flags="0x4"/>
    </TTGlyph>
    <TTGlyph name="H" xMin="15" yMin="0" xMax="708" yMax="686">
      <contour>
        <pt x="136" y="686" on="1"/>
        <pt x="247" y="686" on="1"/>
        <pt x="196" y="399" on="1"/>
        <pt x="547" y="399" on="1"/>
        <pt x="597" y="686" on="1"/>
        <pt x="708" y="686" on="1"/>
        <pt x="587" y="0" on="1"/>
        <pt x="476" y="0" on="1"/>
        <pt x="530" y="303" on="1"/>
        <pt x="179" y="303" on="1"/>
        <pt x="126" y="0" on="1"/>
        <pt x="15" y="0" on="1"/>
      </contour>
    </TTGlyph>
    <TTGlyph name="Hbar" xMin="15" yMin="0" xMax="759" yMax="686">
      <contour>
        <pt x="107" y="520" on="1"/>
        <pt x="40" y="520" on="1"/>
        <pt x="53" y="598" on="1"/>
        <pt x="120" y="598" on="1"/>
        <pt x="136" y="686" on="1"/>
        <pt x="247" y="686" on="1"/>
        <pt x="231" y="598" on="1"/>
        <pt x="581" y="598" on="1"/>
        <pt x="597" y="686" on="1"/>
        <pt x="708" y="686" on="1"/>
        <pt x="692" y="598" on="1"/>
        <pt x="759" y="598" on="1"/>
        <pt x="745" y="520" on="1"/>
        <pt x="678" y="520" on="1"/>
        <pt x="587" y="0" on="1"/>
        <pt x="476" y="0" on="1"/>
        <pt x="530" y="303" on="1"/>
        <pt x="179" y="303" on="1"/>
        <pt x="126" y="0" on="1"/>
        <pt x="15" y="0" on="1"/>
      </contour>
      <contour>
        <pt x="547" y="399" on="1"/>
        <pt x="568" y="520" on="1"/>
        <pt x="217" y="520" on="1"/>
        <pt x="196" y="399" on="1"/>
      </contour>
    </TTGlyph>
    <TTGlyph name="Hcircumflex" xMin="15" yMin="0" xMax="708" yMax="868">
      <component glyphName=".ttfautohint" x="15" y="0" flags="0x0"/>
      <component glyphName="H" x="0" y="0" flags="0x0"/>
      <component glyphName="circumflex" x="270" y="145" flags="0x4"/>
    </TTGlyph>
    <TTGlyph name="I" xMin="24" yMin="0" xMax="256" yMax="686">
      <contour>
        <pt x="145" y="686" on="1"/>
        <pt x="256" y="686" on="1"/>
        <pt x="135" y="0" on="1"/>
        <pt x="24" y="0" on="1"/>
      </contour>
    </TTGlyph>
    <TTGlyph name="IJ" xMin="24" yMin="-12" xMax="783" yMax="686">
      <component glyphName=".ttfautohint" x="24" y="0" flags="0x0"/>
      <component glyphName="I" x="0" y="0" flags="0x0"/>
      <component glyphName="J" x="278" y="0" flags="0x0"/>
    </TTGlyph>
    <TTGlyph name="Iacute" xMin="24" yMin="0" xMax="382" yMax="868">
      <component glyphName=".ttfautohint" x="24" y="0" flags="0x0"/>
      <component glyphName="I" x="0" y="0" flags="0x0"/>
      <component glyphName="acute" x="101" y="145" flags="0x4"/>
    </TTGlyph>
    <TTGlyph name="Iacute_J.loclNLD" xMin="24" yMin="-12" xMax="909" yMax="868">
      <component glyphName=".ttfautohint" x="24" y="0" flags="0x0"/>
      <component glyphName="I" x="0" y="0" flags="0x0"/>
      <component glyphName="acute" x="101" y="145" flags="0x4"/>
      <component glyphName="J" x="278" y="0" flags="0x0"/>
      <component glyphName="acute" x="628" y="145" flags="0x4"/>
    </TTGlyph>
    <TTGlyph name="Ibreve" xMin="24" yMin="0" xMax="374" yMax="868">
      <component glyphName=".ttfautohint" x="24" y="0" flags="0x0"/>
      <component glyphName="I" x="0" y="0" flags="0x0"/>
      <component glyphName="breve" x="46" y="145" flags="0x4"/>
    </TTGlyph>
    <TTGlyph name="Icircumflex" xMin="24" yMin="0" xMax="357" yMax="868">
      <component glyphName=".ttfautohint" x="24" y="0" flags="0x0"/>
      <component glyphName="I" x="0" y="0" flags="0x0"/>
      <component glyphName="circumflex" x="49" y="145" flags="0x4"/>
    </TTGlyph>
    <TTGlyph name="Idieresis" xMin="24" yMin="0" xMax="379" yMax="868">
      <component glyphName=".ttfautohint" x="24" y="0" flags="0x0"/>
      <component glyphName="I" x="0" y="0" flags="0x0"/>
      <component glyphName="dieresis" x="58" y="145" flags="0x4"/>
    </TTGlyph>
    <TTGlyph name="Idotaccent" xMin="24" yMin="0" xMax="284" yMax="868">
      <component glyphName=".ttfautohint" x="24" y="0" flags="0x0"/>
      <component glyphName="I" x="0" y="0" flags="0x0"/>
      <component glyphName="dotaccent" x="57" y="145" flags="0x4"/>
    </TTGlyph>
    <TTGlyph name="Igrave" xMin="24" yMin="0" xMax="256" yMax="868">
      <component glyphName=".ttfautohint" x="24" y="0" flags="0x0"/>
      <component glyphName="I" x="0" y="0" flags="0x0"/>
      <component glyphName="grave" x="-3" y="145" flags="0x4"/>
    </TTGlyph>
    <TTGlyph name="Imacron" xMin="24" yMin="0" xMax="382" yMax="844">
      <component glyphName=".ttfautohint" x="24" y="0" flags="0x0"/>
      <component glyphName="I" x="0" y="0" flags="0x0"/>
      <component glyphName="macron" x="59" y="145" flags="0x4"/>
    </TTGlyph>
    <TTGlyph name="Iogonek" xMin="-38" yMin="-190" xMax="256" yMax="686">
      <contour>
        <pt x="84" y="-16" on="0"/>
        <pt x="55" y="-60" on="0"/>
        <pt x="55" y="-84" on="1"/>
        <pt x="55" y="-101" on="0"/>
        <pt x="76" y="-124" on="0"/>
        <pt x="98" y="-124" on="1"/>
        <pt x="127" y="-124" on="1"/>
        <pt x="118" y="-176" on="1"/>
        <pt x="81" y="-190" on="0"/>
        <pt x="51" y="-190" on="1"/>
        <pt x="14" y="-190" on="0"/>
        <pt x="-38" y="-154" on="0"/>
        <pt x="-38" y="-115" on="1"/>
        <pt x="-38" y="-78" on="0"/>
        <pt x="0" y="-24" on="0"/>
        <pt x="32" y="0" on="1"/>
        <pt x="24" y="0" on="1"/>
        <pt x="145" y="686" on="1"/>
        <pt x="256" y="686" on="1"/>
        <pt x="135" y="0" on="1"/>
        <pt x="104" y="0" on="1"/>
      </contour>
    </TTGlyph>
    <TTGlyph name="Itilde" xMin="24" yMin="0" xMax="397" yMax="868">
      <component glyphName=".ttfautohint" x="24" y="0" flags="0x0"/>
      <component glyphName="I" x="0" y="0" flags="0x0"/>
      <component glyphName="tilde" x="56" y="145" flags="0x4"/>
    </TTGlyph>
    <TTGlyph name="J" xMin="-4" yMin="-12" xMax="505" yMax="686">
      <contour>
        <pt x="94" y="-12" on="0"/>
        <pt x="-4" y="64" on="0"/>
        <pt x="-4" y="138" on="1"/>
        <pt x="-4" y="172" on="0"/>
        <pt x="6" y="217" on="1"/>
        <pt x="116" y="217" on="1"/>
        <pt x="107" y="180" on="0"/>
        <pt x="107" y="156" on="1"/>
        <pt x="107" y="82" on="0"/>
        <pt x="183" y="82" on="1"/>
        <pt x="288" y="82" on="0"/>
        <pt x="308" y="194" on="1"/>
        <pt x="395" y="686" on="1"/>
        <pt x="505" y="686" on="1"/>
        <pt x="419" y="197" on="1"/>
        <pt x="400" y="89" on="0"/>
        <pt x="283" y="-12" on="0"/>
        <pt x="187" y="-12" on="1"/>
      </contour>
    </TTGlyph>
    <TTGlyph name="Jcircumflex" xMin="-4" yMin="-12" xMax="606" yMax="868">
      <component glyphName=".ttfautohint" x="0" y="0" flags="0x0"/>
      <component glyphName="J" x="0" y="0" flags="0x0"/>
      <component glyphName="circumflex" x="298" y="145" flags="0x4"/>
    </TTGlyph>
    <TTGlyph name="K" xMin="15" yMin="0" xMax="731" yMax="686">
      <contour>
        <pt x="136" y="686" on="1"/>
        <pt x="247" y="686" on="1"/>
        <pt x="183" y="325" on="1"/>
        <pt x="587" y="686" on="1"/>
        <pt x="731" y="686" on="1"/>
        <pt x="421" y="409" on="1"/>
        <pt x="618" y="0" on="1"/>
        <pt x="495" y="0" on="1"/>
        <pt x="335" y="334" on="1"/>
        <pt x="159" y="192" on="1"/>
        <pt x="126" y="0" on="1"/>
        <pt x="15" y="0" on="1"/>
      </contour>
    </TTGlyph>
    <TTGlyph name="Kcommaaccent" xMin="15" yMin="-230" xMax="731" yMax="686">
      <component glyphName=".ttfautohint" x="15" y="0" flags="0x0"/>
      <component glyphName="K" x="0" y="0" flags="0x0"/>
      <component glyphName="uni0326" x="400" y="0" flags="0x0"/>
    </TTGlyph>
    <TTGlyph name="L" xMin="15" yMin="0" xMax="512" yMax="686">
      <contour>
        <pt x="136" y="686" on="1"/>
        <pt x="247" y="686" on="1"/>
        <pt x="143" y="96" on="1"/>
        <pt x="512" y="96" on="1"/>
        <pt x="495" y="0" on="1"/>
        <pt x="15" y="0" on="1"/>
      </contour>
    </TTGlyph>
    <TTGlyph name="Lacute" xMin="15" yMin="0" xMax="512" yMax="868">
      <component glyphName=".ttfautohint" x="15" y="0" flags="0x0"/>
      <component glyphName="L" x="0" y="0" flags="0x0"/>
      <component glyphName="acute" x="92" y="145" flags="0x4"/>
    </TTGlyph>
    <TTGlyph name="Lcaron" xMin="15" yMin="0" xMax="512" yMax="686">
      <contour>
        <pt x="136" y="686" on="1"/>
        <pt x="247" y="686" on="1"/>
        <pt x="143" y="96" on="1"/>
        <pt x="512" y="96" on="1"/>
        <pt x="495" y="0" on="1"/>
        <pt x="15" y="0" on="1"/>
      </contour>
      <contour>
        <pt x="394" y="584" on="1"/>
        <pt x="356" y="584" on="1"/>
        <pt x="373" y="686" on="1"/>
        <pt x="475" y="686" on="1"/>
        <pt x="458" y="593" on="1"/>
        <pt x="389" y="475" on="1"/>
        <pt x="335" y="475" on="1"/>
      </contour>
    </TTGlyph>
    <TTGlyph name="Lcommaaccent" xMin="15" yMin="-230" xMax="512" yMax="686">
      <component glyphName=".ttfautohint" x="15" y="0" flags="0x0"/>
      <component glyphName="L" x="0" y="0" flags="0x0"/>
      <component glyphName="uni0326" x="359" y="0" flags="0x0"/>
    </TTGlyph>
    <TTGlyph name="Ldot" xMin="15" yMin="0" xMax="512" yMax="686">
      <component glyphName=".ttfautohint" x="15" y="0" flags="0x0"/>
      <component glyphName="L" x="0" y="0" flags="0x0"/>
      <component glyphName="periodcentered" x="214" y="110" flags="0x4"/>
    </TTGlyph>
    <TTGlyph name="Lslash" xMin="-6" yMin="0" xMax="512" yMax="686">
      <contour>
        <pt x="73" y="259" on="1"/>
        <pt x="-6" y="212" on="1"/>
        <pt x="9" y="299" on="1"/>
        <pt x="88" y="347" on="1"/>
        <pt x="148" y="686" on="1"/>
        <pt x="258" y="686" on="1"/>
        <pt x="211" y="420" on="1"/>
        <pt x="389" y="525" on="1"/>
        <pt x="373" y="437" on="1"/>
        <pt x="196" y="332" on="1"/>
        <pt x="154" y="96" on="1"/>
        <pt x="512" y="96" on="1"/>
        <pt x="495" y="0" on="1"/>
        <pt x="27" y="0" on="1"/>
      </contour>
    </TTGlyph>
    <TTGlyph name="M" xMin="15" yMin="0" xMax="819" yMax="686">
      <contour>
        <pt x="136" y="686" on="1"/>
        <pt x="299" y="686" on="1"/>
        <pt x="367" y="246" on="1"/>
        <pt x="371" y="219" on="0"/>
        <pt x="374" y="140" on="0"/>
        <pt x="374" y="127" on="1"/>
        <pt x="379" y="127" on="1"/>
        <pt x="384" y="140" on="0"/>
        <pt x="415" y="223" on="0"/>
        <pt x="426" y="246" on="1"/>
        <pt x="648" y="686" on="1"/>
        <pt x="819" y="686" on="1"/>
        <pt x="698" y="0" on="1"/>
        <pt x="588" y="0" on="1"/>
        <pt x="667" y="448" on="1"/>
        <pt x="691" y="571" on="1"/>
        <pt x="685" y="571" on="1"/>
        <pt x="682" y="565" on="0"/>
        <pt x="664" y="518" on="0"/>
        <pt x="655" y="499" on="1"/>
        <pt x="402" y="0" on="1"/>
        <pt x="303" y="0" on="1"/>
        <pt x="228" y="499" on="1"/>
        <pt x="226" y="515" on="0"/>
        <pt x="223" y="564" on="0"/>
        <pt x="222" y="571" on="1"/>
        <pt x="217" y="571" on="1"/>
        <pt x="215" y="556" on="0"/>
        <pt x="204" y="479" on="0"/>
        <pt x="199" y="448" on="1"/>
        <pt x="120" y="0" on="1"/>
        <pt x="15" y="0" on="1"/>
      </contour>
    </TTGlyph>
    <TTGlyph name="N" xMin="15" yMin="0" xMax="708" yMax="686">
      <contour>
        <pt x="136" y="686" on="1"/>
        <pt x="238" y="686" on="1"/>
        <pt x="486" y="235" on="1"/>
        <pt x="506" y="195" on="0"/>
        <pt x="512" y="185" on="1"/>
        <pt x="516" y="185" on="1"/>
        <pt x="523" y="224" on="1"/>
        <pt x="526" y="246" on="1"/>
        <pt x="603" y="686" on="1"/>
        <pt x="708" y="686" on="1"/>
        <pt x="587" y="0" on="1"/>
        <pt x="488" y="0" on="1"/>
        <pt x="243" y="451" on="1"/>
        <pt x="239" y="461" on="0"/>
        <pt x="232" y="471" on="1"/>
        <pt x="220" y="497" on="0"/>
        <pt x="213" y="508" on="1"/>
        <pt x="208" y="507" on="1"/>
        <pt x="197" y="441" on="1"/>
        <pt x="120" y="0" on="1"/>
        <pt x="15" y="0" on="1"/>
      </contour>
    </TTGlyph>
    <TTGlyph name="Nacute" xMin="15" yMin="0" xMax="708" yMax="868">
      <component glyphName=".ttfautohint" x="15" y="0" flags="0x0"/>
      <component glyphName="N" x="0" y="0" flags="0x0"/>
      <component glyphName="acute" x="339" y="145" flags="0x4"/>
    </TTGlyph>
    <TTGlyph name="Nacute.loclPLK" xMin="15" yMin="0" xMax="708" yMax="868">
      <component glyphName=".ttfautohint" x="15" y="0" flags="0x0"/>
      <component glyphName="N" x="0" y="0" flags="0x0"/>
      <component glyphName="acute.loclPLK" x="234" y="145" flags="0x4"/>
    </TTGlyph>
    <TTGlyph name="Ncaron" xMin="15" yMin="0" xMax="708" yMax="868">
      <component glyphName=".ttfautohint" x="15" y="0" flags="0x0"/>
      <component glyphName="N" x="0" y="0" flags="0x0"/>
      <component glyphName="caron" x="293" y="145" flags="0x4"/>
    </TTGlyph>
    <TTGlyph name="Ncommaaccent" xMin="15" yMin="-230" xMax="708" yMax="686">
      <component glyphName=".ttfautohint" x="15" y="0" flags="0x0"/>
      <component glyphName="N" x="0" y="0" flags="0x0"/>
      <component glyphName="uni0326" x="419" y="0" flags="0x0"/>
    </TTGlyph>
    <TTGlyph name="Ntilde" xMin="15" yMin="0" xMax="708" yMax="868">
      <component glyphName=".ttfautohint" x="15" y="0" flags="0x0"/>
      <component glyphName="N" x="0" y="0" flags="0x0"/>
      <component glyphName="tilde" x="294" y="145" flags="0x4"/>
    </TTGlyph>
    <TTGlyph name="O" xMin="36" yMin="-11" xMax="742" yMax="698">
      <contour>
        <pt x="195" y="-11" on="0"/>
        <pt x="36" y="128" on="0"/>
        <pt x="36" y="256" on="1"/>
        <pt x="36" y="302" on="0"/>
        <pt x="44" y="350" on="1"/>
        <pt x="72" y="517" on="0"/>
        <pt x="276" y="698" on="0"/>
        <pt x="440" y="698" on="1"/>
        <pt x="583" y="698" on="0"/>
        <pt x="742" y="560" on="0"/>
        <pt x="742" y="432" on="1"/>
        <pt x="742" y="388" on="0"/>
        <pt x="734" y="340" on="1"/>
        <pt x="707" y="171" on="0"/>
        <pt x="502" y="-11" on="0"/>
        <pt x="338" y="-11" on="1"/>
      </contour>
      <contour>
        <pt x="575" y="83" on="0"/>
        <pt x="620" y="345" on="1"/>
        <pt x="628" y="389" on="0"/>
        <pt x="628" y="429" on="1"/>
        <pt x="628" y="512" on="0"/>
        <pt x="532" y="604" on="0"/>
        <pt x="444" y="604" on="1"/>
        <pt x="203" y="604" on="0"/>
        <pt x="158" y="344" on="1"/>
        <pt x="150" y="299" on="0"/>
        <pt x="150" y="260" on="1"/>
        <pt x="150" y="176" on="0"/>
        <pt x="248" y="83" on="0"/>
        <pt x="337" y="83" on="1"/>
      </contour>
    </TTGlyph>
    <TTGlyph name="OE" xMin="36" yMin="-12" xMax="1000" yMax="698">
      <contour>
        <pt x="155" y="-12" on="0"/>
        <pt x="36" y="111" on="0"/>
        <pt x="36" y="230" on="1"/>
        <pt x="36" y="279" on="0"/>
        <pt x="47" y="343" on="1"/>
        <pt x="76" y="517" on="0"/>
        <pt x="244" y="698" on="0"/>
        <pt x="370" y="698" on="1"/>
        <pt x="494" y="698" on="0"/>
        <pt x="551" y="617" on="1"/>
        <pt x="563" y="686" on="1"/>
        <pt x="1000" y="686" on="1"/>
        <pt x="983" y="593" on="1"/>
        <pt x="657" y="593" on="1"/>
        <pt x="623" y="397" on="1"/>
        <pt x="897" y="397" on="1"/>
        <pt x="881" y="304" on="1"/>
        <pt x="606" y="304" on="1"/>
        <pt x="569" y="93" on="1"/>
        <pt x="902" y="93" on="1"/>
        <pt x="885" y="0" on="1"/>
        <pt x="442" y="0" on="1"/>
        <pt x="454" y="69" on="1"/>
        <pt x="376" y="-12" on="0"/>
        <pt x="267" y="-12" on="1"/>
      </contour>
      <contour>
        <pt x="371" y="82" on="0"/>
        <pt x="478" y="205" on="0"/>
        <pt x="503" y="343" on="1"/>
        <pt x="514" y="406" on="0"/>
        <pt x="514" y="446" on="1"/>
        <pt x="514" y="530" on="0"/>
        <pt x="445" y="604" on="0"/>
        <pt x="379" y="604" on="1"/>
        <pt x="291" y="604" on="0"/>
        <pt x="184" y="479" on="0"/>
        <pt x="160" y="343" on="1"/>
        <pt x="150" y="276" on="0"/>
        <pt x="150" y="238" on="1"/>
        <pt x="150" y="157" on="0"/>
        <pt x="220" y="82" on="0"/>
        <pt x="290" y="82" on="1"/>
      </contour>
    </TTGlyph>
    <TTGlyph name="Oacute" xMin="36" yMin="-11" xMax="742" yMax="868">
      <component glyphName=".ttfautohint" x="36" y="0" flags="0x0"/>
      <component glyphName="O" x="0" y="0" flags="0x0"/>
      <component glyphName="acute" x="334" y="145" flags="0x4"/>
    </TTGlyph>
    <TTGlyph name="Oacute.loclPLK" xMin="36" yMin="-11" xMax="742" yMax="868">
      <component glyphName=".ttfautohint" x="36" y="0" flags="0x0"/>
      <component glyphName="O" x="0" y="0" flags="0x0"/>
      <component glyphName="acute.loclPLK" x="229" y="145" flags="0x4"/>
    </TTGlyph>
    <TTGlyph name="Obreve" xMin="36" yMin="-11" xMax="742" yMax="868">
      <component glyphName=".ttfautohint" x="36" y="0" flags="0x0"/>
      <component glyphName="O" x="0" y="0" flags="0x0"/>
      <component glyphName="breve" x="279" y="145" flags="0x4"/>
    </TTGlyph>
    <TTGlyph name="Ocircumflex" xMin="36" yMin="-11" xMax="742" yMax="868">
      <component glyphName=".ttfautohint" x="36" y="0" flags="0x0"/>
      <component glyphName="O" x="0" y="0" flags="0x0"/>
      <component glyphName="circumflex" x="282" y="145" flags="0x4"/>
    </TTGlyph>
    <TTGlyph name="Odieresis" xMin="36" yMin="-11" xMax="742" yMax="868">
      <component glyphName=".ttfautohint" x="36" y="0" flags="0x0"/>
      <component glyphName="O" x="0" y="0" flags="0x0"/>
      <component glyphName="dieresis" x="291" y="145" flags="0x4"/>
    </TTGlyph>
    <TTGlyph name="Ograve" xMin="36" yMin="-11" xMax="742" yMax="868">
      <component glyphName=".ttfautohint" x="36" y="0" flags="0x0"/>
      <component glyphName="O" x="0" y="0" flags="0x0"/>
      <component glyphName="grave" x="230" y="145" flags="0x4"/>
    </TTGlyph>
    <TTGlyph name="Ohorn" xMin="36" yMin="-11" xMax="850" yMax="828">
      <contour>
        <pt x="850" y="828" on="1"/>
        <pt x="841" y="774" on="1"/>
        <pt x="818" y="631" on="0"/>
        <pt x="700" y="587" on="1"/>
        <pt x="742" y="523" on="0"/>
        <pt x="742" y="432" on="1"/>
        <pt x="742" y="388" on="0"/>
        <pt x="734" y="340" on="1"/>
        <pt x="707" y="171" on="0"/>
        <pt x="502" y="-11" on="0"/>
        <pt x="338" y="-11" on="1"/>
        <pt x="195" y="-11" on="0"/>
        <pt x="36" y="128" on="0"/>
        <pt x="36" y="256" on="1"/>
        <pt x="36" y="302" on="0"/>
        <pt x="44" y="350" on="1"/>
        <pt x="72" y="517" on="0"/>
        <pt x="276" y="698" on="0"/>
        <pt x="440" y="698" on="1"/>
        <pt x="578" y="698" on="0"/>
        <pt x="656" y="634" on="1"/>
        <pt x="731" y="652" on="0"/>
        <pt x="757" y="711" on="1"/>
        <pt x="707" y="711" on="1"/>
        <pt x="728" y="828" on="1"/>
      </contour>
      <contour>
        <pt x="628" y="389" on="0"/>
        <pt x="628" y="429" on="1"/>
        <pt x="628" y="512" on="0"/>
        <pt x="532" y="604" on="0"/>
        <pt x="444" y="604" on="1"/>
        <pt x="203" y="604" on="0"/>
        <pt x="158" y="344" on="1"/>
        <pt x="150" y="299" on="0"/>
        <pt x="150" y="260" on="1"/>
        <pt x="150" y="176" on="0"/>
        <pt x="248" y="83" on="0"/>
        <pt x="337" y="83" on="1"/>
        <pt x="575" y="83" on="0"/>
        <pt x="620" y="345" on="1"/>
      </contour>
    </TTGlyph>
    <TTGlyph name="Ohungarumlaut" xMin="36" yMin="-11" xMax="742" yMax="868">
      <component glyphName=".ttfautohint" x="36" y="0" flags="0x0"/>
      <component glyphName="O" x="0" y="0" flags="0x0"/>
      <component glyphName="hungarumlaut" x="313" y="145" flags="0x4"/>
    </TTGlyph>
    <TTGlyph name="Omacron" xMin="36" yMin="-11" xMax="742" yMax="844">
      <component glyphName=".ttfautohint" x="36" y="0" flags="0x0"/>
      <component glyphName="O" x="0" y="0" flags="0x0"/>
      <component glyphName="macron" x="292" y="145" flags="0x4"/>
    </TTGlyph>
    <TTGlyph name="Oslash" xMin="-1" yMin="-49" xMax="780" yMax="735">
      <contour>
        <pt x="102" y="67" on="1"/>
        <pt x="37" y="132" on="0"/>
        <pt x="37" y="251" on="1"/>
        <pt x="37" y="369" on="0"/>
        <pt x="116" y="558" on="0"/>
        <pt x="190" y="617" on="1"/>
        <pt x="293" y="698" on="0"/>
        <pt x="438" y="698" on="1"/>
        <pt x="551" y="698" on="0"/>
        <pt x="624" y="657" on="1"/>
        <pt x="693" y="735" on="1"/>
        <pt x="780" y="735" on="1"/>
        <pt x="677" y="619" on="1"/>
        <pt x="742" y="551" on="0"/>
        <pt x="742" y="434" on="1"/>
        <pt x="742" y="321" on="0"/>
        <pt x="669" y="140" on="0"/>
        <pt x="601" y="80" on="1"/>
        <pt x="550" y="35" on="0"/>
        <pt x="417" y="-12" on="0"/>
        <pt x="339" y="-12" on="1"/>
        <pt x="225" y="-12" on="0"/>
        <pt x="153" y="27" on="1"/>
        <pt x="86" y="-49" on="1"/>
        <pt x="-1" y="-49" on="1"/>
      </contour>
      <contour>
        <pt x="555" y="579" on="1"/>
        <pt x="512" y="604" on="0"/>
        <pt x="445" y="604" on="1"/>
        <pt x="336" y="604" on="0"/>
        <pt x="189" y="482" on="0"/>
        <pt x="164" y="372" on="1"/>
        <pt x="151" y="311" on="0"/>
        <pt x="151" y="261" on="1"/>
        <pt x="151" y="193" on="0"/>
        <pt x="177" y="152" on="1"/>
      </contour>
      <contour>
        <pt x="446" y="82" on="0"/>
        <pt x="597" y="213" on="0"/>
        <pt x="619" y="330" on="1"/>
        <pt x="628" y="378" on="0"/>
        <pt x="628" y="424" on="1"/>
        <pt x="628" y="492" on="0"/>
        <pt x="601" y="534" on="1"/>
        <pt x="224" y="106" on="1"/>
        <pt x="264" y="82" on="0"/>
        <pt x="333" y="82" on="1"/>
      </contour>
    </TTGlyph>
    <TTGlyph name="Oslashacute" xMin="-1" yMin="-49" xMax="780" yMax="868">
      <component glyphName=".ttfautohint" x="0" y="0" flags="0x0"/>
      <component glyphName="Oslash" x="0" y="0" flags="0x0"/>
      <component glyphName="acute" x="367" y="145" flags="0x4"/>
    </TTGlyph>
    <TTGlyph name="Otilde" xMin="36" yMin="-11" xMax="742" yMax="868">
      <component glyphName=".ttfautohint" x="36" y="0" flags="0x0"/>
      <component glyphName="O" x="0" y="0" flags="0x0"/>
      <component glyphName="tilde" x="289" y="145" flags="0x4"/>
    </TTGlyph>
    <TTGlyph name="P" xMin="15" yMin="0" xMax="653" yMax="686">
      <contour>
        <pt x="136" y="686" on="1"/>
        <pt x="443" y="686" on="1"/>
        <pt x="549" y="686" on="0"/>
        <pt x="653" y="589" on="0"/>
        <pt x="653" y="503" on="1"/>
        <pt x="653" y="429" on="0"/>
        <pt x="587" y="317" on="0"/>
        <pt x="471" y="255" on="0"/>
        <pt x="396" y="255" on="1"/>
        <pt x="170" y="255" on="1"/>
        <pt x="126" y="0" on="1"/>
        <pt x="15" y="0" on="1"/>
      </contour>
      <contour>
        <pt x="395" y="350" on="1"/>
        <pt x="458" y="350" on="0"/>
        <pt x="540" y="427" on="0"/>
        <pt x="540" y="492" on="1"/>
        <pt x="540" y="540" on="0"/>
        <pt x="489" y="591" on="0"/>
        <pt x="437" y="591" on="1"/>
        <pt x="229" y="591" on="1"/>
        <pt x="187" y="350" on="1"/>
      </contour>
    </TTGlyph>
    <TTGlyph name="Q" xMin="37" yMin="-130" xMax="742" yMax="698">
      <contour>
        <pt x="377" y="-10" on="1"/>
        <pt x="355" y="-12" on="0"/>
        <pt x="339" y="-12" on="1"/>
        <pt x="193" y="-12" on="0"/>
        <pt x="37" y="120" on="0"/>
        <pt x="37" y="251" on="1"/>
        <pt x="37" y="366" on="0"/>
        <pt x="113" y="552" on="0"/>
        <pt x="184" y="611" on="1"/>
        <pt x="287" y="698" on="0"/>
        <pt x="438" y="698" on="1"/>
        <pt x="585" y="698" on="0"/>
        <pt x="742" y="565" on="0"/>
        <pt x="742" y="434" on="1"/>
        <pt x="742" y="282" on="0"/>
        <pt x="608" y="59" on="0"/>
        <pt x="491" y="15" on="1"/>
        <pt x="616" y="-130" on="1"/>
        <pt x="478" y="-130" on="1"/>
      </contour>
      <contour>
        <pt x="439" y="82" on="0"/>
        <pt x="585" y="198" on="0"/>
        <pt x="612" y="302" on="1"/>
        <pt x="628" y="366" on="0"/>
        <pt x="628" y="424" on="1"/>
        <pt x="628" y="604" on="0"/>
        <pt x="445" y="604" on="1"/>
        <pt x="337" y="604" on="0"/>
        <pt x="191" y="484" on="0"/>
        <pt x="165" y="375" on="1"/>
        <pt x="151" y="315" on="0"/>
        <pt x="151" y="261" on="1"/>
        <pt x="151" y="82" on="0"/>
        <pt x="333" y="82" on="1"/>
      </contour>
    </TTGlyph>
    <TTGlyph name="R" xMin="15" yMin="0" xMax="683" yMax="686">
      <contour>
        <pt x="136" y="686" on="1"/>
        <pt x="473" y="686" on="1"/>
        <pt x="577" y="686" on="0"/>
        <pt x="683" y="591" on="0"/>
        <pt x="683" y="508" on="1"/>
        <pt x="683" y="428" on="0"/>
        <pt x="593" y="312" on="0"/>
        <pt x="521" y="289" on="1"/>
        <pt x="621" y="0" on="1"/>
        <pt x="504" y="0" on="1"/>
        <pt x="412" y="275" on="1"/>
        <pt x="174" y="275" on="1"/>
        <pt x="126" y="0" on="1"/>
        <pt x="15" y="0" on="1"/>
      </contour>
      <contour>
        <pt x="432" y="369" on="1"/>
        <pt x="492" y="369" on="0"/>
        <pt x="569" y="441" on="0"/>
        <pt x="569" y="501" on="1"/>
        <pt x="569" y="544" on="0"/>
        <pt x="518" y="591" on="0"/>
        <pt x="468" y="591" on="1"/>
        <pt x="229" y="591" on="1"/>
        <pt x="191" y="369" on="1"/>
      </contour>
    </TTGlyph>
    <TTGlyph name="Racute" xMin="15" yMin="0" xMax="683" yMax="868">
      <component glyphName=".ttfautohint" x="15" y="0" flags="0x0"/>
      <component glyphName="R" x="0" y="0" flags="0x0"/>
      <component glyphName="acute" x="293" y="145" flags="0x4"/>
    </TTGlyph>
    <TTGlyph name="Rcaron" xMin="15" yMin="0" xMax="683" yMax="868">
      <component glyphName=".ttfautohint" x="15" y="0" flags="0x0"/>
      <component glyphName="R" x="0" y="0" flags="0x0"/>
      <component glyphName="caron" x="247" y="145" flags="0x4"/>
    </TTGlyph>
    <TTGlyph name="Rcommaaccent" xMin="15" yMin="-230" xMax="683" yMax="686">
      <component glyphName=".ttfautohint" x="15" y="0" flags="0x0"/>
      <component glyphName="R" x="0" y="0" flags="0x0"/>
      <component glyphName="uni0326" x="419" y="0" flags="0x0"/>
    </TTGlyph>
    <TTGlyph name="S" xMin="18" yMin="-12" xMax="631" yMax="698">
      <contour>
        <pt x="171" y="-12" on="0"/>
        <pt x="18" y="73" on="0"/>
        <pt x="18" y="159" on="1"/>
        <pt x="18" y="193" on="0"/>
        <pt x="26" y="217" on="1"/>
        <pt x="136" y="217" on="1"/>
        <pt x="135" y="214" on="0"/>
        <pt x="129" y="188" on="0"/>
        <pt x="129" y="177" on="1"/>
        <pt x="129" y="131" on="0"/>
        <pt x="212" y="82" on="0"/>
        <pt x="284" y="82" on="1"/>
        <pt x="377" y="82" on="0"/>
        <pt x="480" y="142" on="0"/>
        <pt x="480" y="195" on="1"/>
        <pt x="480" y="226" on="0"/>
        <pt x="436" y="267" on="0"/>
        <pt x="371" y="293" on="0"/>
        <pt x="314" y="309" on="1"/>
        <pt x="242" y="330" on="0"/>
        <pt x="154" y="368" on="0"/>
        <pt x="91" y="438" on="0"/>
        <pt x="91" y="494" on="1"/>
        <pt x="91" y="561" on="0"/>
        <pt x="169" y="653" on="0"/>
        <pt x="298" y="698" on="0"/>
        <pt x="374" y="698" on="1"/>
        <pt x="491" y="698" on="0"/>
        <pt x="631" y="620" on="0"/>
        <pt x="631" y="540" on="1"/>
        <pt x="631" y="518" on="0"/>
        <pt x="626" y="490" on="1"/>
        <pt x="517" y="490" on="1"/>
        <pt x="521" y="505" on="0"/>
        <pt x="521" y="518" on="1"/>
        <pt x="521" y="559" on="0"/>
        <pt x="445" y="604" on="0"/>
        <pt x="382" y="604" on="1"/>
        <pt x="303" y="604" on="0"/>
        <pt x="205" y="555" on="0"/>
        <pt x="205" y="508" on="1"/>
        <pt x="205" y="480" on="0"/>
        <pt x="247" y="442" on="0"/>
        <pt x="311" y="418" on="0"/>
        <pt x="366" y="402" on="1"/>
        <pt x="440" y="381" on="0"/>
        <pt x="531" y="343" on="0"/>
        <pt x="596" y="271" on="0"/>
        <pt x="596" y="214" on="1"/>
        <pt x="596" y="136" on="0"/>
        <pt x="512" y="35" on="0"/>
        <pt x="375" y="-12" on="0"/>
        <pt x="295" y="-12" on="1"/>
      </contour>
    </TTGlyph>
    <TTGlyph name="Sacute" xMin="18" yMin="-12" xMax="631" yMax="868">
      <component glyphName=".ttfautohint" x="18" y="0" flags="0x0"/>
      <component glyphName="S" x="0" y="0" flags="0x0"/>
      <component glyphName="acute" x="291" y="145" flags="0x4"/>
    </TTGlyph>
    <TTGlyph name="Sacute.loclPLK" xMin="18" yMin="-12" xMax="631" yMax="868">
      <component glyphName=".ttfautohint" x="18" y="0" flags="0x0"/>
      <component glyphName="S" x="0" y="0" flags="0x0"/>
      <component glyphName="acute.loclPLK" x="186" y="145" flags="0x4"/>
    </TTGlyph>
    <TTGlyph name="Scaron" xMin="18" yMin="-12" xMax="631" yMax="868">
      <component glyphName=".ttfautohint" x="18" y="0" flags="0x0"/>
      <component glyphName="S" x="0" y="0" flags="0x0"/>
      <component glyphName="caron" x="245" y="145" flags="0x4"/>
    </TTGlyph>
    <TTGlyph name="Scedilla" xMin="18" yMin="-182" xMax="631" yMax="698">
      <contour>
        <pt x="209" y="-182" on="0"/>
        <pt x="164" y="-174" on="1"/>
        <pt x="173" y="-125" on="1"/>
        <pt x="269" y="-125" on="1"/>
        <pt x="291" y="-125" on="0"/>
        <pt x="316" y="-112" on="0"/>
        <pt x="316" y="-95" on="1"/>
        <pt x="316" y="-77" on="0"/>
        <pt x="280" y="-77" on="1"/>
        <pt x="232" y="-77" on="1"/>
        <pt x="255" y="-11" on="1"/>
        <pt x="147" y="-5" on="0"/>
        <pt x="18" y="80" on="0"/>
        <pt x="18" y="159" on="1"/>
        <pt x="18" y="193" on="0"/>
        <pt x="26" y="217" on="1"/>
        <pt x="136" y="217" on="1"/>
        <pt x="135" y="214" on="0"/>
        <pt x="129" y="188" on="0"/>
        <pt x="129" y="177" on="1"/>
        <pt x="129" y="131" on="0"/>
        <pt x="212" y="82" on="0"/>
        <pt x="284" y="82" on="1"/>
        <pt x="377" y="82" on="0"/>
        <pt x="480" y="142" on="0"/>
        <pt x="480" y="195" on="1"/>
        <pt x="480" y="226" on="0"/>
        <pt x="436" y="267" on="0"/>
        <pt x="371" y="293" on="0"/>
        <pt x="314" y="309" on="1"/>
        <pt x="242" y="330" on="0"/>
        <pt x="154" y="368" on="0"/>
        <pt x="91" y="438" on="0"/>
        <pt x="91" y="494" on="1"/>
        <pt x="91" y="561" on="0"/>
        <pt x="169" y="653" on="0"/>
        <pt x="298" y="698" on="0"/>
        <pt x="374" y="698" on="1"/>
        <pt x="491" y="698" on="0"/>
        <pt x="631" y="620" on="0"/>
        <pt x="631" y="540" on="1"/>
        <pt x="631" y="518" on="0"/>
        <pt x="626" y="490" on="1"/>
        <pt x="517" y="490" on="1"/>
        <pt x="521" y="505" on="0"/>
        <pt x="521" y="518" on="1"/>
        <pt x="521" y="559" on="0"/>
        <pt x="445" y="604" on="0"/>
        <pt x="382" y="604" on="1"/>
        <pt x="303" y="604" on="0"/>
        <pt x="205" y="555" on="0"/>
        <pt x="205" y="508" on="1"/>
        <pt x="205" y="480" on="0"/>
        <pt x="247" y="442" on="0"/>
        <pt x="311" y="418" on="0"/>
        <pt x="366" y="402" on="1"/>
        <pt x="440" y="381" on="0"/>
        <pt x="531" y="343" on="0"/>
        <pt x="596" y="271" on="0"/>
        <pt x="596" y="214" on="1"/>
        <pt x="596" y="106" on="0"/>
        <pt x="441" y="-4" on="0"/>
        <pt x="324" y="-11" on="1"/>
        <pt x="316" y="-35" on="1"/>
        <pt x="353" y="-36" on="0"/>
        <pt x="399" y="-66" on="0"/>
        <pt x="399" y="-95" on="1"/>
        <pt x="399" y="-144" on="0"/>
        <pt x="321" y="-182" on="0"/>
        <pt x="267" y="-182" on="1"/>
      </contour>
    </TTGlyph>
    <TTGlyph name="Scircumflex" xMin="18" yMin="-12" xMax="631" yMax="868">
      <component glyphName=".ttfautohint" x="18" y="0" flags="0x0"/>
      <component glyphName="S" x="0" y="0" flags="0x0"/>
      <component glyphName="circumflex" x="239" y="145" flags="0x4"/>
    </TTGlyph>
    <TTGlyph name="Scommaaccent" xMin="18" yMin="-230" xMax="631" yMax="698">
      <component glyphName=".ttfautohint" x="18" y="0" flags="0x0"/>
      <component glyphName="S" x="0" y="0" flags="0x0"/>
      <component glyphName="uni0326" x="392" y="0" flags="0x0"/>
    </TTGlyph>
    <TTGlyph name="T" xMin="66" yMin="0" xMax="651" yMax="686">
      <contour>
        <pt x="294" y="590" on="1"/>
        <pt x="66" y="590" on="1"/>
        <pt x="83" y="686" on="1"/>
        <pt x="651" y="686" on="1"/>
        <pt x="633" y="590" on="1"/>
        <pt x="405" y="590" on="1"/>
        <pt x="301" y="0" on="1"/>
        <pt x="191" y="0" on="1"/>
      </contour>
    </TTGlyph>
    <TTGlyph name="Tbar" xMin="66" yMin="0" xMax="651" yMax="686">
      <contour>
        <pt x="256" y="372" on="1"/>
        <pt x="156" y="372" on="1"/>
        <pt x="170" y="450" on="1"/>
        <pt x="270" y="450" on="1"/>
        <pt x="294" y="590" on="1"/>
        <pt x="66" y="590" on="1"/>
        <pt x="83" y="686" on="1"/>
        <pt x="651" y="686" on="1"/>
        <pt x="633" y="590" on="1"/>
        <pt x="405" y="590" on="1"/>
        <pt x="380" y="450" on="1"/>
        <pt x="480" y="450" on="1"/>
        <pt x="466" y="372" on="1"/>
        <pt x="366" y="372" on="1"/>
        <pt x="301" y="0" on="1"/>
        <pt x="191" y="0" on="1"/>
      </contour>
    </TTGlyph>
    <TTGlyph name="Tcaron" xMin="66" yMin="0" xMax="651" yMax="868">
      <component glyphName=".ttfautohint" x="66" y="0" flags="0x0"/>
      <component glyphName="T" x="0" y="0" flags="0x0"/>
      <component glyphName="caron" x="218" y="145" flags="0x4"/>
    </TTGlyph>
    <TTGlyph name="Thorn" xMin="15" yMin="0" xMax="633" yMax="686">
      <contour>
        <pt x="136" y="686" on="1"/>
        <pt x="247" y="686" on="1"/>
        <pt x="226" y="571" on="1"/>
        <pt x="422" y="571" on="1"/>
        <pt x="528" y="571" on="0"/>
        <pt x="633" y="474" on="0"/>
        <pt x="633" y="387" on="1"/>
        <pt x="633" y="314" on="0"/>
        <pt x="567" y="201" on="0"/>
        <pt x="450" y="139" on="0"/>
        <pt x="375" y="139" on="1"/>
        <pt x="150" y="139" on="1"/>
        <pt x="126" y="0" on="1"/>
        <pt x="15" y="0" on="1"/>
      </contour>
      <contour>
        <pt x="375" y="235" on="1"/>
        <pt x="438" y="235" on="0"/>
        <pt x="520" y="312" on="0"/>
        <pt x="520" y="377" on="1"/>
        <pt x="520" y="475" on="0"/>
        <pt x="417" y="475" on="1"/>
        <pt x="209" y="475" on="1"/>
        <pt x="167" y="235" on="1"/>
      </contour>
    </TTGlyph>
    <TTGlyph name="U" xMin="58" yMin="-12" xMax="710" yMax="686">
      <contour>
        <pt x="194" y="-12" on="0"/>
        <pt x="58" y="96" on="0"/>
        <pt x="58" y="199" on="1"/>
        <pt x="58" y="229" on="0"/>
        <pt x="64" y="262" on="1"/>
        <pt x="138" y="686" on="1"/>
        <pt x="248" y="686" on="1"/>
        <pt x="173" y="258" on="1"/>
        <pt x="169" y="230" on="0"/>
        <pt x="169" y="212" on="1"/>
        <pt x="169" y="148" on="0"/>
        <pt x="245" y="82" on="0"/>
        <pt x="318" y="82" on="1"/>
        <pt x="401" y="82" on="0"/>
        <pt x="508" y="169" on="0"/>
        <pt x="523" y="252" on="1"/>
        <pt x="599" y="686" on="1"/>
        <pt x="710" y="686" on="1"/>
        <pt x="634" y="254" on="1"/>
        <pt x="586" y="-12" on="0"/>
        <pt x="320" y="-12" on="1"/>
      </contour>
    </TTGlyph>
    <TTGlyph name="Uacute" xMin="58" yMin="-12" xMax="710" yMax="868">
      <component glyphName=".ttfautohint" x="58" y="0" flags="0x0"/>
      <component glyphName="U" x="0" y="0" flags="0x0"/>
      <component glyphName="acute" x="327" y="145" flags="0x4"/>
    </TTGlyph>
    <TTGlyph name="Ubreve" xMin="58" yMin="-12" xMax="710" yMax="868">
      <component glyphName=".ttfautohint" x="58" y="0" flags="0x0"/>
      <component glyphName="U" x="0" y="0" flags="0x0"/>
      <component glyphName="breve" x="272" y="145" flags="0x4"/>
    </TTGlyph>
    <TTGlyph name="Ucircumflex" xMin="58" yMin="-12" xMax="710" yMax="868">
      <component glyphName=".ttfautohint" x="58" y="0" flags="0x0"/>
      <component glyphName="U" x="0" y="0" flags="0x0"/>
      <component glyphName="circumflex" x="275" y="145" flags="0x4"/>
    </TTGlyph>
    <TTGlyph name="Udieresis" xMin="58" yMin="-12" xMax="710" yMax="868">
      <component glyphName=".ttfautohint" x="58" y="0" flags="0x0"/>
      <component glyphName="U" x="0" y="0" flags="0x0"/>
      <component glyphName="dieresis" x="284" y="145" flags="0x4"/>
    </TTGlyph>
    <TTGlyph name="Ugrave" xMin="58" yMin="-12" xMax="710" yMax="868">
      <component glyphName=".ttfautohint" x="58" y="0" flags="0x0"/>
      <component glyphName="U" x="0" y="0" flags="0x0"/>
      <component glyphName="grave" x="223" y="145" flags="0x4"/>
    </TTGlyph>
    <TTGlyph name="Uhorn" xMin="58" yMin="-12" xMax="848" yMax="868">
      <contour>
        <pt x="848" y="868" on="1"/>
        <pt x="839" y="814" on="1"/>
        <pt x="817" y="673" on="0"/>
        <pt x="700" y="627" on="1"/>
        <pt x="634" y="254" on="1"/>
        <pt x="586" y="-12" on="0"/>
        <pt x="320" y="-12" on="1"/>
        <pt x="194" y="-12" on="0"/>
        <pt x="58" y="96" on="0"/>
        <pt x="58" y="199" on="1"/>
        <pt x="58" y="229" on="0"/>
        <pt x="64" y="262" on="1"/>
        <pt x="138" y="686" on="1"/>
        <pt x="248" y="686" on="1"/>
        <pt x="173" y="258" on="1"/>
        <pt x="169" y="230" on="0"/>
        <pt x="169" y="212" on="1"/>
        <pt x="169" y="148" on="0"/>
        <pt x="245" y="82" on="0"/>
        <pt x="318" y="82" on="1"/>
        <pt x="401" y="82" on="0"/>
        <pt x="508" y="169" on="0"/>
        <pt x="523" y="252" on="1"/>
        <pt x="599" y="686" on="1"/>
        <pt x="689" y="686" on="1"/>
        <pt x="735" y="707" on="0"/>
        <pt x="755" y="751" on="1"/>
        <pt x="705" y="751" on="1"/>
        <pt x="726" y="868" on="1"/>
      </contour>
    </TTGlyph>
    <TTGlyph name="Uhungarumlaut" xMin="58" yMin="-12" xMax="710" yMax="868">
      <component glyphName=".ttfautohint" x="58" y="0" flags="0x0"/>
      <component glyphName="U" x="0" y="0" flags="0x0"/>
      <component glyphName="hungarumlaut" x="306" y="145" flags="0x4"/>
    </TTGlyph>
    <TTGlyph name="Umacron" xMin="58" yMin="-12" xMax="710" yMax="844">
      <component glyphName=".ttfautohint" x="58" y="0" flags="0x0"/>
      <component glyphName="U" x="0" y="0" flags="0x0"/>
      <component glyphName="macron" x="285" y="145" flags="0x4"/>
    </TTGlyph>
    <TTGlyph name="Uogonek" xMin="58" yMin="-182" xMax="710" yMax="686">
      <contour>
        <pt x="305" y="-182" on="0"/>
        <pt x="253" y="-146" on="0"/>
        <pt x="253" y="-107" on="1"/>
        <pt x="253" y="-55" on="0"/>
        <pt x="299" y="-11" on="1"/>
        <pt x="182" y="-6" on="0"/>
        <pt x="58" y="100" on="0"/>
        <pt x="58" y="199" on="1"/>
        <pt x="58" y="229" on="0"/>
        <pt x="64" y="262" on="1"/>
        <pt x="138" y="686" on="1"/>
        <pt x="248" y="686" on="1"/>
        <pt x="173" y="258" on="1"/>
        <pt x="169" y="230" on="0"/>
        <pt x="169" y="212" on="1"/>
        <pt x="169" y="148" on="0"/>
        <pt x="245" y="82" on="0"/>
        <pt x="318" y="82" on="1"/>
        <pt x="401" y="82" on="0"/>
        <pt x="508" y="169" on="0"/>
        <pt x="523" y="252" on="1"/>
        <pt x="599" y="686" on="1"/>
        <pt x="710" y="686" on="1"/>
        <pt x="634" y="254" on="1"/>
        <pt x="592" y="19" on="0"/>
        <pt x="378" y="-7" on="1"/>
        <pt x="346" y="-41" on="0"/>
        <pt x="346" y="-76" on="1"/>
        <pt x="346" y="-93" on="0"/>
        <pt x="367" y="-116" on="0"/>
        <pt x="389" y="-116" on="1"/>
        <pt x="418" y="-116" on="1"/>
        <pt x="409" y="-168" on="1"/>
        <pt x="372" y="-182" on="0"/>
        <pt x="342" y="-182" on="1"/>
      </contour>
    </TTGlyph>
    <TTGlyph name="Uring" xMin="58" yMin="-12" xMax="710" yMax="903">
      <component glyphName=".ttfautohint" x="58" y="0" flags="0x0"/>
      <component glyphName="U" x="0" y="0" flags="0x0"/>
      <component glyphName="ring" x="277" y="145" flags="0x4"/>
    </TTGlyph>
    <TTGlyph name="Utilde" xMin="58" yMin="-12" xMax="710" yMax="868">
      <component glyphName=".ttfautohint" x="58" y="0" flags="0x0"/>
      <component glyphName="U" x="0" y="0" flags="0x0"/>
      <component glyphName="tilde" x="282" y="145" flags="0x4"/>
    </TTGlyph>
    <TTGlyph name="V" xMin="74" yMin="0" xMax="717" yMax="686">
      <contour>
        <pt x="74" y="686" on="1"/>
        <pt x="189" y="686" on="1"/>
        <pt x="274" y="220" on="1"/>
        <pt x="284" y="169" on="0"/>
        <pt x="292" y="117" on="1"/>
        <pt x="297" y="117" on="1"/>
        <pt x="348" y="216" on="1"/>
        <pt x="599" y="686" on="1"/>
        <pt x="717" y="686" on="1"/>
        <pt x="343" y="0" on="1"/>
        <pt x="206" y="0" on="1"/>
      </contour>
    </TTGlyph>
    <TTGlyph name="W" xMin="69" yMin="0" xMax="996" yMax="686">
      <contour>
        <pt x="69" y="686" on="1"/>
        <pt x="178" y="686" on="1"/>
        <pt x="223" y="221" on="1"/>
        <pt x="225" y="205" on="0"/>
        <pt x="229" y="131" on="0"/>
        <pt x="229" y="119" on="1"/>
        <pt x="234" y="119" on="1"/>
        <pt x="238" y="132" on="0"/>
        <pt x="261" y="197" on="0"/>
        <pt x="270" y="221" on="1"/>
        <pt x="456" y="686" on="1"/>
        <pt x="607" y="686" on="1"/>
        <pt x="632" y="221" on="1"/>
        <pt x="634" y="192" on="0"/>
        <pt x="634" y="131" on="0"/>
        <pt x="634" y="119" on="1"/>
        <pt x="639" y="119" on="1"/>
        <pt x="644" y="131" on="0"/>
        <pt x="668" y="194" on="0"/>
        <pt x="680" y="221" on="1"/>
        <pt x="885" y="686" on="1"/>
        <pt x="996" y="686" on="1"/>
        <pt x="682" y="0" on="1"/>
        <pt x="541" y="0" on="1"/>
        <pt x="516" y="468" on="1"/>
        <pt x="514" y="502" on="0"/>
        <pt x="513" y="564" on="0"/>
        <pt x="513" y="575" on="1"/>
        <pt x="509" y="575" on="1"/>
        <pt x="505" y="563" on="0"/>
        <pt x="483" y="499" on="0"/>
        <pt x="471" y="468" on="1"/>
        <pt x="280" y="0" on="1"/>
        <pt x="139" y="0" on="1"/>
      </contour>
    </TTGlyph>
    <TTGlyph name="Wacute" xMin="69" yMin="0" xMax="996" yMax="868">
      <component glyphName=".ttfautohint" x="69" y="0" flags="0x0"/>
      <component glyphName="W" x="0" y="0" flags="0x0"/>
      <component glyphName="acute" x="438" y="145" flags="0x4"/>
    </TTGlyph>
    <TTGlyph name="Wcircumflex" xMin="69" yMin="0" xMax="996" yMax="868">
      <component glyphName=".ttfautohint" x="69" y="0" flags="0x0"/>
      <component glyphName="W" x="0" y="0" flags="0x0"/>
      <component glyphName="circumflex" x="386" y="145" flags="0x4"/>
    </TTGlyph>
    <TTGlyph name="Wdieresis" xMin="69" yMin="0" xMax="996" yMax="868">
      <component glyphName=".ttfautohint" x="69" y="0" flags="0x0"/>
      <component glyphName="W" x="0" y="0" flags="0x0"/>
      <component glyphName="dieresis" x="395" y="145" flags="0x4"/>
    </TTGlyph>
    <TTGlyph name="Wgrave" xMin="69" yMin="0" xMax="996" yMax="868">
      <component glyphName=".ttfautohint" x="69" y="0" flags="0x0"/>
      <component glyphName="W" x="0" y="0" flags="0x0"/>
      <component glyphName="grave" x="334" y="145" flags="0x4"/>
    </TTGlyph>
    <TTGlyph name="X" xMin="-57" yMin="0" xMax="698" yMax="686">
      <contour>
        <pt x="270" y="363" on="1"/>
        <pt x="87" y="686" on="1"/>
        <pt x="214" y="686" on="1"/>
        <pt x="347" y="447" on="1"/>
        <pt x="352" y="447" on="1"/>
        <pt x="562" y="686" on="1"/>
        <pt x="698" y="686" on="1"/>
        <pt x="400" y="356" on="1"/>
        <pt x="602" y="0" on="1"/>
        <pt x="476" y="0" on="1"/>
        <pt x="326" y="271" on="1"/>
        <pt x="321" y="271" on="1"/>
        <pt x="78" y="0" on="1"/>
        <pt x="-57" y="0" on="1"/>
      </contour>
    </TTGlyph>
    <TTGlyph name="Y" xMin="72" yMin="0" xMax="717" yMax="686">
      <contour>
        <pt x="269" y="282" on="1"/>
        <pt x="72" y="686" on="1"/>
        <pt x="189" y="686" on="1"/>
        <pt x="337" y="380" on="1"/>
        <pt x="342" y="380" on="1"/>
        <pt x="593" y="686" on="1"/>
        <pt x="717" y="686" on="1"/>
        <pt x="379" y="282" on="1"/>
        <pt x="329" y="0" on="1"/>
        <pt x="219" y="0" on="1"/>
      </contour>
    </TTGlyph>
    <TTGlyph name="Y.loclGUA" xMin="41" yMin="-12" xMax="654" yMax="686">
      <contour>
        <pt x="165" y="-12" on="0"/>
        <pt x="41" y="73" on="0"/>
        <pt x="41" y="158" on="1"/>
        <pt x="41" y="168" on="1"/>
        <pt x="155" y="168" on="1"/>
        <pt x="155" y="124" on="0"/>
        <pt x="216" y="82" on="0"/>
        <pt x="282" y="82" on="1"/>
        <pt x="437" y="82" on="0"/>
        <pt x="464" y="236" on="1"/>
        <pt x="472" y="284" on="1"/>
        <pt x="466" y="284" on="1"/>
        <pt x="399" y="194" on="0"/>
        <pt x="268" y="194" on="1"/>
        <pt x="178" y="194" on="0"/>
        <pt x="84" y="277" on="0"/>
        <pt x="84" y="360" on="1"/>
        <pt x="84" y="389" on="0"/>
        <pt x="90" y="423" on="1"/>
        <pt x="137" y="686" on="1"/>
        <pt x="248" y="686" on="1"/>
        <pt x="200" y="418" on="1"/>
        <pt x="197" y="400" on="0"/>
        <pt x="197" y="383" on="1"/>
        <pt x="197" y="336" on="0"/>
        <pt x="253" y="288" on="0"/>
        <pt x="307" y="288" on="1"/>
        <pt x="385" y="288" on="0"/>
        <pt x="490" y="387" on="0"/>
        <pt x="507" y="481" on="1"/>
        <pt x="543" y="686" on="1"/>
        <pt x="654" y="686" on="1"/>
        <pt x="613" y="456" on="1"/>
        <pt x="575" y="246" on="1"/>
        <pt x="553" y="114" on="0"/>
        <pt x="401" y="-12" on="0"/>
        <pt x="274" y="-12" on="1"/>
      </contour>
    </TTGlyph>
    <TTGlyph name="Yacute" xMin="72" yMin="0" xMax="717" yMax="868">
      <component glyphName=".ttfautohint" x="72" y="0" flags="0x0"/>
      <component glyphName="Y" x="0" y="0" flags="0x0"/>
      <component glyphName="acute" x="298" y="145" flags="0x4"/>
    </TTGlyph>
    <TTGlyph name="Yacute.loclGUA" xMin="41" yMin="-12" xMax="654" yMax="868">
      <component glyphName=".ttfautohint" x="41" y="0" flags="0x0"/>
      <component glyphName="Y.loclGUA" x="0" y="0" flags="0x0"/>
      <component glyphName="acute" x="312" y="145" flags="0x4"/>
    </TTGlyph>
    <TTGlyph name="Ycircumflex" xMin="72" yMin="0" xMax="717" yMax="868">
      <component glyphName=".ttfautohint" x="72" y="0" flags="0x0"/>
      <component glyphName="Y" x="0" y="0" flags="0x0"/>
      <component glyphName="circumflex" x="246" y="145" flags="0x4"/>
    </TTGlyph>
    <TTGlyph name="Ycircumflex.loclGUA" xMin="41" yMin="-12" xMax="654" yMax="868">
      <component glyphName=".ttfautohint" x="41" y="0" flags="0x0"/>
      <component glyphName="Y.loclGUA" x="0" y="0" flags="0x0"/>
      <component glyphName="circumflex" x="260" y="145" flags="0x4"/>
    </TTGlyph>
    <TTGlyph name="Ydieresis" xMin="72" yMin="0" xMax="717" yMax="868">
      <component glyphName=".ttfautohint" x="72" y="0" flags="0x0"/>
      <component glyphName="Y" x="0" y="0" flags="0x0"/>
      <component glyphName="dieresis" x="255" y="145" flags="0x4"/>
    </TTGlyph>
    <TTGlyph name="Ydieresis.loclGUA" xMin="41" yMin="-12" xMax="654" yMax="868">
      <component glyphName=".ttfautohint" x="41" y="0" flags="0x0"/>
      <component glyphName="Y.loclGUA" x="0" y="0" flags="0x0"/>
      <component glyphName="dieresis" x="269" y="145" flags="0x4"/>
    </TTGlyph>
    <TTGlyph name="Ygrave" xMin="72" yMin="0" xMax="717" yMax="868">
      <component glyphName=".ttfautohint" x="72" y="0" flags="0x0"/>
      <component glyphName="Y" x="0" y="0" flags="0x0"/>
      <component glyphName="grave" x="194" y="145" flags="0x4"/>
    </TTGlyph>
    <TTGlyph name="Ygrave.loclGUA" xMin="41" yMin="-12" xMax="654" yMax="868">
      <component glyphName=".ttfautohint" x="41" y="0" flags="0x0"/>
      <component glyphName="Y.loclGUA" x="0" y="0" flags="0x0"/>
      <component glyphName="grave" x="208" y="145" flags="0x4"/>
    </TTGlyph>
    <TTGlyph name="Z" xMin="-37" yMin="0" xMax="641" yMax="686">
      <contour>
        <pt x="-27" y="55" on="1"/>
        <pt x="451" y="591" on="1"/>
        <pt x="92" y="591" on="1"/>
        <pt x="109" y="686" on="1"/>
        <pt x="641" y="686" on="1"/>
        <pt x="631" y="631" on="1"/>
        <pt x="151" y="95" on="1"/>
        <pt x="546" y="95" on="1"/>
        <pt x="529" y="0" on="1"/>
        <pt x="-37" y="0" on="1"/>
      </contour>
    </TTGlyph>
    <TTGlyph name="Zacute" xMin="-37" yMin="0" xMax="641" yMax="868">
      <component glyphName=".ttfautohint" x="0" y="0" flags="0x0"/>
      <component glyphName="Z" x="0" y="0" flags="0x0"/>
      <component glyphName="acute" x="275" y="145" flags="0x4"/>
    </TTGlyph>
    <TTGlyph name="Zacute.loclPLK" xMin="-37" yMin="0" xMax="641" yMax="868">
      <component glyphName=".ttfautohint" x="0" y="0" flags="0x0"/>
      <component glyphName="Z" x="0" y="0" flags="0x0"/>
      <component glyphName="acute.loclPLK" x="170" y="145" flags="0x4"/>
    </TTGlyph>
    <TTGlyph name="Zcaron" xMin="-37" yMin="0" xMax="641" yMax="868">
      <component glyphName=".ttfautohint" x="0" y="0" flags="0x0"/>
      <component glyphName="Z" x="0" y="0" flags="0x0"/>
      <component glyphName="caron" x="229" y="145" flags="0x4"/>
    </TTGlyph>
    <TTGlyph name="Zdotaccent" xMin="-37" yMin="0" xMax="641" yMax="868">
      <component glyphName=".ttfautohint" x="0" y="0" flags="0x0"/>
      <component glyphName="Z" x="0" y="0" flags="0x0"/>
      <component glyphName="dotaccent" x="231" y="145" flags="0x4"/>
    </TTGlyph>
    <TTGlyph name="a" xMin="20" yMin="-12" xMax="530" yMax="538">
      <contour>
        <pt x="453" y="73" on="0"/>
        <pt x="483" y="73" on="1"/>
        <pt x="520" y="73" on="1"/>
        <pt x="508" y="4" on="1"/>
        <pt x="478" y="-12" on="0"/>
        <pt x="437" y="-12" on="1"/>
        <pt x="401" y="-12" on="0"/>
        <pt x="358" y="28" on="0"/>
        <pt x="358" y="66" on="1"/>
        <pt x="358" y="79" on="1"/>
        <pt x="353" y="79" on="1"/>
        <pt x="326" y="35" on="0"/>
        <pt x="237" y="-12" on="0"/>
        <pt x="187" y="-12" on="1"/>
        <pt x="109" y="-12" on="0"/>
        <pt x="20" y="88" on="0"/>
        <pt x="20" y="184" on="1"/>
        <pt x="20" y="282" on="0"/>
        <pt x="81" y="444" on="0"/>
        <pt x="193" y="538" on="0"/>
        <pt x="267" y="538" on="1"/>
        <pt x="321" y="538" on="0"/>
        <pt x="391" y="503" on="0"/>
        <pt x="411" y="466" on="1"/>
        <pt x="417" y="466" on="1"/>
        <pt x="448" y="526" on="1"/>
        <pt x="530" y="526" on="1"/>
        <pt x="504" y="383" on="1"/>
        <pt x="453" y="111" on="0"/>
        <pt x="453" y="100" on="1"/>
      </contour>
      <contour>
        <pt x="276" y="75" on="0"/>
        <pt x="353" y="159" on="0"/>
        <pt x="387" y="280" on="0"/>
        <pt x="387" y="335" on="1"/>
        <pt x="387" y="393" on="0"/>
        <pt x="339" y="452" on="0"/>
        <pt x="287" y="452" on="1"/>
        <pt x="233" y="452" on="0"/>
        <pt x="161" y="377" on="0"/>
        <pt x="127" y="257" on="0"/>
        <pt x="127" y="190" on="1"/>
        <pt x="127" y="75" on="0"/>
        <pt x="218" y="75" on="1"/>
      </contour>
    </TTGlyph>
    <TTGlyph name="aacute" xMin="20" yMin="-12" xMax="530" yMax="723">
      <component glyphName=".ttfautohint" x="20" y="0" flags="0x0"/>
      <component glyphName="a" x="0" y="0" flags="0x0"/>
      <component glyphName="acute" x="202" y="0" flags="0x0"/>
    </TTGlyph>
    <TTGlyph name="abreve" xMin="20" yMin="-12" xMax="530" yMax="723">
      <component glyphName=".ttfautohint" x="20" y="0" flags="0x0"/>
      <component glyphName="a" x="0" y="0" flags="0x0"/>
      <component glyphName="breve" x="147" y="0" flags="0x0"/>
    </TTGlyph>
    <TTGlyph name="acircumflex" xMin="20" yMin="-12" xMax="530" yMax="723">
      <component glyphName=".ttfautohint" x="20" y="0" flags="0x0"/>
      <component glyphName="a" x="0" y="0" flags="0x0"/>
      <component glyphName="circumflex" x="150" y="0" flags="0x0"/>
    </TTGlyph>
    <TTGlyph name="acute" xMin="61" yMin="591" xMax="281" yMax="723">
      <contour>
        <pt x="168" y="723" on="1"/>
        <pt x="280" y="723" on="1"/>
        <pt x="281" y="720" on="1"/>
        <pt x="155" y="591" on="1"/>
        <pt x="61" y="591" on="1"/>
      </contour>
    </TTGlyph>
    <TTGlyph name="acute.loclPLK" xMin="159" yMin="591" xMax="312" yMax="723">
      <contour>
        <pt x="206" y="723" on="1"/>
        <pt x="311" y="723" on="1"/>
        <pt x="312" y="720" on="1"/>
        <pt x="244" y="591" on="1"/>
        <pt x="159" y="591" on="1"/>
      </contour>
    </TTGlyph>
    <TTGlyph name="adieresis" xMin="20" yMin="-12" xMax="530" yMax="723">
      <component glyphName=".ttfautohint" x="20" y="0" flags="0x0"/>
      <component glyphName="a" x="0" y="0" flags="0x0"/>
      <component glyphName="dieresis" x="159" y="0" flags="0x0"/>
    </TTGlyph>
    <TTGlyph name="ae" xMin="-5" yMin="-12" xMax="849" yMax="538">
      <contour>
        <pt x="101" y="-12" on="0"/>
        <pt x="-5" y="43" on="0"/>
        <pt x="-5" y="117" on="1"/>
        <pt x="-5" y="229" on="0"/>
        <pt x="199" y="315" on="0"/>
        <pt x="378" y="315" on="1"/>
        <pt x="387" y="367" on="1"/>
        <pt x="389" y="383" on="0"/>
        <pt x="389" y="390" on="1"/>
        <pt x="389" y="421" on="0"/>
        <pt x="344" y="455" on="0"/>
        <pt x="291" y="455" on="1"/>
        <pt x="231" y="455" on="0"/>
        <pt x="172" y="413" on="0"/>
        <pt x="166" y="383" on="1"/>
        <pt x="164" y="370" on="1"/>
        <pt x="65" y="370" on="1"/>
        <pt x="65" y="422" on="0"/>
        <pt x="127" y="498" on="0"/>
        <pt x="233" y="538" on="0"/>
        <pt x="297" y="538" on="1"/>
        <pt x="421" y="538" on="0"/>
        <pt x="468" y="477" on="1"/>
        <pt x="535" y="538" on="0"/>
        <pt x="642" y="538" on="1"/>
        <pt x="744" y="538" on="0"/>
        <pt x="849" y="444" on="0"/>
        <pt x="849" y="352" on="1"/>
        <pt x="849" y="320" on="0"/>
        <pt x="841" y="277" on="1"/>
        <pt x="833" y="237" on="1"/>
        <pt x="470" y="237" on="1"/>
        <pt x="466" y="217" on="0"/>
        <pt x="466" y="196" on="1"/>
        <pt x="466" y="133" on="0"/>
        <pt x="526" y="71" on="0"/>
        <pt x="589" y="71" on="1"/>
        <pt x="642" y="71" on="0"/>
        <pt x="714" y="125" on="0"/>
        <pt x="723" y="181" on="1"/>
        <pt x="824" y="181" on="1"/>
        <pt x="809" y="86" on="0"/>
        <pt x="682" y="-12" on="0"/>
        <pt x="592" y="-12" on="1"/>
        <pt x="439" y="-12" on="0"/>
        <pt x="389" y="74" on="1"/>
        <pt x="306" y="-12" on="0"/>
        <pt x="174" y="-12" on="1"/>
      </contour>
      <contour>
        <pt x="741" y="315" on="1"/>
        <pt x="745" y="328" on="0"/>
        <pt x="745" y="353" on="1"/>
        <pt x="745" y="455" on="0"/>
        <pt x="642" y="455" on="1"/>
        <pt x="520" y="455" on="0"/>
        <pt x="484" y="315" on="1"/>
      </contour>
      <contour>
        <pt x="250" y="72" on="0"/>
        <pt x="350" y="145" on="0"/>
        <pt x="359" y="205" on="1"/>
        <pt x="364" y="237" on="1"/>
        <pt x="239" y="237" on="0"/>
        <pt x="104" y="190" on="0"/>
        <pt x="104" y="127" on="1"/>
        <pt x="104" y="98" on="0"/>
        <pt x="147" y="72" on="0"/>
        <pt x="189" y="72" on="1"/>
      </contour>
    </TTGlyph>
    <TTGlyph name="aeacute" xMin="-5" yMin="-12" xMax="849" yMax="723">
      <component glyphName=".ttfautohint" x="0" y="0" flags="0x0"/>
      <component glyphName="ae" x="0" y="0" flags="0x0"/>
      <component glyphName="acute" x="394" y="0" flags="0x0"/>
    </TTGlyph>
    <TTGlyph name="agrave" xMin="20" yMin="-12" xMax="530" yMax="723">
      <component glyphName=".ttfautohint" x="20" y="0" flags="0x0"/>
      <component glyphName="a" x="0" y="0" flags="0x0"/>
      <component glyphName="grave" x="98" y="0" flags="0x0"/>
    </TTGlyph>
    <TTGlyph name="amacron" xMin="20" yMin="-12" xMax="530" yMax="699">
      <component glyphName=".ttfautohint" x="20" y="0" flags="0x0"/>
      <component glyphName="a" x="0" y="0" flags="0x0"/>
      <component glyphName="macron" x="160" y="0" flags="0x0"/>
    </TTGlyph>
    <TTGlyph name="ampersand" xMin="17" yMin="-12" xMax="675" yMax="698">
      <contour>
        <pt x="150" y="-12" on="0"/>
        <pt x="17" y="78" on="0"/>
        <pt x="17" y="158" on="1"/>
        <pt x="17" y="234" on="0"/>
        <pt x="110" y="336" on="0"/>
        <pt x="177" y="352" on="1"/>
        <pt x="178" y="356" on="1"/>
        <pt x="136" y="378" on="0"/>
        <pt x="90" y="436" on="0"/>
        <pt x="90" y="481" on="1"/>
        <pt x="90" y="549" on="0"/>
        <pt x="165" y="647" on="0"/>
        <pt x="293" y="698" on="0"/>
        <pt x="373" y="698" on="1"/>
        <pt x="481" y="698" on="0"/>
        <pt x="611" y="612" on="0"/>
        <pt x="611" y="540" on="1"/>
        <pt x="611" y="522" on="0"/>
        <pt x="604" y="489" on="1"/>
        <pt x="501" y="489" on="1"/>
        <pt x="505" y="508" on="0"/>
        <pt x="505" y="523" on="1"/>
        <pt x="505" y="568" on="0"/>
        <pt x="436" y="612" on="0"/>
        <pt x="373" y="612" on="1"/>
        <pt x="297" y="612" on="0"/>
        <pt x="195" y="545" on="0"/>
        <pt x="195" y="480" on="1"/>
        <pt x="195" y="437" on="0"/>
        <pt x="260" y="391" on="0"/>
        <pt x="310" y="391" on="1"/>
        <pt x="374" y="391" on="1"/>
        <pt x="359" y="306" on="1"/>
        <pt x="298" y="306" on="1"/>
        <pt x="226" y="306" on="0"/>
        <pt x="126" y="246" on="0"/>
        <pt x="126" y="173" on="1"/>
        <pt x="126" y="123" on="0"/>
        <pt x="198" y="74" on="0"/>
        <pt x="265" y="74" on="1"/>
        <pt x="428" y="74" on="0"/>
        <pt x="449" y="194" on="1"/>
        <pt x="484" y="391" on="1"/>
        <pt x="675" y="391" on="1"/>
        <pt x="660" y="305" on="1"/>
        <pt x="572" y="305" on="1"/>
        <pt x="553" y="197" on="1"/>
        <pt x="535" y="97" on="0"/>
        <pt x="387" y="-12" on="0"/>
        <pt x="263" y="-12" on="1"/>
      </contour>
    </TTGlyph>
    <TTGlyph name="ampersand.alt" xMin="25" yMin="-13" xMax="639" yMax="699">
      <contour>
        <pt x="603" y="209" on="0"/>
        <pt x="520" y="117" on="1"/>
        <pt x="598" y="0" on="1"/>
        <pt x="476" y="0" on="1"/>
        <pt x="443" y="51" on="1"/>
        <pt x="346" y="-13" on="0"/>
        <pt x="230" y="-13" on="1"/>
        <pt x="136" y="-13" on="0"/>
        <pt x="25" y="83" on="0"/>
        <pt x="25" y="160" on="1"/>
        <pt x="25" y="242" on="0"/>
        <pt x="132" y="370" on="0"/>
        <pt x="217" y="401" on="1"/>
        <pt x="188" y="455" on="0"/>
        <pt x="188" y="513" on="1"/>
        <pt x="188" y="569" on="0"/>
        <pt x="243" y="654" on="0"/>
        <pt x="333" y="699" on="0"/>
        <pt x="385" y="699" on="1"/>
        <pt x="454" y="699" on="0"/>
        <pt x="541" y="629" on="0"/>
        <pt x="541" y="568" on="1"/>
        <pt x="541" y="496" on="0"/>
        <pt x="442" y="389" on="0"/>
        <pt x="357" y="360" on="1"/>
        <pt x="470" y="191" on="1"/>
        <pt x="518" y="256" on="0"/>
        <pt x="542" y="347" on="1"/>
        <pt x="639" y="347" on="1"/>
      </contour>
      <contour>
        <pt x="337" y="615" on="0"/>
        <pt x="288" y="563" on="0"/>
        <pt x="288" y="517" on="1"/>
        <pt x="288" y="466" on="0"/>
        <pt x="313" y="425" on="1"/>
        <pt x="370" y="441" on="0"/>
        <pt x="440" y="504" on="0"/>
        <pt x="440" y="549" on="1"/>
        <pt x="440" y="580" on="0"/>
        <pt x="405" y="615" on="0"/>
        <pt x="375" y="615" on="1"/>
      </contour>
      <contour>
        <pt x="330" y="70" on="0"/>
        <pt x="399" y="119" on="1"/>
        <pt x="261" y="331" on="1"/>
        <pt x="201" y="312" on="0"/>
        <pt x="126" y="227" on="0"/>
        <pt x="126" y="173" on="1"/>
        <pt x="126" y="123" on="0"/>
        <pt x="186" y="70" on="0"/>
        <pt x="244" y="70" on="1"/>
      </contour>
    </TTGlyph>
    <TTGlyph name="aogonek" xMin="20" yMin="-182" xMax="530" yMax="538">
      <contour>
        <pt x="450" y="73" on="0"/>
        <pt x="480" y="73" on="1"/>
        <pt x="516" y="73" on="1"/>
        <pt x="504" y="4" on="1"/>
        <pt x="466" y="-10" on="0"/>
        <pt x="411" y="-48" on="0"/>
        <pt x="411" y="-78" on="1"/>
        <pt x="411" y="-116" on="0"/>
        <pt x="454" y="-116" on="1"/>
        <pt x="483" y="-116" on="1"/>
        <pt x="474" y="-168" on="1"/>
        <pt x="437" y="-182" on="0"/>
        <pt x="407" y="-182" on="1"/>
        <pt x="370" y="-182" on="0"/>
        <pt x="318" y="-146" on="0"/>
        <pt x="318" y="-107" on="1"/>
        <pt x="318" y="-44" on="0"/>
        <pt x="396" y="-5" on="1"/>
        <pt x="375" y="3" on="0"/>
        <pt x="353" y="41" on="0"/>
        <pt x="354" y="70" on="1"/>
        <pt x="354" y="79" on="1"/>
        <pt x="350" y="79" on="1"/>
        <pt x="323" y="35" on="0"/>
        <pt x="236" y="-12" on="0"/>
        <pt x="187" y="-12" on="1"/>
        <pt x="109" y="-12" on="0"/>
        <pt x="20" y="88" on="0"/>
        <pt x="20" y="184" on="1"/>
        <pt x="20" y="282" on="0"/>
        <pt x="81" y="444" on="0"/>
        <pt x="193" y="538" on="0"/>
        <pt x="267" y="538" on="1"/>
        <pt x="321" y="538" on="0"/>
        <pt x="391" y="503" on="0"/>
        <pt x="411" y="466" on="1"/>
        <pt x="417" y="466" on="1"/>
        <pt x="448" y="526" on="1"/>
        <pt x="530" y="526" on="1"/>
        <pt x="521" y="478" on="0"/>
        <pt x="499" y="365" on="0"/>
        <pt x="489" y="309" on="1"/>
        <pt x="450" y="104" on="0"/>
        <pt x="450" y="100" on="1"/>
      </contour>
      <contour>
        <pt x="276" y="75" on="0"/>
        <pt x="352" y="166" on="0"/>
        <pt x="387" y="289" on="0"/>
        <pt x="387" y="335" on="1"/>
        <pt x="387" y="393" on="0"/>
        <pt x="339" y="452" on="0"/>
        <pt x="287" y="452" on="1"/>
        <pt x="233" y="452" on="0"/>
        <pt x="161" y="377" on="0"/>
        <pt x="127" y="257" on="0"/>
        <pt x="127" y="190" on="1"/>
        <pt x="127" y="75" on="0"/>
        <pt x="218" y="75" on="1"/>
      </contour>
    </TTGlyph>
    <TTGlyph name="approxequal" xMin="-3" yMin="52" xMax="546" yMax="450">
      <contour>
        <pt x="52" y="366" on="1"/>
        <pt x="52" y="368" on="0"/>
        <pt x="95" y="406" on="0"/>
        <pt x="163" y="438" on="0"/>
        <pt x="204" y="438" on="1"/>
        <pt x="228" y="438" on="0"/>
        <pt x="269" y="423" on="0"/>
        <pt x="298" y="408" on="1"/>
        <pt x="326" y="393" on="0"/>
        <pt x="369" y="378" on="0"/>
        <pt x="394" y="378" on="1"/>
        <pt x="430" y="378" on="0"/>
        <pt x="498" y="410" on="0"/>
        <pt x="546" y="448" on="0"/>
        <pt x="546" y="450" on="1"/>
        <pt x="529" y="349" on="1"/>
        <pt x="529" y="347" on="0"/>
        <pt x="486" y="309" on="0"/>
        <pt x="418" y="277" on="0"/>
        <pt x="377" y="277" on="1"/>
        <pt x="353" y="277" on="0"/>
        <pt x="312" y="292" on="0"/>
        <pt x="283" y="307" on="1"/>
        <pt x="253" y="322" on="0"/>
        <pt x="211" y="337" on="0"/>
        <pt x="186" y="337" on="1"/>
        <pt x="150" y="337" on="0"/>
        <pt x="83" y="305" on="0"/>
        <pt x="35" y="267" on="0"/>
        <pt x="35" y="265" on="1"/>
      </contour>
      <contour>
        <pt x="14" y="153" on="1"/>
        <pt x="14" y="155" on="0"/>
        <pt x="57" y="193" on="0"/>
        <pt x="125" y="225" on="0"/>
        <pt x="166" y="225" on="1"/>
        <pt x="190" y="225" on="0"/>
        <pt x="231" y="210" on="0"/>
        <pt x="260" y="195" on="1"/>
        <pt x="290" y="180" on="0"/>
        <pt x="332" y="165" on="0"/>
        <pt x="357" y="165" on="1"/>
        <pt x="393" y="165" on="0"/>
        <pt x="461" y="197" on="0"/>
        <pt x="509" y="235" on="0"/>
        <pt x="509" y="237" on="1"/>
        <pt x="491" y="136" on="1"/>
        <pt x="491" y="134" on="0"/>
        <pt x="448" y="96" on="0"/>
        <pt x="380" y="64" on="0"/>
        <pt x="339" y="64" on="1"/>
        <pt x="315" y="64" on="0"/>
        <pt x="274" y="79" on="0"/>
        <pt x="245" y="94" on="1"/>
        <pt x="217" y="109" on="0"/>
        <pt x="174" y="124" on="0"/>
        <pt x="149" y="124" on="1"/>
        <pt x="113" y="124" on="0"/>
        <pt x="45" y="92" on="0"/>
        <pt x="-3" y="54" on="0"/>
        <pt x="-3" y="52" on="1"/>
      </contour>
    </TTGlyph>
    <TTGlyph name="aring" xMin="20" yMin="-12" xMax="530" yMax="758">
      <component glyphName=".ttfautohint" x="20" y="0" flags="0x0"/>
      <component glyphName="a" x="0" y="0" flags="0x0"/>
      <component glyphName="ring" x="152" y="0" flags="0x0"/>
    </TTGlyph>
    <TTGlyph name="aringacute" xMin="20" yMin="-12" xMax="530" yMax="912">
      <component glyphName=".ttfautohint" x="20" y="0" flags="0x0"/>
      <component glyphName="a" x="0" y="0" flags="0x0"/>
      <component glyphName="ring" x="152" y="0" flags="0x0"/>
      <component glyphName="acute" x="232" y="189" flags="0x4"/>
    </TTGlyph>
    <TTGlyph name="arrowboth" xMin="36" yMin="76" xMax="957" yMax="429">
      <contour>
        <pt x="36" y="242" on="1"/>
        <pt x="39" y="263" on="1"/>
        <pt x="257" y="429" on="1"/>
        <pt x="311" y="429" on="1"/>
        <pt x="234" y="295" on="1"/>
        <pt x="777" y="295" on="1"/>
        <pt x="744" y="429" on="1"/>
        <pt x="789" y="429" on="1"/>
        <pt x="957" y="263" on="1"/>
        <pt x="954" y="242" on="1"/>
        <pt x="735" y="76" on="1"/>
        <pt x="682" y="76" on="1"/>
        <pt x="762" y="210" on="1"/>
        <pt x="219" y="210" on="1"/>
        <pt x="249" y="76" on="1"/>
        <pt x="204" y="76" on="1"/>
      </contour>
    </TTGlyph>
    <TTGlyph name="arrowdown" xMin="20" yMin="-208" xMax="382" yMax="710">
      <contour>
        <pt x="20" y="-11" on="1"/>
        <pt x="28" y="34" on="1"/>
        <pt x="153" y="-22" on="1"/>
        <pt x="282" y="710" on="1"/>
        <pt x="366" y="710" on="1"/>
        <pt x="237" y="-22" on="1"/>
        <pt x="382" y="34" on="1"/>
        <pt x="372" y="-19" on="1"/>
        <pt x="173" y="-208" on="1"/>
        <pt x="152" y="-208" on="1"/>
      </contour>
    </TTGlyph>
    <TTGlyph name="arrowleft" xMin="30" yMin="76" xMax="957" yMax="429">
      <contour>
        <pt x="30" y="242" on="1"/>
        <pt x="33" y="263" on="1"/>
        <pt x="252" y="429" on="1"/>
        <pt x="305" y="429" on="1"/>
        <pt x="224" y="294" on="1"/>
        <pt x="957" y="294" on="1"/>
        <pt x="942" y="210" on="1"/>
        <pt x="210" y="210" on="1"/>
        <pt x="242" y="76" on="1"/>
        <pt x="197" y="76" on="1"/>
      </contour>
    </TTGlyph>
    <TTGlyph name="arrowright" xMin="29" yMin="76" xMax="956" yMax="429">
      <contour>
        <pt x="762" y="210" on="1"/>
        <pt x="29" y="210" on="1"/>
        <pt x="44" y="294" on="1"/>
        <pt x="776" y="294" on="1"/>
        <pt x="744" y="429" on="1"/>
        <pt x="789" y="429" on="1"/>
        <pt x="956" y="263" on="1"/>
        <pt x="953" y="242" on="1"/>
        <pt x="734" y="76" on="1"/>
        <pt x="681" y="76" on="1"/>
      </contour>
    </TTGlyph>
    <TTGlyph name="arrowup" xMin="100" yMin="-208" xMax="461" yMax="710">
      <contour>
        <pt x="245" y="525" on="1"/>
        <pt x="100" y="468" on="1"/>
        <pt x="109" y="521" on="1"/>
        <pt x="308" y="710" on="1"/>
        <pt x="329" y="710" on="1"/>
        <pt x="461" y="513" on="1"/>
        <pt x="453" y="468" on="1"/>
        <pt x="329" y="525" on="1"/>
        <pt x="200" y="-208" on="1"/>
        <pt x="116" y="-208" on="1"/>
      </contour>
    </TTGlyph>
    <TTGlyph name="arrowupdn" xMin="22" yMin="-206" xMax="468" yMax="711">
      <contour>
        <pt x="22" y="-9" on="1"/>
        <pt x="30" y="36" on="1"/>
        <pt x="155" y="-21" on="1"/>
        <pt x="251" y="522" on="1"/>
        <pt x="107" y="469" on="1"/>
        <pt x="117" y="522" on="1"/>
        <pt x="315" y="711" on="1"/>
        <pt x="336" y="711" on="1"/>
        <pt x="468" y="514" on="1"/>
        <pt x="460" y="469" on="1"/>
        <pt x="335" y="522" on="1"/>
        <pt x="239" y="-21" on="1"/>
        <pt x="383" y="36" on="1"/>
        <pt x="374" y="-17" on="1"/>
        <pt x="175" y="-206" on="1"/>
        <pt x="154" y="-206" on="1"/>
      </contour>
    </TTGlyph>
    <TTGlyph name="arrowupdnbse" xMin="-18" yMin="-233" xMax="468" yMax="711">
      <contour>
        <pt x="36" y="72" on="1"/>
        <pt x="44" y="117" on="1"/>
        <pt x="169" y="61" on="1"/>
        <pt x="250" y="522" on="1"/>
        <pt x="106" y="469" on="1"/>
        <pt x="116" y="522" on="1"/>
        <pt x="314" y="711" on="1"/>
        <pt x="335" y="711" on="1"/>
        <pt x="468" y="514" on="1"/>
        <pt x="459" y="469" on="1"/>
        <pt x="334" y="522" on="1"/>
        <pt x="253" y="61" on="1"/>
        <pt x="397" y="117" on="1"/>
        <pt x="388" y="64" on="1"/>
        <pt x="189" y="-125" on="1"/>
        <pt x="168" y="-125" on="1"/>
      </contour>
      <contour>
        <pt x="-7" y="-173" on="1"/>
        <pt x="347" y="-173" on="1"/>
        <pt x="336" y="-233" on="1"/>
        <pt x="-18" y="-233" on="1"/>
      </contour>
    </TTGlyph>
    <TTGlyph name="asciicircum" xMin="21" yMin="294" xMax="440" yMax="686">
      <contour>
        <pt x="245" y="686" on="1"/>
        <pt x="352" y="686" on="1"/>
        <pt x="440" y="294" on="1"/>
        <pt x="347" y="294" on="1"/>
        <pt x="285" y="595" on="1"/>
        <pt x="119" y="294" on="1"/>
        <pt x="21" y="294" on="1"/>
      </contour>
    </TTGlyph>
    <TTGlyph name="asciitilde" xMin="24" yMin="207" xMax="559" yMax="393">
      <contour>
        <pt x="42" y="308" on="1"/>
        <pt x="42" y="310" on="0"/>
        <pt x="87" y="349" on="0"/>
        <pt x="157" y="381" on="0"/>
        <pt x="200" y="381" on="1"/>
        <pt x="225" y="381" on="0"/>
        <pt x="267" y="366" on="0"/>
        <pt x="299" y="351" on="1"/>
        <pt x="328" y="336" on="0"/>
        <pt x="375" y="320" on="0"/>
        <pt x="401" y="320" on="1"/>
        <pt x="439" y="320" on="0"/>
        <pt x="509" y="352" on="0"/>
        <pt x="559" y="391" on="0"/>
        <pt x="559" y="393" on="1"/>
        <pt x="541" y="292" on="1"/>
        <pt x="541" y="290" on="0"/>
        <pt x="496" y="251" on="0"/>
        <pt x="426" y="219" on="0"/>
        <pt x="383" y="219" on="1"/>
        <pt x="358" y="219" on="0"/>
        <pt x="316" y="234" on="0"/>
        <pt x="284" y="249" on="1"/>
        <pt x="255" y="264" on="0"/>
        <pt x="208" y="280" on="0"/>
        <pt x="182" y="280" on="1"/>
        <pt x="144" y="280" on="0"/>
        <pt x="74" y="248" on="0"/>
        <pt x="24" y="209" on="0"/>
        <pt x="24" y="207" on="1"/>
      </contour>
    </TTGlyph>
    <TTGlyph name="asterisk" xMin="62" yMin="362" xMax="402" yMax="686">
      <contour>
        <pt x="200" y="481" on="1"/>
        <pt x="91" y="407" on="1"/>
        <pt x="62" y="478" on="1"/>
        <pt x="183" y="524" on="1"/>
        <pt x="79" y="571" on="1"/>
        <pt x="132" y="641" on="1"/>
        <pt x="215" y="567" on="1"/>
        <pt x="219" y="686" on="1"/>
        <pt x="302" y="686" on="1"/>
        <pt x="264" y="568" on="1"/>
        <pt x="373" y="641" on="1"/>
        <pt x="402" y="571" on="1"/>
        <pt x="282" y="524" on="1"/>
        <pt x="385" y="478" on="1"/>
        <pt x="332" y="407" on="1"/>
        <pt x="249" y="481" on="1"/>
        <pt x="245" y="362" on="1"/>
        <pt x="162" y="362" on="1"/>
      </contour>
    </TTGlyph>
    <TTGlyph name="at" xMin="46" yMin="-153" xMax="956" yMax="698">
      <contour>
        <pt x="688" y="698" on="0"/>
        <pt x="865" y="621" on="0"/>
        <pt x="956" y="478" on="0"/>
        <pt x="956" y="379" on="1"/>
        <pt x="956" y="293" on="0"/>
        <pt x="897" y="129" on="0"/>
        <pt x="769" y="22" on="0"/>
        <pt x="673" y="22" on="1"/>
        <pt x="634" y="22" on="0"/>
        <pt x="578" y="54" on="0"/>
        <pt x="578" y="90" on="1"/>
        <pt x="578" y="104" on="1"/>
        <pt x="573" y="104" on="1"/>
        <pt x="549" y="64" on="0"/>
        <pt x="471" y="22" on="0"/>
        <pt x="426" y="22" on="1"/>
        <pt x="354" y="22" on="0"/>
        <pt x="271" y="112" on="0"/>
        <pt x="271" y="200" on="1"/>
        <pt x="271" y="289" on="0"/>
        <pt x="327" y="435" on="0"/>
        <pt x="431" y="521" on="0"/>
        <pt x="498" y="521" on="1"/>
        <pt x="547" y="521" on="0"/>
        <pt x="610" y="489" on="0"/>
        <pt x="628" y="455" on="1"/>
        <pt x="634" y="455" on="1"/>
        <pt x="662" y="510" on="1"/>
        <pt x="739" y="510" on="1"/>
        <pt x="717" y="388" on="0"/>
        <pt x="698" y="294" on="1"/>
        <pt x="667" y="127" on="0"/>
        <pt x="667" y="124" on="1"/>
        <pt x="667" y="111" on="0"/>
        <pt x="685" y="99" on="0"/>
        <pt x="704" y="99" on="1"/>
        <pt x="758" y="99" on="0"/>
        <pt x="839" y="178" on="0"/>
        <pt x="883" y="307" on="0"/>
        <pt x="883" y="379" on="1"/>
        <pt x="883" y="498" on="0"/>
        <pt x="716" y="634" on="0"/>
        <pt x="561" y="634" on="1"/>
        <pt x="354" y="634" on="0"/>
        <pt x="119" y="419" on="0"/>
        <pt x="119" y="205" on="1"/>
        <pt x="119" y="66" on="0"/>
        <pt x="269" y="-89" on="0"/>
        <pt x="448" y="-89" on="1"/>
        <pt x="495" y="-89" on="0"/>
        <pt x="576" y="-81" on="0"/>
        <pt x="624" y="-72" on="0"/>
        <pt x="630" y="-71" on="1"/>
        <pt x="619" y="-139" on="1"/>
        <pt x="527" y="-153" on="0"/>
        <pt x="448" y="-153" on="1"/>
        <pt x="233" y="-153" on="0"/>
        <pt x="46" y="33" on="0"/>
        <pt x="46" y="198" on="1"/>
        <pt x="46" y="450" on="0"/>
        <pt x="316" y="698" on="0"/>
        <pt x="561" y="698" on="1"/>
      </contour>
      <contour>
        <pt x="506" y="102" on="0"/>
        <pt x="576" y="184" on="0"/>
        <pt x="608" y="295" on="0"/>
        <pt x="608" y="337" on="1"/>
        <pt x="608" y="389" on="0"/>
        <pt x="564" y="442" on="0"/>
        <pt x="517" y="442" on="1"/>
        <pt x="445" y="442" on="0"/>
        <pt x="371" y="302" on="0"/>
        <pt x="371" y="205" on="1"/>
        <pt x="371" y="153" on="0"/>
        <pt x="411" y="102" on="0"/>
        <pt x="454" y="102" on="1"/>
      </contour>
    </TTGlyph>
    <TTGlyph name="atilde" xMin="20" yMin="-12" xMax="530" yMax="723">
      <component glyphName=".ttfautohint" x="20" y="0" flags="0x0"/>
      <component glyphName="a" x="0" y="0" flags="0x0"/>
      <component glyphName="tilde" x="157" y="0" flags="0x0"/>
    </TTGlyph>
    <TTGlyph name="b" xMin="13" yMin="-12" xMax="534" yMax="723">
      <contour>
        <pt x="226" y="-12" on="0"/>
        <pt x="144" y="30" on="0"/>
        <pt x="123" y="70" on="1"/>
        <pt x="117" y="70" on="1"/>
        <pt x="95" y="0" on="1"/>
        <pt x="13" y="0" on="1"/>
        <pt x="140" y="723" on="1"/>
        <pt x="243" y="723" on="1"/>
        <pt x="198" y="466" on="1"/>
        <pt x="204" y="466" on="1"/>
        <pt x="266" y="538" on="0"/>
        <pt x="363" y="538" on="1"/>
        <pt x="444" y="538" on="0"/>
        <pt x="534" y="440" on="0"/>
        <pt x="534" y="342" on="1"/>
        <pt x="534" y="245" on="0"/>
        <pt x="474" y="83" on="0"/>
        <pt x="359" y="-12" on="0"/>
        <pt x="281" y="-12" on="1"/>
      </contour>
      <contour>
        <pt x="343" y="74" on="0"/>
        <pt x="427" y="228" on="0"/>
        <pt x="427" y="337" on="1"/>
        <pt x="427" y="397" on="0"/>
        <pt x="378" y="451" on="0"/>
        <pt x="325" y="451" on="1"/>
        <pt x="270" y="451" on="0"/>
        <pt x="193" y="375" on="0"/>
        <pt x="155" y="259" on="0"/>
        <pt x="155" y="197" on="1"/>
        <pt x="155" y="74" on="0"/>
        <pt x="258" y="74" on="1"/>
      </contour>
    </TTGlyph>
    <TTGlyph name="backslash" xMin="71" yMin="-49" xMax="208" yMax="735">
      <contour>
        <pt x="71" y="735" on="1"/>
        <pt x="149" y="735" on="1"/>
        <pt x="208" y="-49" on="1"/>
        <pt x="130" y="-49" on="1"/>
      </contour>
    </TTGlyph>
    <TTGlyph name="bar" xMin="91" yMin="-173" xMax="175" yMax="723">
      <contour>
        <pt x="91" y="723" on="1"/>
        <pt x="175" y="723" on="1"/>
        <pt x="175" y="-173" on="1"/>
        <pt x="91" y="-173" on="1"/>
      </contour>
    </TTGlyph>
    <TTGlyph name="braceleft" xMin="27" yMin="-159" xMax="383" yMax="735">
      <contour>
        <pt x="147" y="-159" on="0"/>
        <pt x="64" y="-114" on="0"/>
        <pt x="64" y="-50" on="1"/>
        <pt x="64" y="-20" on="0"/>
        <pt x="87" y="95" on="1"/>
        <pt x="104" y="178" on="0"/>
        <pt x="104" y="194" on="1"/>
        <pt x="104" y="221" on="0"/>
        <pt x="59" y="245" on="0"/>
        <pt x="27" y="245" on="1"/>
        <pt x="42" y="331" on="1"/>
        <pt x="78" y="331" on="0"/>
        <pt x="133" y="360" on="0"/>
        <pt x="139" y="391" on="1"/>
        <pt x="173" y="587" on="1"/>
        <pt x="184" y="648" on="0"/>
        <pt x="237" y="712" on="0"/>
        <pt x="320" y="735" on="0"/>
        <pt x="383" y="735" on="1"/>
        <pt x="372" y="672" on="1"/>
        <pt x="334" y="672" on="0"/>
        <pt x="275" y="642" on="0"/>
        <pt x="268" y="604" on="1"/>
        <pt x="249" y="511" on="0"/>
        <pt x="224" y="401" on="1"/>
        <pt x="211" y="343" on="0"/>
        <pt x="161" y="293" on="0"/>
        <pt x="105" y="293" on="1"/>
        <pt x="103" y="283" on="1"/>
        <pt x="148" y="283" on="0"/>
        <pt x="187" y="243" on="0"/>
        <pt x="187" y="204" on="1"/>
        <pt x="187" y="177" on="0"/>
        <pt x="169" y="65" on="1"/>
        <pt x="155" y="-31" on="0"/>
        <pt x="155" y="-41" on="1"/>
        <pt x="155" y="-96" on="0"/>
        <pt x="237" y="-96" on="1"/>
        <pt x="226" y="-159" on="1"/>
      </contour>
    </TTGlyph>
    <TTGlyph name="braceright" xMin="-53" yMin="-159" xMax="304" yMax="735">
      <contour>
        <pt x="-42" y="-96" on="1"/>
        <pt x="-4" y="-96" on="0"/>
        <pt x="55" y="-66" on="0"/>
        <pt x="62" y="-28" on="1"/>
        <pt x="80" y="64" on="0"/>
        <pt x="106" y="175" on="1"/>
        <pt x="119" y="234" on="0"/>
        <pt x="170" y="283" on="0"/>
        <pt x="225" y="283" on="1"/>
        <pt x="227" y="293" on="1"/>
        <pt x="182" y="293" on="0"/>
        <pt x="143" y="333" on="0"/>
        <pt x="143" y="372" on="1"/>
        <pt x="143" y="399" on="0"/>
        <pt x="161" y="511" on="1"/>
        <pt x="175" y="607" on="0"/>
        <pt x="175" y="617" on="1"/>
        <pt x="175" y="672" on="0"/>
        <pt x="93" y="672" on="1"/>
        <pt x="104" y="735" on="1"/>
        <pt x="183" y="735" on="0"/>
        <pt x="266" y="690" on="0"/>
        <pt x="266" y="626" on="1"/>
        <pt x="266" y="596" on="0"/>
        <pt x="243" y="481" on="1"/>
        <pt x="226" y="398" on="0"/>
        <pt x="226" y="382" on="1"/>
        <pt x="226" y="355" on="0"/>
        <pt x="271" y="331" on="0"/>
        <pt x="304" y="331" on="1"/>
        <pt x="288" y="245" on="1"/>
        <pt x="253" y="245" on="0"/>
        <pt x="197" y="216" on="0"/>
        <pt x="191" y="185" on="1"/>
        <pt x="157" y="-11" on="1"/>
        <pt x="146" y="-72" on="0"/>
        <pt x="93" y="-136" on="0"/>
        <pt x="10" y="-159" on="0"/>
        <pt x="-53" y="-159" on="1"/>
      </contour>
    </TTGlyph>
    <TTGlyph name="bracketleft" xMin="-15" yMin="-161" xMax="338" yMax="735">
      <contour>
        <pt x="141" y="735" on="1"/>
        <pt x="338" y="735" on="1"/>
        <pt x="325" y="661" on="1"/>
        <pt x="219" y="661" on="1"/>
        <pt x="87" y="-87" on="1"/>
        <pt x="193" y="-87" on="1"/>
        <pt x="181" y="-161" on="1"/>
        <pt x="-15" y="-161" on="1"/>
      </contour>
    </TTGlyph>
    <TTGlyph name="bracketright" xMin="-65" yMin="-161" xMax="287" yMax="735">
      <contour>
        <pt x="-53" y="-87" on="1"/>
        <pt x="53" y="-87" on="1"/>
        <pt x="185" y="661" on="1"/>
        <pt x="78" y="661" on="1"/>
        <pt x="91" y="735" on="1"/>
        <pt x="287" y="735" on="1"/>
        <pt x="130" y="-161" on="1"/>
        <pt x="-65" y="-161" on="1"/>
      </contour>
    </TTGlyph>
    <TTGlyph name="breve" xMin="25" yMin="600" xMax="328" yMax="723">
      <contour>
        <pt x="90" y="600" on="0"/>
        <pt x="25" y="656" on="0"/>
        <pt x="25" y="699" on="1"/>
        <pt x="25" y="715" on="0"/>
        <pt x="27" y="723" on="1"/>
        <pt x="97" y="723" on="1"/>
        <pt x="97" y="672" on="0"/>
        <pt x="164" y="672" on="1"/>
        <pt x="204" y="672" on="0"/>
        <pt x="252" y="703" on="0"/>
        <pt x="258" y="723" on="1"/>
        <pt x="328" y="723" on="1"/>
        <pt x="323" y="698" on="0"/>
        <pt x="295" y="650" on="0"/>
        <pt x="273" y="634" on="1"/>
        <pt x="229" y="600" on="0"/>
        <pt x="164" y="600" on="1"/>
      </contour>
    </TTGlyph>
    <TTGlyph name="brokenbar" xMin="91" yMin="-173" xMax="175" yMax="723">
      <contour>
        <pt x="91" y="723" on="1"/>
        <pt x="175" y="723" on="1"/>
        <pt x="175" y="357" on="1"/>
        <pt x="91" y="357" on="1"/>
      </contour>
      <contour>
        <pt x="91" y="193" on="1"/>
        <pt x="175" y="193" on="1"/>
        <pt x="175" y="-173" on="1"/>
        <pt x="91" y="-173" on="1"/>
      </contour>
    </TTGlyph>
    <TTGlyph name="bullet" xMin="46" yMin="216" xMax="303" yMax="471">
      <contour>
        <pt x="113" y="216" on="0"/>
        <pt x="46" y="281" on="0"/>
        <pt x="46" y="328" on="1"/>
        <pt x="46" y="367" on="0"/>
        <pt x="81" y="432" on="0"/>
        <pt x="145" y="471" on="0"/>
        <pt x="187" y="471" on="1"/>
        <pt x="236" y="471" on="0"/>
        <pt x="303" y="405" on="0"/>
        <pt x="303" y="358" on="1"/>
        <pt x="303" y="298" on="0"/>
        <pt x="226" y="216" on="0"/>
        <pt x="163" y="216" on="1"/>
      </contour>
    </TTGlyph>
    <TTGlyph name="c" xMin="20" yMin="-12" xMax="490" yMax="538">
      <contour>
        <pt x="123" y="-12" on="0"/>
        <pt x="20" y="87" on="0"/>
        <pt x="20" y="191" on="1"/>
        <pt x="20" y="282" on="0"/>
        <pt x="75" y="440" on="0"/>
        <pt x="195" y="538" on="0"/>
        <pt x="288" y="538" on="1"/>
        <pt x="390" y="538" on="0"/>
        <pt x="490" y="449" on="0"/>
        <pt x="490" y="370" on="1"/>
        <pt x="490" y="351" on="0"/>
        <pt x="487" y="330" on="1"/>
        <pt x="383" y="330" on="1"/>
        <pt x="384" y="340" on="0"/>
        <pt x="384" y="358" on="1"/>
        <pt x="384" y="454" on="0"/>
        <pt x="291" y="454" on="1"/>
        <pt x="224" y="454" on="0"/>
        <pt x="148" y="358" on="0"/>
        <pt x="134" y="280" on="1"/>
        <pt x="126" y="239" on="0"/>
        <pt x="126" y="198" on="1"/>
        <pt x="126" y="132" on="0"/>
        <pt x="177" y="72" on="0"/>
        <pt x="230" y="72" on="1"/>
        <pt x="287" y="72" on="0"/>
        <pt x="355" y="142" on="0"/>
        <pt x="365" y="196" on="1"/>
        <pt x="464" y="196" on="1"/>
        <pt x="449" y="101" on="0"/>
        <pt x="332" y="-12" on="0"/>
        <pt x="233" y="-12" on="1"/>
      </contour>
    </TTGlyph>
    <TTGlyph name="cacute" xMin="20" yMin="-12" xMax="490" yMax="723">
      <component glyphName=".ttfautohint" x="20" y="0" flags="0x0"/>
      <component glyphName="c" x="0" y="0" flags="0x0"/>
      <component glyphName="acute" x="202" y="0" flags="0x0"/>
    </TTGlyph>
    <TTGlyph name="cacute.loclPLK" xMin="20" yMin="-12" xMax="490" yMax="723">
      <component glyphName=".ttfautohint" x="20" y="0" flags="0x0"/>
      <component glyphName="c" x="0" y="0" flags="0x0"/>
      <component glyphName="acute.loclPLK" x="97" y="0" flags="0x0"/>
    </TTGlyph>
    <TTGlyph name="caron" xMin="24" yMin="588" xMax="331" yMax="723">
      <contour>
        <pt x="24" y="723" on="1"/>
        <pt x="117" y="723" on="1"/>
        <pt x="162" y="647" on="1"/>
        <pt x="229" y="723" on="1"/>
        <pt x="331" y="723" on="1"/>
        <pt x="202" y="588" on="1"/>
        <pt x="106" y="588" on="1"/>
      </contour>
    </TTGlyph>
    <TTGlyph name="ccaron" xMin="20" yMin="-12" xMax="490" yMax="723">
      <component glyphName=".ttfautohint" x="20" y="0" flags="0x0"/>
      <component glyphName="c" x="0" y="0" flags="0x0"/>
      <component glyphName="caron" x="156" y="0" flags="0x0"/>
    </TTGlyph>
    <TTGlyph name="ccedilla" xMin="20" yMin="-182" xMax="490" yMax="538">
      <contour>
        <pt x="383" y="330" on="1"/>
        <pt x="384" y="340" on="0"/>
        <pt x="384" y="358" on="1"/>
        <pt x="384" y="454" on="0"/>
        <pt x="291" y="454" on="1"/>
        <pt x="224" y="454" on="0"/>
        <pt x="148" y="358" on="0"/>
        <pt x="134" y="280" on="1"/>
        <pt x="126" y="239" on="0"/>
        <pt x="126" y="198" on="1"/>
        <pt x="126" y="132" on="0"/>
        <pt x="177" y="72" on="0"/>
        <pt x="230" y="72" on="1"/>
        <pt x="287" y="72" on="0"/>
        <pt x="355" y="142" on="0"/>
        <pt x="365" y="196" on="1"/>
        <pt x="464" y="196" on="1"/>
        <pt x="449" y="103" on="0"/>
        <pt x="337" y="-9" on="0"/>
        <pt x="242" y="-12" on="1"/>
        <pt x="234" y="-35" on="1"/>
        <pt x="271" y="-36" on="0"/>
        <pt x="317" y="-66" on="0"/>
        <pt x="317" y="-95" on="1"/>
        <pt x="317" y="-144" on="0"/>
        <pt x="239" y="-182" on="0"/>
        <pt x="185" y="-182" on="1"/>
        <pt x="127" y="-182" on="0"/>
        <pt x="82" y="-174" on="1"/>
        <pt x="91" y="-125" on="1"/>
        <pt x="187" y="-125" on="1"/>
        <pt x="209" y="-125" on="0"/>
        <pt x="233" y="-112" on="0"/>
        <pt x="233" y="-95" on="1"/>
        <pt x="233" y="-86" on="0"/>
        <pt x="217" y="-77" on="0"/>
        <pt x="197" y="-77" on="1"/>
        <pt x="150" y="-77" on="1"/>
        <pt x="174" y="-8" on="1"/>
        <pt x="95" y="4" on="0"/>
        <pt x="20" y="102" on="0"/>
        <pt x="20" y="191" on="1"/>
        <pt x="20" y="282" on="0"/>
        <pt x="75" y="440" on="0"/>
        <pt x="195" y="538" on="0"/>
        <pt x="288" y="538" on="1"/>
        <pt x="390" y="538" on="0"/>
        <pt x="490" y="449" on="0"/>
        <pt x="490" y="370" on="1"/>
        <pt x="490" y="351" on="0"/>
        <pt x="487" y="330" on="1"/>
      </contour>
    </TTGlyph>
    <TTGlyph name="ccircumflex" xMin="20" yMin="-12" xMax="490" yMax="723">
      <component glyphName=".ttfautohint" x="20" y="0" flags="0x0"/>
      <component glyphName="c" x="0" y="0" flags="0x0"/>
      <component glyphName="circumflex" x="150" y="0" flags="0x0"/>
    </TTGlyph>
    <TTGlyph name="cdotaccent" xMin="20" yMin="-12" xMax="490" yMax="723">
      <component glyphName=".ttfautohint" x="20" y="0" flags="0x0"/>
      <component glyphName="c" x="0" y="0" flags="0x0"/>
      <component glyphName="dotaccent" x="158" y="0" flags="0x0"/>
    </TTGlyph>
    <TTGlyph name="cedilla" xMin="34" yMin="-182" xMax="269" yMax="11">
      <contour>
        <pt x="79" y="-182" on="0"/>
        <pt x="34" y="-174" on="1"/>
        <pt x="43" y="-125" on="1"/>
        <pt x="139" y="-125" on="1"/>
        <pt x="161" y="-125" on="0"/>
        <pt x="185" y="-112" on="0"/>
        <pt x="185" y="-95" on="1"/>
        <pt x="185" y="-86" on="0"/>
        <pt x="169" y="-77" on="0"/>
        <pt x="149" y="-77" on="1"/>
        <pt x="102" y="-77" on="1"/>
        <pt x="133" y="11" on="1"/>
        <pt x="202" y="11" on="1"/>
        <pt x="186" y="-35" on="1"/>
        <pt x="223" y="-36" on="0"/>
        <pt x="269" y="-66" on="0"/>
        <pt x="269" y="-95" on="1"/>
        <pt x="269" y="-144" on="0"/>
        <pt x="191" y="-182" on="0"/>
        <pt x="137" y="-182" on="1"/>
      </contour>
    </TTGlyph>
    <TTGlyph name="cent" xMin="49" yMin="-49" xMax="520" yMax="723">
      <contour>
        <pt x="214" y="69" on="1"/>
        <pt x="130" y="79" on="0"/>
        <pt x="49" y="178" on="0"/>
        <pt x="49" y="270" on="1"/>
        <pt x="49" y="359" on="0"/>
        <pt x="103" y="515" on="0"/>
        <pt x="220" y="614" on="0"/>
        <pt x="311" y="616" on="1"/>
        <pt x="330" y="723" on="1"/>
        <pt x="381" y="723" on="1"/>
        <pt x="361" y="614" on="1"/>
        <pt x="441" y="605" on="0"/>
        <pt x="520" y="519" on="0"/>
        <pt x="520" y="449" on="1"/>
        <pt x="520" y="429" on="0"/>
        <pt x="517" y="409" on="1"/>
        <pt x="412" y="409" on="1"/>
        <pt x="414" y="427" on="0"/>
        <pt x="414" y="437" on="1"/>
        <pt x="414" y="518" on="0"/>
        <pt x="346" y="530" on="1"/>
        <pt x="279" y="152" on="1"/>
        <pt x="328" y="158" on="0"/>
        <pt x="385" y="225" on="0"/>
        <pt x="395" y="275" on="1"/>
        <pt x="494" y="275" on="1"/>
        <pt x="479" y="180" on="0"/>
        <pt x="363" y="68" on="0"/>
        <pt x="264" y="67" on="1"/>
        <pt x="244" y="-49" on="1"/>
        <pt x="193" y="-49" on="1"/>
      </contour>
      <contour>
        <pt x="296" y="530" on="1"/>
        <pt x="238" y="521" on="0"/>
        <pt x="174" y="424" on="0"/>
        <pt x="162" y="351" on="1"/>
        <pt x="156" y="308" on="0"/>
        <pt x="156" y="276" on="1"/>
        <pt x="156" y="220" on="0"/>
        <pt x="192" y="161" on="0"/>
        <pt x="229" y="153" on="1"/>
      </contour>
    </TTGlyph>
    <TTGlyph name="circumflex" xMin="1" yMin="588" xMax="308" yMax="723">
      <contour>
        <pt x="130" y="723" on="1"/>
        <pt x="226" y="723" on="1"/>
        <pt x="308" y="588" on="1"/>
        <pt x="216" y="588" on="1"/>
        <pt x="172" y="664" on="1"/>
        <pt x="103" y="588" on="1"/>
        <pt x="1" y="588" on="1"/>
      </contour>
    </TTGlyph>
    <TTGlyph name="colon" xMin="37" yMin="0" xMax="242" yMax="526">
      <contour>
        <pt x="130" y="526" on="1"/>
        <pt x="242" y="526" on="1"/>
        <pt x="221" y="409" on="1"/>
        <pt x="109" y="409" on="1"/>
      </contour>
      <contour>
        <pt x="57" y="117" on="1"/>
        <pt x="169" y="117" on="1"/>
        <pt x="149" y="0" on="1"/>
        <pt x="37" y="0" on="1"/>
      </contour>
    </TTGlyph>
    <TTGlyph name="comma" xMin="4" yMin="-141" xMax="162" yMax="117">
      <contour>
        <pt x="74" y="0" on="1"/>
        <pt x="29" y="0" on="1"/>
        <pt x="50" y="117" on="1"/>
        <pt x="162" y="117" on="1"/>
        <pt x="143" y="10" on="1"/>
        <pt x="62" y="-141" on="1"/>
        <pt x="4" y="-141" on="1"/>
      </contour>
    </TTGlyph>
    <TTGlyph name="copyright" xMin="13" yMin="-12" xMax="723" yMax="698">
      <contour>
        <pt x="272" y="-12" on="0"/>
        <pt x="109" y="84" on="0"/>
        <pt x="13" y="247" on="0"/>
        <pt x="13" y="343" on="1"/>
        <pt x="13" y="439" on="0"/>
        <pt x="109" y="602" on="0"/>
        <pt x="272" y="698" on="0"/>
        <pt x="368" y="698" on="1"/>
        <pt x="464" y="698" on="0"/>
        <pt x="627" y="602" on="0"/>
        <pt x="723" y="439" on="0"/>
        <pt x="723" y="343" on="1"/>
        <pt x="723" y="247" on="0"/>
        <pt x="627" y="84" on="0"/>
        <pt x="464" y="-12" on="0"/>
        <pt x="368" y="-12" on="1"/>
      </contour>
      <contour>
        <pt x="450" y="40" on="0"/>
        <pt x="588" y="121" on="0"/>
        <pt x="669" y="260" on="0"/>
        <pt x="669" y="343" on="1"/>
        <pt x="669" y="425" on="0"/>
        <pt x="588" y="564" on="0"/>
        <pt x="450" y="646" on="0"/>
        <pt x="368" y="646" on="1"/>
        <pt x="286" y="646" on="0"/>
        <pt x="148" y="564" on="0"/>
        <pt x="67" y="425" on="0"/>
        <pt x="67" y="343" on="1"/>
        <pt x="67" y="260" on="0"/>
        <pt x="148" y="121" on="0"/>
        <pt x="286" y="40" on="0"/>
        <pt x="368" y="40" on="1"/>
      </contour>
      <contour>
        <pt x="276" y="133" on="0"/>
        <pt x="190" y="234" on="0"/>
        <pt x="190" y="342" on="1"/>
        <pt x="190" y="450" on="0"/>
        <pt x="277" y="553" on="0"/>
        <pt x="368" y="553" on="1"/>
        <pt x="450" y="553" on="0"/>
        <pt x="527" y="472" on="0"/>
        <pt x="527" y="392" on="1"/>
        <pt x="456" y="392" on="1"/>
        <pt x="456" y="446" on="0"/>
        <pt x="418" y="494" on="0"/>
        <pt x="368" y="494" on="1"/>
        <pt x="313" y="494" on="0"/>
        <pt x="262" y="423" on="0"/>
        <pt x="262" y="342" on="1"/>
        <pt x="262" y="262" on="0"/>
        <pt x="312" y="191" on="0"/>
        <pt x="368" y="191" on="1"/>
        <pt x="416" y="191" on="0"/>
        <pt x="460" y="242" on="0"/>
        <pt x="460" y="294" on="1"/>
        <pt x="527" y="294" on="1"/>
        <pt x="527" y="224" on="0"/>
        <pt x="449" y="133" on="0"/>
        <pt x="368" y="133" on="1"/>
      </contour>
    </TTGlyph>
    <TTGlyph name="currency" xMin="28" yMin="99" xMax="528" yMax="603">
      <contour>
        <pt x="29" y="144" on="1"/>
        <pt x="83" y="200" on="1"/>
        <pt x="58" y="231" on="0"/>
        <pt x="33" y="309" on="0"/>
        <pt x="33" y="351" on="1"/>
        <pt x="33" y="394" on="0"/>
        <pt x="58" y="473" on="0"/>
        <pt x="83" y="501" on="1"/>
        <pt x="28" y="555" on="1"/>
        <pt x="76" y="603" on="1"/>
        <pt x="133" y="547" on="1"/>
        <pt x="161" y="571" on="0"/>
        <pt x="238" y="598" on="0"/>
        <pt x="278" y="598" on="1"/>
        <pt x="318" y="598" on="0"/>
        <pt x="395" y="571" on="0"/>
        <pt x="423" y="547" on="1"/>
        <pt x="480" y="603" on="1"/>
        <pt x="528" y="555" on="1"/>
        <pt x="473" y="501" on="1"/>
        <pt x="498" y="473" on="0"/>
        <pt x="523" y="394" on="0"/>
        <pt x="523" y="351" on="1"/>
        <pt x="523" y="309" on="0"/>
        <pt x="498" y="231" on="0"/>
        <pt x="473" y="200" on="1"/>
        <pt x="527" y="144" on="1"/>
        <pt x="482" y="99" on="1"/>
        <pt x="427" y="157" on="1"/>
        <pt x="398" y="130" on="0"/>
        <pt x="320" y="102" on="0"/>
        <pt x="278" y="102" on="1"/>
        <pt x="236" y="102" on="0"/>
        <pt x="158" y="130" on="0"/>
        <pt x="129" y="157" on="1"/>
        <pt x="74" y="99" on="1"/>
      </contour>
      <contour>
        <pt x="322" y="181" on="0"/>
        <pt x="397" y="228" on="0"/>
        <pt x="441" y="306" on="0"/>
        <pt x="441" y="351" on="1"/>
        <pt x="441" y="395" on="0"/>
        <pt x="397" y="472" on="0"/>
        <pt x="322" y="519" on="0"/>
        <pt x="278" y="519" on="1"/>
        <pt x="234" y="519" on="0"/>
        <pt x="159" y="472" on="0"/>
        <pt x="115" y="395" on="0"/>
        <pt x="115" y="351" on="1"/>
        <pt x="115" y="306" on="0"/>
        <pt x="159" y="228" on="0"/>
        <pt x="234" y="181" on="0"/>
        <pt x="278" y="181" on="1"/>
      </contour>
    </TTGlyph>
    <TTGlyph name="d" xMin="20" yMin="-12" xMax="577" yMax="723">
      <contour>
        <pt x="115" y="-12" on="0"/>
        <pt x="20" y="90" on="0"/>
        <pt x="20" y="196" on="1"/>
        <pt x="20" y="290" on="0"/>
        <pt x="82" y="447" on="0"/>
        <pt x="196" y="538" on="0"/>
        <pt x="270" y="538" on="1"/>
        <pt x="326" y="538" on="0"/>
        <pt x="401" y="502" on="0"/>
        <pt x="423" y="466" on="1"/>
        <pt x="429" y="466" on="1"/>
        <pt x="474" y="723" on="1"/>
        <pt x="577" y="723" on="1"/>
        <pt x="450" y="0" on="1"/>
        <pt x="370" y="0" on="1"/>
        <pt x="370" y="70" on="1"/>
        <pt x="363" y="70" on="1"/>
        <pt x="332" y="30" on="0"/>
        <pt x="249" y="-12" on="0"/>
        <pt x="202" y="-12" on="1"/>
      </contour>
      <contour>
        <pt x="287" y="75" on="0"/>
        <pt x="363" y="150" on="0"/>
        <pt x="399" y="269" on="0"/>
        <pt x="399" y="335" on="1"/>
        <pt x="399" y="393" on="0"/>
        <pt x="347" y="452" on="0"/>
        <pt x="292" y="452" on="1"/>
        <pt x="210" y="452" on="0"/>
        <pt x="127" y="302" on="0"/>
        <pt x="127" y="196" on="1"/>
        <pt x="127" y="132" on="0"/>
        <pt x="178" y="75" on="0"/>
        <pt x="232" y="75" on="1"/>
      </contour>
    </TTGlyph>
    <TTGlyph name="dagger" xMin="62" yMin="-171" xMax="551" yMax="686">
      <contour>
        <pt x="268" y="429" on="1"/>
        <pt x="62" y="411" on="1"/>
        <pt x="80" y="510" on="1"/>
        <pt x="280" y="493" on="1"/>
        <pt x="299" y="686" on="1"/>
        <pt x="393" y="686" on="1"/>
        <pt x="344" y="493" on="1"/>
        <pt x="551" y="510" on="1"/>
        <pt x="533" y="411" on="1"/>
        <pt x="333" y="429" on="1"/>
        <pt x="245" y="-171" on="1"/>
        <pt x="145" y="-171" on="1"/>
      </contour>
    </TTGlyph>
    <TTGlyph name="daggerdbl" xMin="-9" yMin="-171" xMax="550" yMax="686">
      <contour>
        <pt x="196" y="23" on="1"/>
        <pt x="-9" y="6" on="1"/>
        <pt x="7" y="105" on="1"/>
        <pt x="207" y="87" on="1"/>
        <pt x="219" y="260" on="1"/>
        <pt x="267" y="429" on="1"/>
        <pt x="61" y="411" on="1"/>
        <pt x="79" y="510" on="1"/>
        <pt x="279" y="493" on="1"/>
        <pt x="298" y="686" on="1"/>
        <pt x="392" y="686" on="1"/>
        <pt x="343" y="493" on="1"/>
        <pt x="550" y="510" on="1"/>
        <pt x="532" y="411" on="1"/>
        <pt x="331" y="429" on="1"/>
        <pt x="319" y="260" on="1"/>
        <pt x="272" y="87" on="1"/>
        <pt x="478" y="105" on="1"/>
        <pt x="461" y="6" on="1"/>
        <pt x="260" y="23" on="1"/>
        <pt x="240" y="-171" on="1"/>
        <pt x="146" y="-171" on="1"/>
      </contour>
    </TTGlyph>
    <TTGlyph name="dcaron" xMin="20" yMin="-12" xMax="732" yMax="723">
      <contour>
        <pt x="115" y="-12" on="0"/>
        <pt x="20" y="90" on="0"/>
        <pt x="20" y="196" on="1"/>
        <pt x="20" y="290" on="0"/>
        <pt x="82" y="447" on="0"/>
        <pt x="196" y="538" on="0"/>
        <pt x="270" y="538" on="1"/>
        <pt x="326" y="538" on="0"/>
        <pt x="401" y="502" on="0"/>
        <pt x="423" y="466" on="1"/>
        <pt x="429" y="466" on="1"/>
        <pt x="474" y="723" on="1"/>
        <pt x="577" y="723" on="1"/>
        <pt x="450" y="0" on="1"/>
        <pt x="370" y="0" on="1"/>
        <pt x="370" y="70" on="1"/>
        <pt x="363" y="70" on="1"/>
        <pt x="332" y="30" on="0"/>
        <pt x="249" y="-12" on="0"/>
        <pt x="202" y="-12" on="1"/>
      </contour>
      <contour>
        <pt x="652" y="584" on="1"/>
        <pt x="613" y="584" on="1"/>
        <pt x="631" y="686" on="1"/>
        <pt x="732" y="686" on="1"/>
        <pt x="716" y="593" on="1"/>
        <pt x="646" y="475" on="1"/>
        <pt x="592" y="475" on="1"/>
      </contour>
      <contour>
        <pt x="287" y="75" on="0"/>
        <pt x="363" y="150" on="0"/>
        <pt x="399" y="269" on="0"/>
        <pt x="399" y="335" on="1"/>
        <pt x="399" y="393" on="0"/>
        <pt x="347" y="452" on="0"/>
        <pt x="292" y="452" on="1"/>
        <pt x="210" y="452" on="0"/>
        <pt x="127" y="302" on="0"/>
        <pt x="127" y="196" on="1"/>
        <pt x="127" y="132" on="0"/>
        <pt x="178" y="75" on="0"/>
        <pt x="232" y="75" on="1"/>
      </contour>
    </TTGlyph>
    <TTGlyph name="dcroat" xMin="20" yMin="-12" xMax="631" yMax="723">
      <contour>
        <pt x="115" y="-12" on="0"/>
        <pt x="20" y="90" on="0"/>
        <pt x="20" y="196" on="1"/>
        <pt x="20" y="290" on="0"/>
        <pt x="82" y="447" on="0"/>
        <pt x="196" y="538" on="0"/>
        <pt x="270" y="538" on="1"/>
        <pt x="326" y="538" on="0"/>
        <pt x="401" y="502" on="0"/>
        <pt x="423" y="466" on="1"/>
        <pt x="429" y="466" on="1"/>
        <pt x="451" y="593" on="1"/>
        <pt x="309" y="593" on="1"/>
        <pt x="320" y="658" on="1"/>
        <pt x="462" y="658" on="1"/>
        <pt x="474" y="723" on="1"/>
        <pt x="577" y="723" on="1"/>
        <pt x="565" y="658" on="1"/>
        <pt x="631" y="658" on="1"/>
        <pt x="620" y="593" on="1"/>
        <pt x="553" y="593" on="1"/>
        <pt x="450" y="0" on="1"/>
        <pt x="370" y="0" on="1"/>
        <pt x="370" y="70" on="1"/>
        <pt x="363" y="70" on="1"/>
        <pt x="332" y="30" on="0"/>
        <pt x="249" y="-12" on="0"/>
        <pt x="202" y="-12" on="1"/>
      </contour>
      <contour>
        <pt x="287" y="75" on="0"/>
        <pt x="363" y="150" on="0"/>
        <pt x="399" y="269" on="0"/>
        <pt x="399" y="335" on="1"/>
        <pt x="399" y="393" on="0"/>
        <pt x="347" y="452" on="0"/>
        <pt x="292" y="452" on="1"/>
        <pt x="210" y="452" on="0"/>
        <pt x="127" y="302" on="0"/>
        <pt x="127" y="196" on="1"/>
        <pt x="127" y="132" on="0"/>
        <pt x="178" y="75" on="0"/>
        <pt x="232" y="75" on="1"/>
      </contour>
    </TTGlyph>
    <TTGlyph name="degree" xMin="76" yMin="415" xMax="359" yMax="698">
      <contour>
        <pt x="179" y="415" on="0"/>
        <pt x="114" y="453" on="0"/>
        <pt x="76" y="518" on="0"/>
        <pt x="76" y="557" on="1"/>
        <pt x="76" y="595" on="0"/>
        <pt x="114" y="660" on="0"/>
        <pt x="179" y="698" on="0"/>
        <pt x="217" y="698" on="1"/>
        <pt x="256" y="698" on="0"/>
        <pt x="321" y="660" on="0"/>
        <pt x="359" y="595" on="0"/>
        <pt x="359" y="557" on="1"/>
        <pt x="359" y="518" on="0"/>
        <pt x="321" y="453" on="0"/>
        <pt x="256" y="415" on="0"/>
        <pt x="217" y="415" on="1"/>
      </contour>
      <contour>
        <pt x="250" y="477" on="0"/>
        <pt x="296" y="524" on="0"/>
        <pt x="296" y="557" on="1"/>
        <pt x="296" y="589" on="0"/>
        <pt x="250" y="635" on="0"/>
        <pt x="217" y="635" on="1"/>
        <pt x="185" y="635" on="0"/>
        <pt x="138" y="589" on="0"/>
        <pt x="138" y="557" on="1"/>
        <pt x="138" y="524" on="0"/>
        <pt x="185" y="477" on="0"/>
        <pt x="217" y="477" on="1"/>
      </contour>
    </TTGlyph>
    <TTGlyph name="dieresis" xMin="12" yMin="621" xMax="321" yMax="723">
      <contour>
        <pt x="30" y="723" on="1"/>
        <pt x="127" y="723" on="1"/>
        <pt x="108" y="621" on="1"/>
        <pt x="12" y="621" on="1"/>
      </contour>
      <contour>
        <pt x="224" y="723" on="1"/>
        <pt x="321" y="723" on="1"/>
        <pt x="303" y="621" on="1"/>
        <pt x="206" y="621" on="1"/>
      </contour>
    </TTGlyph>
    <TTGlyph name="divide" xMin="26" yMin="0" xMax="515" yMax="511">
      <contour>
        <pt x="262" y="511" on="1"/>
        <pt x="368" y="511" on="1"/>
        <pt x="350" y="408" on="1"/>
        <pt x="244" y="408" on="1"/>
      </contour>
      <contour>
        <pt x="42" y="300" on="1"/>
        <pt x="515" y="300" on="1"/>
        <pt x="499" y="211" on="1"/>
        <pt x="26" y="211" on="1"/>
      </contour>
      <contour>
        <pt x="190" y="103" on="1"/>
        <pt x="296" y="103" on="1"/>
        <pt x="277" y="0" on="1"/>
        <pt x="171" y="0" on="1"/>
      </contour>
    </TTGlyph>
    <TTGlyph name="dollar" xMin="32" yMin="-49" xMax="511" yMax="723">
      <contour>
        <pt x="206" y="69" on="1"/>
        <pt x="119" y="76" on="0"/>
        <pt x="32" y="147" on="0"/>
        <pt x="32" y="200" on="1"/>
        <pt x="32" y="223" on="0"/>
        <pt x="39" y="244" on="1"/>
        <pt x="140" y="244" on="1"/>
        <pt x="137" y="232" on="0"/>
        <pt x="137" y="221" on="1"/>
        <pt x="137" y="160" on="0"/>
        <pt x="221" y="151" on="1"/>
        <pt x="249" y="309" on="1"/>
        <pt x="198" y="324" on="0"/>
        <pt x="133" y="351" on="0"/>
        <pt x="88" y="403" on="0"/>
        <pt x="88" y="444" on="1"/>
        <pt x="88" y="521" on="0"/>
        <pt x="209" y="614" on="0"/>
        <pt x="303" y="617" on="1"/>
        <pt x="322" y="723" on="1"/>
        <pt x="373" y="723" on="1"/>
        <pt x="354" y="615" on="1"/>
        <pt x="428" y="608" on="0"/>
        <pt x="511" y="542" on="0"/>
        <pt x="511" y="495" on="1"/>
        <pt x="511" y="484" on="0"/>
        <pt x="506" y="459" on="0"/>
        <pt x="504" y="453" on="1"/>
        <pt x="404" y="453" on="1"/>
        <pt x="406" y="465" on="0"/>
        <pt x="406" y="472" on="1"/>
        <pt x="406" y="496" on="0"/>
        <pt x="374" y="528" on="0"/>
        <pt x="340" y="532" on="1"/>
        <pt x="314" y="393" on="1"/>
        <pt x="366" y="380" on="0"/>
        <pt x="435" y="351" on="0"/>
        <pt x="483" y="297" on="0"/>
        <pt x="483" y="253" on="1"/>
        <pt x="483" y="161" on="0"/>
        <pt x="354" y="69" on="0"/>
        <pt x="256" y="67" on="1"/>
        <pt x="236" y="-49" on="1"/>
        <pt x="185" y="-49" on="1"/>
      </contour>
      <contour>
        <pt x="289" y="533" on="1"/>
        <pt x="240" y="528" on="0"/>
        <pt x="196" y="488" on="0"/>
        <pt x="196" y="466" on="1"/>
        <pt x="196" y="444" on="0"/>
        <pt x="232" y="417" on="0"/>
        <pt x="266" y="407" on="1"/>
      </contour>
      <contour>
        <pt x="316" y="155" on="0"/>
        <pt x="373" y="194" on="0"/>
        <pt x="373" y="226" on="1"/>
        <pt x="373" y="251" on="0"/>
        <pt x="333" y="283" on="0"/>
        <pt x="297" y="295" on="1"/>
        <pt x="271" y="150" on="1"/>
      </contour>
    </TTGlyph>
    <TTGlyph name="dotaccent" xMin="106" yMin="618" xMax="227" yMax="723">
      <contour>
        <pt x="125" y="723" on="1"/>
        <pt x="227" y="723" on="1"/>
        <pt x="208" y="618" on="1"/>
        <pt x="106" y="618" on="1"/>
      </contour>
    </TTGlyph>
    <TTGlyph name="dotbelowcomb" xMin="-303" yMin="-173" xMax="-182" yMax="-68">
      <contour>
        <pt x="-284" y="-68" on="1"/>
        <pt x="-182" y="-68" on="1"/>
        <pt x="-201" y="-173" on="1"/>
        <pt x="-303" y="-173" on="1"/>
      </contour>
    </TTGlyph>
    <TTGlyph name="dotlessi" xMin="28" yMin="0" xMax="224" yMax="526">
      <contour>
        <pt x="121" y="526" on="1"/>
        <pt x="224" y="526" on="1"/>
        <pt x="131" y="0" on="1"/>
        <pt x="28" y="0" on="1"/>
      </contour>
    </TTGlyph>
    <TTGlyph name="e" xMin="20" yMin="-12" xMax="513" yMax="538">
      <contour>
        <pt x="135" y="-12" on="0"/>
        <pt x="20" y="89" on="0"/>
        <pt x="20" y="193" on="1"/>
        <pt x="20" y="289" on="0"/>
        <pt x="79" y="445" on="0"/>
        <pt x="207" y="538" on="0"/>
        <pt x="304" y="538" on="1"/>
        <pt x="407" y="538" on="0"/>
        <pt x="513" y="444" on="0"/>
        <pt x="513" y="352" on="1"/>
        <pt x="513" y="313" on="0"/>
        <pt x="505" y="277" on="1"/>
        <pt x="498" y="237" on="1"/>
        <pt x="128" y="237" on="1"/>
        <pt x="124" y="217" on="0"/>
        <pt x="124" y="196" on="1"/>
        <pt x="124" y="133" on="0"/>
        <pt x="186" y="71" on="0"/>
        <pt x="251" y="71" on="1"/>
        <pt x="305" y="71" on="0"/>
        <pt x="379" y="125" on="0"/>
        <pt x="388" y="181" on="1"/>
        <pt x="489" y="181" on="1"/>
        <pt x="474" y="86" on="0"/>
        <pt x="345" y="-12" on="0"/>
        <pt x="253" y="-12" on="1"/>
      </contour>
      <contour>
        <pt x="406" y="315" on="1"/>
        <pt x="410" y="332" on="0"/>
        <pt x="410" y="353" on="1"/>
        <pt x="410" y="455" on="0"/>
        <pt x="304" y="455" on="1"/>
        <pt x="178" y="455" on="0"/>
        <pt x="142" y="315" on="1"/>
      </contour>
    </TTGlyph>
    <TTGlyph name="eacute" xMin="20" yMin="-12" xMax="513" yMax="723">
      <component glyphName=".ttfautohint" x="20" y="0" flags="0x0"/>
      <component glyphName="e" x="0" y="0" flags="0x0"/>
      <component glyphName="acute" x="208" y="0" flags="0x0"/>
    </TTGlyph>
    <TTGlyph name="ebreve" xMin="20" yMin="-12" xMax="513" yMax="723">
      <component glyphName=".ttfautohint" x="20" y="0" flags="0x0"/>
      <component glyphName="e" x="0" y="0" flags="0x0"/>
      <component glyphName="breve" x="153" y="0" flags="0x0"/>
    </TTGlyph>
    <TTGlyph name="ecaron" xMin="20" yMin="-12" xMax="513" yMax="723">
      <component glyphName=".ttfautohint" x="20" y="0" flags="0x0"/>
      <component glyphName="e" x="0" y="0" flags="0x0"/>
      <component glyphName="caron" x="162" y="0" flags="0x0"/>
    </TTGlyph>
    <TTGlyph name="ecircumflex" xMin="20" yMin="-12" xMax="513" yMax="723">
      <component glyphName=".ttfautohint" x="20" y="0" flags="0x0"/>
      <component glyphName="e" x="0" y="0" flags="0x0"/>
      <component glyphName="circumflex" x="156" y="0" flags="0x0"/>
    </TTGlyph>
    <TTGlyph name="edieresis" xMin="20" yMin="-12" xMax="513" yMax="723">
      <component glyphName=".ttfautohint" x="20" y="0" flags="0x0"/>
      <component glyphName="e" x="0" y="0" flags="0x0"/>
      <component glyphName="dieresis" x="165" y="0" flags="0x0"/>
    </TTGlyph>
    <TTGlyph name="edotaccent" xMin="20" yMin="-12" xMax="513" yMax="723">
      <component glyphName=".ttfautohint" x="20" y="0" flags="0x0"/>
      <component glyphName="e" x="0" y="0" flags="0x0"/>
      <component glyphName="dotaccent" x="164" y="0" flags="0x0"/>
    </TTGlyph>
    <TTGlyph name="egrave" xMin="20" yMin="-12" xMax="513" yMax="723">
      <component glyphName=".ttfautohint" x="20" y="0" flags="0x0"/>
      <component glyphName="e" x="0" y="0" flags="0x0"/>
      <component glyphName="grave" x="104" y="0" flags="0x0"/>
    </TTGlyph>
    <TTGlyph name="eight" xMin="9" yMin="-12" xMax="535" yMax="698">
      <contour>
        <pt x="117" y="-12" on="0"/>
        <pt x="9" y="77" on="0"/>
        <pt x="9" y="152" on="1"/>
        <pt x="9" y="221" on="0"/>
        <pt x="82" y="326" on="0"/>
        <pt x="153" y="352" on="1"/>
        <pt x="118" y="372" on="0"/>
        <pt x="83" y="437" on="0"/>
        <pt x="83" y="477" on="1"/>
        <pt x="83" y="536" on="0"/>
        <pt x="144" y="638" on="0"/>
        <pt x="257" y="698" on="0"/>
        <pt x="331" y="698" on="1"/>
        <pt x="431" y="698" on="0"/>
        <pt x="535" y="608" on="0"/>
        <pt x="535" y="535" on="1"/>
        <pt x="535" y="476" on="0"/>
        <pt x="471" y="379" on="0"/>
        <pt x="411" y="352" on="1"/>
        <pt x="497" y="313" on="0"/>
        <pt x="497" y="217" on="1"/>
        <pt x="497" y="154" on="0"/>
        <pt x="437" y="50" on="0"/>
        <pt x="317" y="-12" on="0"/>
        <pt x="231" y="-12" on="1"/>
      </contour>
      <contour>
        <pt x="348" y="393" on="0"/>
        <pt x="430" y="465" on="0"/>
        <pt x="430" y="528" on="1"/>
        <pt x="430" y="569" on="0"/>
        <pt x="377" y="614" on="0"/>
        <pt x="328" y="614" on="1"/>
        <pt x="266" y="614" on="0"/>
        <pt x="187" y="541" on="0"/>
        <pt x="187" y="478" on="1"/>
        <pt x="187" y="437" on="0"/>
        <pt x="240" y="393" on="0"/>
        <pt x="289" y="393" on="1"/>
      </contour>
      <contour>
        <pt x="298" y="72" on="0"/>
        <pt x="391" y="147" on="0"/>
        <pt x="391" y="217" on="1"/>
        <pt x="391" y="261" on="0"/>
        <pt x="331" y="308" on="0"/>
        <pt x="274" y="308" on="1"/>
        <pt x="202" y="308" on="0"/>
        <pt x="116" y="230" on="0"/>
        <pt x="116" y="164" on="1"/>
        <pt x="116" y="121" on="0"/>
        <pt x="176" y="72" on="0"/>
        <pt x="233" y="72" on="1"/>
      </contour>
    </TTGlyph>
    <TTGlyph name="ellipsis" xMin="71" yMin="0" xMax="869" yMax="117">
      <contour>
        <pt x="92" y="117" on="1"/>
        <pt x="204" y="117" on="1"/>
        <pt x="182" y="0" on="1"/>
        <pt x="71" y="0" on="1"/>
      </contour>
      <contour>
        <pt x="425" y="117" on="1"/>
        <pt x="537" y="117" on="1"/>
        <pt x="515" y="0" on="1"/>
        <pt x="404" y="0" on="1"/>
      </contour>
      <contour>
        <pt x="757" y="117" on="1"/>
        <pt x="869" y="117" on="1"/>
        <pt x="848" y="0" on="1"/>
        <pt x="736" y="0" on="1"/>
      </contour>
    </TTGlyph>
    <TTGlyph name="emacron" xMin="20" yMin="-12" xMax="513" yMax="699">
      <component glyphName=".ttfautohint" x="20" y="0" flags="0x0"/>
      <component glyphName="e" x="0" y="0" flags="0x0"/>
      <component glyphName="macron" x="166" y="0" flags="0x0"/>
    </TTGlyph>
    <TTGlyph name="emdash" xMin="-9" yMin="229" xMax="1004" yMax="311">
      <contour>
        <pt x="4" y="311" on="1"/>
        <pt x="1004" y="311" on="1"/>
        <pt x="990" y="229" on="1"/>
        <pt x="-9" y="229" on="1"/>
      </contour>
    </TTGlyph>
    <TTGlyph name="endash" xMin="-9" yMin="229" xMax="560" yMax="311">
      <contour>
        <pt x="4" y="311" on="1"/>
        <pt x="560" y="311" on="1"/>
        <pt x="546" y="229" on="1"/>
        <pt x="-9" y="229" on="1"/>
      </contour>
    </TTGlyph>
    <TTGlyph name="eng" xMin="14" yMin="-182" xMax="521" yMax="538">
      <contour>
        <pt x="269" y="-182" on="0"/>
        <pt x="230" y="-169" on="1"/>
        <pt x="242" y="-100" on="1"/>
        <pt x="288" y="-100" on="1"/>
        <pt x="333" y="-100" on="0"/>
        <pt x="341" y="-53" on="1"/>
        <pt x="409" y="331" on="1"/>
        <pt x="414" y="363" on="0"/>
        <pt x="414" y="383" on="1"/>
        <pt x="414" y="419" on="0"/>
        <pt x="375" y="450" on="0"/>
        <pt x="339" y="450" on="1"/>
        <pt x="279" y="450" on="0"/>
        <pt x="182" y="365" on="0"/>
        <pt x="169" y="293" on="1"/>
        <pt x="117" y="0" on="1"/>
        <pt x="14" y="0" on="1"/>
        <pt x="107" y="526" on="1"/>
        <pt x="187" y="526" on="1"/>
        <pt x="187" y="455" on="1"/>
        <pt x="194" y="455" on="1"/>
        <pt x="224" y="492" on="0"/>
        <pt x="317" y="538" on="0"/>
        <pt x="366" y="538" on="1"/>
        <pt x="521" y="538" on="0"/>
        <pt x="521" y="409" on="1"/>
        <pt x="521" y="380" on="0"/>
        <pt x="513" y="338" on="1"/>
        <pt x="444" y="-55" on="1"/>
        <pt x="434" y="-112" on="0"/>
        <pt x="373" y="-182" on="0"/>
        <pt x="307" y="-182" on="1"/>
      </contour>
    </TTGlyph>
    <TTGlyph name="eogonek" xMin="20" yMin="-182" xMax="513" yMax="538">
      <contour>
        <pt x="322" y="-182" on="0"/>
        <pt x="271" y="-143" on="0"/>
        <pt x="271" y="-100" on="1"/>
        <pt x="271" y="-51" on="0"/>
        <pt x="305" y="-8" on="1"/>
        <pt x="271" y="-12" on="0"/>
        <pt x="253" y="-12" on="1"/>
        <pt x="135" y="-12" on="0"/>
        <pt x="20" y="89" on="0"/>
        <pt x="20" y="193" on="1"/>
        <pt x="20" y="289" on="0"/>
        <pt x="79" y="445" on="0"/>
        <pt x="207" y="538" on="0"/>
        <pt x="304" y="538" on="1"/>
        <pt x="407" y="538" on="0"/>
        <pt x="513" y="444" on="0"/>
        <pt x="513" y="352" on="1"/>
        <pt x="513" y="320" on="0"/>
        <pt x="505" y="277" on="1"/>
        <pt x="498" y="237" on="1"/>
        <pt x="128" y="237" on="1"/>
        <pt x="124" y="217" on="0"/>
        <pt x="124" y="196" on="1"/>
        <pt x="124" y="133" on="0"/>
        <pt x="186" y="71" on="0"/>
        <pt x="251" y="71" on="1"/>
        <pt x="305" y="71" on="0"/>
        <pt x="379" y="125" on="0"/>
        <pt x="388" y="181" on="1"/>
        <pt x="489" y="181" on="1"/>
        <pt x="482" y="136" on="0"/>
        <pt x="447" y="72" on="0"/>
        <pt x="417" y="45" on="1"/>
        <pt x="393" y="21" on="0"/>
        <pt x="364" y="-39" on="0"/>
        <pt x="364" y="-66" on="1"/>
        <pt x="364" y="-88" on="0"/>
        <pt x="387" y="-116" on="0"/>
        <pt x="409" y="-116" on="1"/>
        <pt x="436" y="-116" on="1"/>
        <pt x="427" y="-168" on="1"/>
        <pt x="390" y="-182" on="0"/>
        <pt x="360" y="-182" on="1"/>
      </contour>
      <contour>
        <pt x="406" y="315" on="1"/>
        <pt x="410" y="332" on="0"/>
        <pt x="410" y="353" on="1"/>
        <pt x="410" y="455" on="0"/>
        <pt x="304" y="455" on="1"/>
        <pt x="178" y="455" on="0"/>
        <pt x="142" y="315" on="1"/>
      </contour>
    </TTGlyph>
    <TTGlyph name="equal" xMin="27" yMin="103" xMax="553" yMax="405">
      <contour>
        <pt x="80" y="405" on="1"/>
        <pt x="553" y="405" on="1"/>
        <pt x="537" y="315" on="1"/>
        <pt x="64" y="315" on="1"/>
      </contour>
      <contour>
        <pt x="42" y="192" on="1"/>
        <pt x="515" y="192" on="1"/>
        <pt x="499" y="103" on="1"/>
        <pt x="27" y="103" on="1"/>
      </contour>
    </TTGlyph>
    <TTGlyph name="equivalence" xMin="2" yMin="10" xMax="564" yMax="525">
      <contour>
        <pt x="92" y="525" on="1"/>
        <pt x="564" y="525" on="1"/>
        <pt x="549" y="435" on="1"/>
        <pt x="77" y="435" on="1"/>
      </contour>
      <contour>
        <pt x="55" y="312" on="1"/>
        <pt x="527" y="312" on="1"/>
        <pt x="511" y="222" on="1"/>
        <pt x="39" y="222" on="1"/>
      </contour>
      <contour>
        <pt x="17" y="99" on="1"/>
        <pt x="489" y="99" on="1"/>
        <pt x="474" y="10" on="1"/>
        <pt x="2" y="10" on="1"/>
      </contour>
    </TTGlyph>
    <TTGlyph name="estimated" xMin="45" yMin="-12" xMax="559" yMax="538">
      <contour>
        <pt x="224" y="-12" on="0"/>
        <pt x="107" y="59" on="0"/>
        <pt x="45" y="183" on="0"/>
        <pt x="45" y="263" on="1"/>
        <pt x="45" y="343" on="0"/>
        <pt x="107" y="467" on="0"/>
        <pt x="224" y="538" on="0"/>
        <pt x="302" y="538" on="1"/>
        <pt x="380" y="538" on="0"/>
        <pt x="496" y="465" on="0"/>
        <pt x="559" y="335" on="0"/>
        <pt x="559" y="253" on="1"/>
        <pt x="559" y="248" on="1"/>
        <pt x="153" y="248" on="1"/>
        <pt x="153" y="83" on="1"/>
        <pt x="211" y="30" on="0"/>
        <pt x="302" y="30" on="1"/>
        <pt x="367" y="30" on="0"/>
        <pt x="466" y="88" on="0"/>
        <pt x="492" y="139" on="1"/>
        <pt x="526" y="118" on="1"/>
        <pt x="494" y="57" on="0"/>
        <pt x="379" y="-12" on="0"/>
        <pt x="302" y="-12" on="1"/>
      </contour>
      <contour>
        <pt x="451" y="290" on="1"/>
        <pt x="451" y="441" on="1"/>
        <pt x="391" y="496" on="0"/>
        <pt x="302" y="496" on="1"/>
        <pt x="212" y="496" on="0"/>
        <pt x="153" y="442" on="1"/>
        <pt x="153" y="290" on="1"/>
      </contour>
    </TTGlyph>
    <TTGlyph name="eth" xMin="20" yMin="-12" xMax="548" yMax="723">
      <contour>
        <pt x="134" y="-12" on="0"/>
        <pt x="20" y="86" on="0"/>
        <pt x="20" y="187" on="1"/>
        <pt x="20" y="269" on="0"/>
        <pt x="63" y="411" on="0"/>
        <pt x="106" y="458" on="1"/>
        <pt x="177" y="535" on="0"/>
        <pt x="289" y="535" on="1"/>
        <pt x="335" y="535" on="0"/>
        <pt x="375" y="521" on="1"/>
        <pt x="378" y="523" on="1"/>
        <pt x="361" y="558" on="0"/>
        <pt x="326" y="607" on="1"/>
        <pt x="167" y="595" on="1"/>
        <pt x="178" y="659" on="1"/>
        <pt x="280" y="666" on="1"/>
        <pt x="265" y="681" on="0"/>
        <pt x="247" y="696" on="1"/>
        <pt x="222" y="719" on="1"/>
        <pt x="225" y="723" on="1"/>
        <pt x="340" y="723" on="1"/>
        <pt x="371" y="696" on="0"/>
        <pt x="389" y="675" on="1"/>
        <pt x="548" y="685" on="1"/>
        <pt x="536" y="621" on="1"/>
        <pt x="440" y="615" on="1"/>
        <pt x="533" y="487" on="0"/>
        <pt x="533" y="342" on="1"/>
        <pt x="533" y="189" on="0"/>
        <pt x="396" y="-12" on="0"/>
        <pt x="248" y="-12" on="1"/>
      </contour>
      <contour>
        <pt x="383" y="73" on="0"/>
        <pt x="416" y="239" on="1"/>
        <pt x="425" y="287" on="0"/>
        <pt x="425" y="327" on="1"/>
        <pt x="425" y="391" on="0"/>
        <pt x="365" y="450" on="0"/>
        <pt x="302" y="450" on="1"/>
        <pt x="231" y="450" on="0"/>
        <pt x="150" y="357" on="0"/>
        <pt x="135" y="279" on="1"/>
        <pt x="127" y="236" on="0"/>
        <pt x="127" y="195" on="1"/>
        <pt x="127" y="132" on="0"/>
        <pt x="186" y="73" on="0"/>
        <pt x="249" y="73" on="1"/>
      </contour>
    </TTGlyph>
    <TTGlyph name="exclam" xMin="32" yMin="0" xMax="272" yMax="686">
      <contour>
        <pt x="146" y="686" on="1"/>
        <pt x="272" y="686" on="1"/>
        <pt x="153" y="179" on="1"/>
        <pt x="84" y="179" on="1"/>
      </contour>
      <contour>
        <pt x="53" y="117" on="1"/>
        <pt x="164" y="117" on="1"/>
        <pt x="144" y="0" on="1"/>
        <pt x="32" y="0" on="1"/>
      </contour>
    </TTGlyph>
    <TTGlyph name="exclamdbl" xMin="32" yMin="0" xMax="536" yMax="686">
      <component glyphName=".ttfautohint" x="32" y="0" flags="0x0"/>
      <component glyphName="exclam" x="264" y="0" flags="0x0"/>
      <component glyphName="exclam" x="0" y="0" flags="0x0"/>
    </TTGlyph>
    <TTGlyph name="exclamdown" xMin="46" yMin="-160" xMax="286" yMax="526">
      <contour>
        <pt x="174" y="526" on="1"/>
        <pt x="286" y="526" on="1"/>
        <pt x="265" y="409" on="1"/>
        <pt x="154" y="409" on="1"/>
      </contour>
      <contour>
        <pt x="166" y="347" on="1"/>
        <pt x="234" y="347" on="1"/>
        <pt x="172" y="-160" on="1"/>
        <pt x="46" y="-160" on="1"/>
      </contour>
    </TTGlyph>
    <TTGlyph name="f" xMin="-100" yMin="-182" xMax="356" yMax="731">
      <contour>
        <pt x="-41" y="-182" on="0"/>
        <pt x="-86" y="-174" on="0"/>
        <pt x="-100" y="-169" on="1"/>
        <pt x="-87" y="-97" on="1"/>
        <pt x="-36" y="-97" on="1"/>
        <pt x="10" y="-97" on="0"/>
        <pt x="18" y="-51" on="1"/>
        <pt x="105" y="441" on="1"/>
        <pt x="29" y="441" on="1"/>
        <pt x="44" y="526" on="1"/>
        <pt x="120" y="526" on="1"/>
        <pt x="134" y="603" on="1"/>
        <pt x="144" y="660" on="0"/>
        <pt x="208" y="731" on="0"/>
        <pt x="276" y="731" on="1"/>
        <pt x="297" y="731" on="0"/>
        <pt x="341" y="724" on="0"/>
        <pt x="356" y="718" on="1"/>
        <pt x="343" y="646" on="1"/>
        <pt x="291" y="646" on="1"/>
        <pt x="245" y="646" on="0"/>
        <pt x="237" y="600" on="1"/>
        <pt x="223" y="526" on="1"/>
        <pt x="322" y="526" on="1"/>
        <pt x="307" y="441" on="1"/>
        <pt x="208" y="441" on="1"/>
        <pt x="121" y="-54" on="1"/>
        <pt x="111" y="-111" on="0"/>
        <pt x="48" y="-182" on="0"/>
        <pt x="-20" y="-182" on="1"/>
      </contour>
    </TTGlyph>
    <TTGlyph name="f_f" xMin="-100" yMin="-182" xMax="651" yMax="731">
      <contour>
        <pt x="539" y="646" on="0"/>
        <pt x="531" y="600" on="1"/>
        <pt x="518" y="526" on="1"/>
        <pt x="617" y="526" on="1"/>
        <pt x="602" y="441" on="1"/>
        <pt x="503" y="441" on="1"/>
        <pt x="425" y="0" on="1"/>
        <pt x="322" y="0" on="1"/>
        <pt x="400" y="441" on="1"/>
        <pt x="208" y="441" on="1"/>
        <pt x="121" y="-54" on="1"/>
        <pt x="111" y="-111" on="0"/>
        <pt x="48" y="-182" on="0"/>
        <pt x="-20" y="-182" on="1"/>
        <pt x="-41" y="-182" on="0"/>
        <pt x="-86" y="-174" on="0"/>
        <pt x="-100" y="-169" on="1"/>
        <pt x="-87" y="-97" on="1"/>
        <pt x="-36" y="-97" on="1"/>
        <pt x="10" y="-97" on="0"/>
        <pt x="18" y="-51" on="1"/>
        <pt x="105" y="441" on="1"/>
        <pt x="29" y="441" on="1"/>
        <pt x="44" y="526" on="1"/>
        <pt x="120" y="526" on="1"/>
        <pt x="134" y="603" on="1"/>
        <pt x="144" y="660" on="0"/>
        <pt x="208" y="731" on="0"/>
        <pt x="276" y="731" on="1"/>
        <pt x="297" y="731" on="0"/>
        <pt x="341" y="724" on="0"/>
        <pt x="356" y="718" on="1"/>
        <pt x="343" y="646" on="1"/>
        <pt x="291" y="646" on="1"/>
        <pt x="245" y="646" on="0"/>
        <pt x="237" y="600" on="1"/>
        <pt x="223" y="526" on="1"/>
        <pt x="415" y="526" on="1"/>
        <pt x="429" y="603" on="1"/>
        <pt x="449" y="731" on="0"/>
        <pt x="571" y="731" on="1"/>
        <pt x="591" y="731" on="0"/>
        <pt x="636" y="723" on="0"/>
        <pt x="651" y="718" on="1"/>
        <pt x="638" y="646" on="1"/>
        <pt x="586" y="646" on="1"/>
      </contour>
    </TTGlyph>
    <TTGlyph name="fi" xMin="-100" yMin="-182" xMax="538" yMax="731">
      <component glyphName=".ttfautohint" x="0" y="0" flags="0x0"/>
      <component glyphName="f" x="0" y="0" flags="0x0"/>
      <component glyphName="i" x="295" y="0" flags="0x0"/>
    </TTGlyph>
    <TTGlyph name="five" xMin="13" yMin="-12" xMax="543" yMax="686">
      <contour>
        <pt x="129" y="-12" on="0"/>
        <pt x="13" y="82" on="0"/>
        <pt x="13" y="165" on="1"/>
        <pt x="13" y="190" on="0"/>
        <pt x="17" y="213" on="1"/>
        <pt x="122" y="213" on="1"/>
        <pt x="119" y="195" on="0"/>
        <pt x="119" y="181" on="1"/>
        <pt x="119" y="130" on="0"/>
        <pt x="178" y="72" on="0"/>
        <pt x="227" y="72" on="1"/>
        <pt x="271" y="72" on="0"/>
        <pt x="347" y="111" on="0"/>
        <pt x="394" y="194" on="0"/>
        <pt x="394" y="257" on="1"/>
        <pt x="394" y="308" on="0"/>
        <pt x="342" y="362" on="0"/>
        <pt x="296" y="362" on="1"/>
        <pt x="253" y="362" on="0"/>
        <pt x="177" y="324" on="0"/>
        <pt x="150" y="292" on="1"/>
        <pt x="56" y="306" on="1"/>
        <pt x="151" y="686" on="1"/>
        <pt x="543" y="686" on="1"/>
        <pt x="526" y="590" on="1"/>
        <pt x="223" y="590" on="1"/>
        <pt x="175" y="400" on="1"/>
        <pt x="239" y="446" on="0"/>
        <pt x="326" y="446" on="1"/>
        <pt x="406" y="446" on="0"/>
        <pt x="503" y="356" on="0"/>
        <pt x="503" y="268" on="1"/>
        <pt x="503" y="182" on="0"/>
        <pt x="431" y="55" on="0"/>
        <pt x="307" y="-12" on="0"/>
        <pt x="231" y="-12" on="1"/>
      </contour>
    </TTGlyph>
    <TTGlyph name="fiveeighths" xMin="50" yMin="-12" xMax="806" yMax="698">
      <contour>
        <pt x="721" y="698" on="1"/>
        <pt x="806" y="698" on="1"/>
        <pt x="135" y="-12" on="1"/>
        <pt x="50" y="-12" on="1"/>
      </contour>
      <contour>
        <pt x="122" y="321" on="0"/>
        <pt x="60" y="370" on="0"/>
        <pt x="60" y="415" on="1"/>
        <pt x="60" y="431" on="0"/>
        <pt x="62" y="440" on="1"/>
        <pt x="131" y="440" on="1"/>
        <pt x="130" y="435" on="0"/>
        <pt x="130" y="426" on="1"/>
        <pt x="130" y="404" on="0"/>
        <pt x="155" y="380" on="0"/>
        <pt x="177" y="380" on="1"/>
        <pt x="206" y="380" on="0"/>
        <pt x="250" y="423" on="0"/>
        <pt x="250" y="462" on="1"/>
        <pt x="250" y="485" on="0"/>
        <pt x="225" y="507" on="0"/>
        <pt x="204" y="507" on="1"/>
        <pt x="173" y="507" on="0"/>
        <pt x="142" y="485" on="1"/>
        <pt x="83" y="494" on="1"/>
        <pt x="131" y="686" on="1"/>
        <pt x="343" y="686" on="1"/>
        <pt x="332" y="624" on="1"/>
        <pt x="179" y="624" on="1"/>
        <pt x="161" y="551" on="1"/>
        <pt x="189" y="566" on="0"/>
        <pt x="225" y="566" on="1"/>
        <pt x="269" y="566" on="0"/>
        <pt x="321" y="516" on="0"/>
        <pt x="321" y="468" on="1"/>
        <pt x="321" y="400" on="0"/>
        <pt x="240" y="321" on="0"/>
        <pt x="178" y="321" on="1"/>
      </contour>
      <contour>
        <pt x="552" y="-12" on="0"/>
        <pt x="494" y="37" on="0"/>
        <pt x="494" y="78" on="1"/>
        <pt x="494" y="111" on="0"/>
        <pt x="528" y="165" on="0"/>
        <pt x="564" y="180" on="1"/>
        <pt x="548" y="192" on="0"/>
        <pt x="531" y="227" on="0"/>
        <pt x="531" y="246" on="1"/>
        <pt x="531" y="293" on="0"/>
        <pt x="604" y="359" on="0"/>
        <pt x="662" y="359" on="1"/>
        <pt x="717" y="359" on="0"/>
        <pt x="774" y="310" on="0"/>
        <pt x="774" y="271" on="1"/>
        <pt x="774" y="244" on="0"/>
        <pt x="743" y="196" on="0"/>
        <pt x="714" y="180" on="1"/>
        <pt x="733" y="168" on="0"/>
        <pt x="754" y="131" on="0"/>
        <pt x="754" y="108" on="1"/>
        <pt x="754" y="57" on="0"/>
        <pt x="678" y="-12" on="0"/>
        <pt x="613" y="-12" on="1"/>
      </contour>
      <contour>
        <pt x="668" y="207" on="0"/>
        <pt x="704" y="238" on="0"/>
        <pt x="704" y="263" on="1"/>
        <pt x="704" y="281" on="0"/>
        <pt x="681" y="300" on="0"/>
        <pt x="660" y="300" on="1"/>
        <pt x="633" y="300" on="0"/>
        <pt x="600" y="271" on="0"/>
        <pt x="600" y="245" on="1"/>
        <pt x="600" y="227" on="0"/>
        <pt x="623" y="207" on="0"/>
        <pt x="643" y="207" on="1"/>
      </contour>
      <contour>
        <pt x="643" y="47" on="0"/>
        <pt x="684" y="80" on="0"/>
        <pt x="684" y="109" on="1"/>
        <pt x="684" y="128" on="0"/>
        <pt x="658" y="148" on="0"/>
        <pt x="633" y="148" on="1"/>
        <pt x="601" y="148" on="0"/>
        <pt x="564" y="117" on="0"/>
        <pt x="564" y="89" on="1"/>
        <pt x="564" y="69" on="0"/>
        <pt x="590" y="47" on="0"/>
        <pt x="615" y="47" on="1"/>
      </contour>
    </TTGlyph>
    <TTGlyph name="fl" xMin="-100" yMin="-182" xMax="538" yMax="731">
      <component glyphName=".ttfautohint" x="0" y="0" flags="0x0"/>
      <component glyphName="f" x="0" y="0" flags="0x0"/>
      <component glyphName="l" x="295" y="0" flags="0x0"/>
    </TTGlyph>
    <TTGlyph name="florin" xMin="-29" yMin="-183" xMax="536" yMax="731">
      <contour>
        <pt x="26" y="-183" on="0"/>
        <pt x="-17" y="-175" on="0"/>
        <pt x="-29" y="-170" on="1"/>
        <pt x="-8" y="-98" on="1"/>
        <pt x="44" y="-98" on="1"/>
        <pt x="90" y="-98" on="0"/>
        <pt x="104" y="-52" on="1"/>
        <pt x="239" y="395" on="1"/>
        <pt x="163" y="395" on="1"/>
        <pt x="187" y="480" on="1"/>
        <pt x="263" y="480" on="1"/>
        <pt x="301" y="603" on="1"/>
        <pt x="320" y="663" on="0"/>
        <pt x="391" y="731" on="0"/>
        <pt x="462" y="731" on="1"/>
        <pt x="482" y="731" on="0"/>
        <pt x="524" y="723" on="0"/>
        <pt x="536" y="718" on="1"/>
        <pt x="515" y="646" on="1"/>
        <pt x="464" y="646" on="1"/>
        <pt x="417" y="646" on="0"/>
        <pt x="403" y="600" on="1"/>
        <pt x="366" y="480" on="1"/>
        <pt x="465" y="480" on="1"/>
        <pt x="440" y="395" on="1"/>
        <pt x="342" y="395" on="1"/>
        <pt x="206" y="-55" on="1"/>
        <pt x="188" y="-115" on="0"/>
        <pt x="117" y="-183" on="0"/>
        <pt x="46" y="-183" on="1"/>
      </contour>
    </TTGlyph>
    <TTGlyph name="four" xMin="-3" yMin="0" xMax="513" yMax="698">
      <contour>
        <pt x="307" y="162" on="1"/>
        <pt x="-3" y="162" on="1"/>
        <pt x="11" y="248" on="1"/>
        <pt x="170" y="454" on="0"/>
        <pt x="271" y="698" on="1"/>
        <pt x="385" y="698" on="1"/>
        <pt x="351" y="614" on="0"/>
        <pt x="243" y="429" on="0"/>
        <pt x="138" y="279" on="0"/>
        <pt x="109" y="247" on="1"/>
        <pt x="322" y="247" on="1"/>
        <pt x="357" y="446" on="1"/>
        <pt x="397" y="511" on="0"/>
        <pt x="434" y="596" on="1"/>
        <pt x="486" y="596" on="1"/>
        <pt x="425" y="247" on="1"/>
        <pt x="513" y="247" on="1"/>
        <pt x="498" y="162" on="1"/>
        <pt x="410" y="162" on="1"/>
        <pt x="381" y="0" on="1"/>
        <pt x="278" y="0" on="1"/>
      </contour>
    </TTGlyph>
    <TTGlyph name="fraction" xMin="-278" yMin="-12" xMax="440" yMax="698">
      <contour>
        <pt x="355" y="698" on="1"/>
        <pt x="440" y="698" on="1"/>
        <pt x="-193" y="-12" on="1"/>
        <pt x="-278" y="-12" on="1"/>
      </contour>
    </TTGlyph>
    <TTGlyph name="franc" xMin="12" yMin="0" xMax="569" yMax="686">
      <contour>
        <pt x="133" y="686" on="1"/>
        <pt x="484" y="686" on="1"/>
        <pt x="468" y="596" on="1"/>
        <pt x="224" y="596" on="1"/>
        <pt x="187" y="383" on="1"/>
        <pt x="304" y="383" on="1"/>
        <pt x="319" y="464" on="1"/>
        <pt x="400" y="464" on="1"/>
        <pt x="397" y="383" on="1"/>
        <pt x="403" y="383" on="1"/>
        <pt x="450" y="476" on="0"/>
        <pt x="525" y="476" on="1"/>
        <pt x="542" y="476" on="0"/>
        <pt x="566" y="469" on="0"/>
        <pt x="569" y="468" on="1"/>
        <pt x="552" y="370" on="1"/>
        <pt x="514" y="370" on="1"/>
        <pt x="464" y="370" on="0"/>
        <pt x="392" y="302" on="0"/>
        <pt x="380" y="232" on="1"/>
        <pt x="340" y="0" on="1"/>
        <pt x="237" y="0" on="1"/>
        <pt x="288" y="295" on="1"/>
        <pt x="171" y="295" on="1"/>
        <pt x="119" y="0" on="1"/>
        <pt x="12" y="0" on="1"/>
      </contour>
    </TTGlyph>
    <TTGlyph name="g" xMin="-3" yMin="-182" xMax="541" yMax="538">
      <contour>
        <pt x="106" y="-182" on="0"/>
        <pt x="-2" y="-107" on="0"/>
        <pt x="-3" y="-35" on="1"/>
        <pt x="-3" y="-25" on="1"/>
        <pt x="97" y="-25" on="1"/>
        <pt x="101" y="-98" on="0"/>
        <pt x="198" y="-98" on="1"/>
        <pt x="326" y="-98" on="0"/>
        <pt x="356" y="59" on="1"/>
        <pt x="361" y="83" on="1"/>
        <pt x="355" y="83" on="1"/>
        <pt x="291" y="11" on="0"/>
        <pt x="195" y="11" on="1"/>
        <pt x="115" y="11" on="0"/>
        <pt x="21" y="104" on="0"/>
        <pt x="21" y="197" on="1"/>
        <pt x="21" y="292" on="0"/>
        <pt x="82" y="448" on="0"/>
        <pt x="196" y="538" on="0"/>
        <pt x="273" y="538" on="1"/>
        <pt x="328" y="538" on="0"/>
        <pt x="410" y="496" on="0"/>
        <pt x="431" y="456" on="1"/>
        <pt x="437" y="456" on="1"/>
        <pt x="459" y="526" on="1"/>
        <pt x="541" y="526" on="1"/>
        <pt x="459" y="63" on="1"/>
        <pt x="437" y="-61" on="0"/>
        <pt x="310" y="-182" on="0"/>
        <pt x="198" y="-182" on="1"/>
      </contour>
      <contour>
        <pt x="288" y="98" on="0"/>
        <pt x="363" y="168" on="0"/>
        <pt x="400" y="278" on="0"/>
        <pt x="400" y="338" on="1"/>
        <pt x="400" y="451" on="0"/>
        <pt x="297" y="451" on="1"/>
        <pt x="212" y="451" on="0"/>
        <pt x="128" y="307" on="0"/>
        <pt x="128" y="202" on="1"/>
        <pt x="128" y="147" on="0"/>
        <pt x="178" y="98" on="0"/>
        <pt x="233" y="98" on="1"/>
      </contour>
    </TTGlyph>
    <TTGlyph name="g_tilde.loclGUA" xMin="-3" yMin="-182" xMax="541" yMax="723">
      <component glyphName=".ttfautohint" x="0" y="0" flags="0x0"/>
      <component glyphName="g" x="0" y="0" flags="0x0"/>
      <component glyphName="tilde" x="161" y="0" flags="0x0"/>
    </TTGlyph>
    <TTGlyph name="gbreve" xMin="-3" yMin="-182" xMax="541" yMax="723">
      <component glyphName=".ttfautohint" x="0" y="0" flags="0x0"/>
      <component glyphName="g" x="0" y="0" flags="0x0"/>
      <component glyphName="breve" x="151" y="0" flags="0x0"/>
    </TTGlyph>
    <TTGlyph name="gcaron" xMin="-3" yMin="-182" xMax="541" yMax="723">
      <component glyphName=".ttfautohint" x="0" y="0" flags="0x0"/>
      <component glyphName="g" x="0" y="0" flags="0x0"/>
      <component glyphName="caron" x="160" y="0" flags="0x0"/>
    </TTGlyph>
    <TTGlyph name="gcircumflex" xMin="-3" yMin="-182" xMax="541" yMax="723">
      <component glyphName=".ttfautohint" x="0" y="0" flags="0x0"/>
      <component glyphName="g" x="0" y="0" flags="0x0"/>
      <component glyphName="circumflex" x="154" y="0" flags="0x0"/>
    </TTGlyph>
    <TTGlyph name="gcommaaccent" xMin="-3" yMin="-182" xMax="541" yMax="780">
      <contour>
        <pt x="280" y="686" on="1"/>
        <pt x="347" y="780" on="1"/>
        <pt x="402" y="780" on="1"/>
        <pt x="344" y="694" on="1"/>
        <pt x="385" y="694" on="1"/>
        <pt x="368" y="601" on="1"/>
        <pt x="265" y="601" on="1"/>
      </contour>
      <contour>
        <pt x="106" y="-182" on="0"/>
        <pt x="-2" y="-107" on="0"/>
        <pt x="-3" y="-35" on="1"/>
        <pt x="-3" y="-25" on="1"/>
        <pt x="97" y="-25" on="1"/>
        <pt x="101" y="-98" on="0"/>
        <pt x="198" y="-98" on="1"/>
        <pt x="326" y="-98" on="0"/>
        <pt x="356" y="59" on="1"/>
        <pt x="361" y="83" on="1"/>
        <pt x="355" y="83" on="1"/>
        <pt x="291" y="11" on="0"/>
        <pt x="195" y="11" on="1"/>
        <pt x="115" y="11" on="0"/>
        <pt x="21" y="104" on="0"/>
        <pt x="21" y="197" on="1"/>
        <pt x="21" y="292" on="0"/>
        <pt x="82" y="448" on="0"/>
        <pt x="196" y="538" on="0"/>
        <pt x="273" y="538" on="1"/>
        <pt x="328" y="538" on="0"/>
        <pt x="410" y="496" on="0"/>
        <pt x="431" y="456" on="1"/>
        <pt x="437" y="456" on="1"/>
        <pt x="459" y="526" on="1"/>
        <pt x="541" y="526" on="1"/>
        <pt x="459" y="63" on="1"/>
        <pt x="437" y="-61" on="0"/>
        <pt x="310" y="-182" on="0"/>
        <pt x="198" y="-182" on="1"/>
      </contour>
      <contour>
        <pt x="288" y="98" on="0"/>
        <pt x="363" y="168" on="0"/>
        <pt x="400" y="278" on="0"/>
        <pt x="400" y="338" on="1"/>
        <pt x="400" y="451" on="0"/>
        <pt x="297" y="451" on="1"/>
        <pt x="212" y="451" on="0"/>
        <pt x="128" y="307" on="0"/>
        <pt x="128" y="202" on="1"/>
        <pt x="128" y="147" on="0"/>
        <pt x="178" y="98" on="0"/>
        <pt x="233" y="98" on="1"/>
      </contour>
    </TTGlyph>
    <TTGlyph name="gdotaccent" xMin="-3" yMin="-182" xMax="541" yMax="723">
      <component glyphName=".ttfautohint" x="0" y="0" flags="0x0"/>
      <component glyphName="g" x="0" y="0" flags="0x0"/>
      <component glyphName="dotaccent" x="162" y="0" flags="0x0"/>
    </TTGlyph>
    <TTGlyph name="germandbls" xMin="7" yMin="0" xMax="593" yMax="735">
      <contour>
        <pt x="97" y="514" on="1"/>
        <pt x="116" y="624" on="0"/>
        <pt x="191" y="682" on="1"/>
        <pt x="261" y="735" on="0"/>
        <pt x="373" y="735" on="1"/>
        <pt x="475" y="735" on="0"/>
        <pt x="593" y="648" on="0"/>
        <pt x="593" y="571" on="1"/>
        <pt x="593" y="512" on="0"/>
        <pt x="513" y="414" on="0"/>
        <pt x="447" y="395" on="1"/>
        <pt x="447" y="391" on="1"/>
        <pt x="501" y="373" on="0"/>
        <pt x="559" y="292" on="0"/>
        <pt x="559" y="231" on="1"/>
        <pt x="559" y="164" on="0"/>
        <pt x="488" y="59" on="0"/>
        <pt x="370" y="0" on="0"/>
        <pt x="301" y="0" on="1"/>
        <pt x="186" y="0" on="1"/>
        <pt x="201" y="85" on="1"/>
        <pt x="298" y="85" on="1"/>
        <pt x="340" y="85" on="0"/>
        <pt x="412" y="125" on="0"/>
        <pt x="455" y="192" on="0"/>
        <pt x="455" y="229" on="1"/>
        <pt x="455" y="279" on="0"/>
        <pt x="390" y="341" on="0"/>
        <pt x="337" y="341" on="1"/>
        <pt x="246" y="341" on="1"/>
        <pt x="261" y="429" on="1"/>
        <pt x="345" y="429" on="1"/>
        <pt x="382" y="429" on="0"/>
        <pt x="448" y="463" on="0"/>
        <pt x="487" y="520" on="0"/>
        <pt x="487" y="554" on="1"/>
        <pt x="487" y="599" on="0"/>
        <pt x="427" y="651" on="0"/>
        <pt x="370" y="651" on="1"/>
        <pt x="301" y="651" on="0"/>
        <pt x="212" y="582" on="0"/>
        <pt x="201" y="518" on="1"/>
        <pt x="110" y="0" on="1"/>
        <pt x="7" y="0" on="1"/>
      </contour>
    </TTGlyph>
    <TTGlyph name="grave" xMin="86" yMin="591" xMax="254" yMax="723">
      <contour>
        <pt x="86" y="720" on="1"/>
        <pt x="87" y="723" on="1"/>
        <pt x="193" y="723" on="1"/>
        <pt x="254" y="591" on="1"/>
        <pt x="171" y="591" on="1"/>
      </contour>
    </TTGlyph>
    <TTGlyph name="greater" xMin="9" yMin="3" xMax="538" yMax="510">
      <contour>
        <pt x="27" y="105" on="1"/>
        <pt x="441" y="260" on="1"/>
        <pt x="82" y="414" on="1"/>
        <pt x="98" y="510" on="1"/>
        <pt x="538" y="313" on="1"/>
        <pt x="517" y="200" on="1"/>
        <pt x="9" y="3" on="1"/>
      </contour>
    </TTGlyph>
    <TTGlyph name="greaterequal" xMin="-17" yMin="0" xMax="533" yMax="630">
      <contour>
        <pt x="22" y="226" on="1"/>
        <pt x="436" y="380" on="1"/>
        <pt x="77" y="535" on="1"/>
        <pt x="93" y="630" on="1"/>
        <pt x="533" y="433" on="1"/>
        <pt x="512" y="320" on="1"/>
        <pt x="4" y="124" on="1"/>
      </contour>
      <contour>
        <pt x="-1" y="89" on="1"/>
        <pt x="471" y="89" on="1"/>
        <pt x="455" y="0" on="1"/>
        <pt x="-17" y="0" on="1"/>
      </contour>
    </TTGlyph>
    <TTGlyph name="guillemotleft" xMin="56" yMin="126" xMax="536" yMax="526">
      <component glyphName=".ttfautohint" x="56" y="126" flags="0x0"/>
      <component glyphName="guilsinglleft" x="215" y="0" flags="0x0"/>
      <component glyphName="guilsinglleft" x="0" y="0" flags="0x0"/>
    </TTGlyph>
    <TTGlyph name="guillemotright" xMin="14" yMin="126" xMax="483" yMax="526">
      <component glyphName=".ttfautohint" x="14" y="126" flags="0x0"/>
      <component glyphName="guilsinglright" x="203" y="0" flags="0x0"/>
      <component glyphName="guilsinglright" x="0" y="0" flags="0x0"/>
    </TTGlyph>
    <TTGlyph name="guilsinglleft" xMin="56" yMin="126" xMax="321" yMax="526">
      <contour>
        <pt x="56" y="326" on="1"/>
        <pt x="233" y="526" on="1"/>
        <pt x="321" y="526" on="1"/>
        <pt x="164" y="326" on="1"/>
        <pt x="250" y="126" on="1"/>
        <pt x="171" y="126" on="1"/>
      </contour>
    </TTGlyph>
    <TTGlyph name="guilsinglright" xMin="14" yMin="126" xMax="280" yMax="526">
      <contour>
        <pt x="173" y="326" on="1"/>
        <pt x="85" y="526" on="1"/>
        <pt x="165" y="526" on="1"/>
        <pt x="280" y="326" on="1"/>
        <pt x="102" y="126" on="1"/>
        <pt x="14" y="126" on="1"/>
      </contour>
    </TTGlyph>
    <TTGlyph name="h" xMin="14" yMin="0" xMax="521" yMax="723">
      <contour>
        <pt x="141" y="723" on="1"/>
        <pt x="244" y="723" on="1"/>
        <pt x="199" y="466" on="1"/>
        <pt x="204" y="466" on="1"/>
        <pt x="235" y="498" on="0"/>
        <pt x="321" y="538" on="0"/>
        <pt x="366" y="538" on="1"/>
        <pt x="521" y="538" on="0"/>
        <pt x="521" y="409" on="1"/>
        <pt x="521" y="380" on="0"/>
        <pt x="513" y="338" on="1"/>
        <pt x="454" y="0" on="1"/>
        <pt x="351" y="0" on="1"/>
        <pt x="409" y="331" on="1"/>
        <pt x="414" y="363" on="0"/>
        <pt x="414" y="383" on="1"/>
        <pt x="414" y="419" on="0"/>
        <pt x="375" y="450" on="0"/>
        <pt x="339" y="450" on="1"/>
        <pt x="279" y="450" on="0"/>
        <pt x="182" y="365" on="0"/>
        <pt x="169" y="293" on="1"/>
        <pt x="117" y="0" on="1"/>
        <pt x="14" y="0" on="1"/>
      </contour>
    </TTGlyph>
    <TTGlyph name="hbar" xMin="14" yMin="0" xMax="521" yMax="723">
      <contour>
        <pt x="118" y="593" on="1"/>
        <pt x="54" y="593" on="1"/>
        <pt x="66" y="658" on="1"/>
        <pt x="129" y="658" on="1"/>
        <pt x="141" y="723" on="1"/>
        <pt x="244" y="723" on="1"/>
        <pt x="233" y="658" on="1"/>
        <pt x="377" y="658" on="1"/>
        <pt x="365" y="593" on="1"/>
        <pt x="221" y="593" on="1"/>
        <pt x="199" y="466" on="1"/>
        <pt x="204" y="466" on="1"/>
        <pt x="235" y="498" on="0"/>
        <pt x="321" y="538" on="0"/>
        <pt x="366" y="538" on="1"/>
        <pt x="521" y="538" on="0"/>
        <pt x="521" y="409" on="1"/>
        <pt x="521" y="380" on="0"/>
        <pt x="513" y="338" on="1"/>
        <pt x="454" y="0" on="1"/>
        <pt x="351" y="0" on="1"/>
        <pt x="409" y="331" on="1"/>
        <pt x="414" y="363" on="0"/>
        <pt x="414" y="383" on="1"/>
        <pt x="414" y="419" on="0"/>
        <pt x="375" y="450" on="0"/>
        <pt x="339" y="450" on="1"/>
        <pt x="279" y="450" on="0"/>
        <pt x="182" y="365" on="0"/>
        <pt x="169" y="293" on="1"/>
        <pt x="117" y="0" on="1"/>
        <pt x="14" y="0" on="1"/>
      </contour>
    </TTGlyph>
    <TTGlyph name="hcircumflex" xMin="14" yMin="0" xMax="521" yMax="883">
      <component glyphName=".ttfautohint" x="14" y="0" flags="0x0"/>
      <component glyphName="h" x="0" y="0" flags="0x0"/>
      <component glyphName="circumflex" x="37" y="160" flags="0x4"/>
    </TTGlyph>
    <TTGlyph name="hookabovecomb" xMin="-180" yMin="591" xMax="-6" yMax="735">
      <contour>
        <pt x="-137" y="650" on="1"/>
        <pt x="-124" y="650" on="1"/>
        <pt x="-106" y="650" on="0"/>
        <pt x="-91" y="661" on="0"/>
        <pt x="-91" y="672" on="1"/>
        <pt x="-91" y="680" on="0"/>
        <pt x="-106" y="686" on="0"/>
        <pt x="-120" y="686" on="1"/>
        <pt x="-180" y="686" on="1"/>
        <pt x="-173" y="727" on="1"/>
        <pt x="-136" y="735" on="0"/>
        <pt x="-95" y="735" on="1"/>
        <pt x="-59" y="735" on="0"/>
        <pt x="-6" y="713" on="0"/>
        <pt x="-6" y="685" on="1"/>
        <pt x="-6" y="654" on="0"/>
        <pt x="-51" y="621" on="0"/>
        <pt x="-83" y="618" on="1"/>
        <pt x="-88" y="591" on="1"/>
        <pt x="-148" y="591" on="1"/>
      </contour>
    </TTGlyph>
    <TTGlyph name="house" xMin="77" yMin="0" xMax="527" yMax="563">
      <contour>
        <pt x="77" y="310" on="1"/>
        <pt x="302" y="563" on="1"/>
        <pt x="527" y="310" on="1"/>
        <pt x="527" y="0" on="1"/>
        <pt x="77" y="0" on="1"/>
      </contour>
      <contour>
        <pt x="479" y="49" on="1"/>
        <pt x="479" y="290" on="1"/>
        <pt x="302" y="489" on="1"/>
        <pt x="125" y="290" on="1"/>
        <pt x="125" y="49" on="1"/>
      </contour>
    </TTGlyph>
    <TTGlyph name="hungarumlaut" xMin="8" yMin="591" xMax="365" yMax="723">
      <contour>
        <pt x="98" y="723" on="1"/>
        <pt x="210" y="723" on="1"/>
        <pt x="211" y="720" on="1"/>
        <pt x="97" y="591" on="1"/>
        <pt x="8" y="591" on="1"/>
      </contour>
      <contour>
        <pt x="252" y="723" on="1"/>
        <pt x="364" y="723" on="1"/>
        <pt x="365" y="720" on="1"/>
        <pt x="251" y="591" on="1"/>
        <pt x="162" y="591" on="1"/>
      </contour>
    </TTGlyph>
    <TTGlyph name="hyphen" xMin="22" yMin="218" xMax="301" yMax="322">
      <contour>
        <pt x="40" y="322" on="1"/>
        <pt x="301" y="322" on="1"/>
        <pt x="283" y="218" on="1"/>
        <pt x="22" y="218" on="1"/>
      </contour>
    </TTGlyph>
    <TTGlyph name="i" xMin="13" yMin="0" xMax="243" yMax="723">
      <contour>
        <pt x="140" y="723" on="1"/>
        <pt x="243" y="723" on="1"/>
        <pt x="224" y="617" on="1"/>
        <pt x="121" y="617" on="1"/>
      </contour>
      <contour>
        <pt x="106" y="526" on="1"/>
        <pt x="209" y="526" on="1"/>
        <pt x="116" y="0" on="1"/>
        <pt x="13" y="0" on="1"/>
      </contour>
    </TTGlyph>
    <TTGlyph name="i.loclTRK" xMin="28" yMin="0" xMax="259" yMax="723">
      <component glyphName=".ttfautohint" x="28" y="0" flags="0x0"/>
      <component glyphName="dotlessi" x="0" y="0" flags="0x0"/>
      <component glyphName="dotaccent" x="32" y="0" flags="0x0"/>
    </TTGlyph>
    <TTGlyph name="iacute" xMin="28" yMin="0" xMax="345" yMax="723">
      <contour>
        <pt x="232" y="723" on="1"/>
        <pt x="344" y="723" on="1"/>
        <pt x="345" y="720" on="1"/>
        <pt x="214" y="591" on="1"/>
        <pt x="125" y="591" on="1"/>
      </contour>
      <contour>
        <pt x="121" y="526" on="1"/>
        <pt x="224" y="526" on="1"/>
        <pt x="131" y="0" on="1"/>
        <pt x="28" y="0" on="1"/>
      </contour>
    </TTGlyph>
    <TTGlyph name="iacute_j.loclNLD" xMin="28" yMin="-182" xMax="620" yMax="723">
      <component glyphName=".ttfautohint" x="28" y="0" flags="0x0"/>
      <component glyphName="dotlessi" x="0" y="0" flags="0x0"/>
      <component glyphName="acute" x="76" y="0" flags="0x0"/>
      <component glyphName="uni0237" x="278" y="0" flags="0x0"/>
      <component glyphName="acute" x="339" y="0" flags="0x0"/>
    </TTGlyph>
    <TTGlyph name="ibreve" xMin="28" yMin="0" xMax="349" yMax="723">
      <component glyphName=".ttfautohint" x="28" y="0" flags="0x0"/>
      <component glyphName="dotlessi" x="0" y="0" flags="0x0"/>
      <component glyphName="breve" x="21" y="0" flags="0x0"/>
    </TTGlyph>
    <TTGlyph name="icircumflex" xMin="22" yMin="0" xMax="328" yMax="723">
      <contour>
        <pt x="150" y="723" on="1"/>
        <pt x="246" y="723" on="1"/>
        <pt x="328" y="588" on="1"/>
        <pt x="236" y="588" on="1"/>
        <pt x="192" y="664" on="1"/>
        <pt x="123" y="588" on="1"/>
        <pt x="22" y="588" on="1"/>
      </contour>
      <contour>
        <pt x="121" y="526" on="1"/>
        <pt x="224" y="526" on="1"/>
        <pt x="131" y="0" on="1"/>
        <pt x="28" y="0" on="1"/>
      </contour>
    </TTGlyph>
    <TTGlyph name="idieresis" xMin="28" yMin="0" xMax="347" yMax="723">
      <contour>
        <pt x="56" y="723" on="1"/>
        <pt x="152" y="723" on="1"/>
        <pt x="134" y="621" on="1"/>
        <pt x="38" y="621" on="1"/>
      </contour>
      <contour>
        <pt x="250" y="723" on="1"/>
        <pt x="347" y="723" on="1"/>
        <pt x="329" y="621" on="1"/>
        <pt x="232" y="621" on="1"/>
      </contour>
      <contour>
        <pt x="121" y="526" on="1"/>
        <pt x="224" y="526" on="1"/>
        <pt x="131" y="0" on="1"/>
        <pt x="28" y="0" on="1"/>
      </contour>
    </TTGlyph>
    <TTGlyph name="igrave" xMin="28" yMin="0" xMax="229" yMax="723">
      <contour>
        <pt x="62" y="720" on="1"/>
        <pt x="63" y="723" on="1"/>
        <pt x="168" y="723" on="1"/>
        <pt x="229" y="591" on="1"/>
        <pt x="147" y="591" on="1"/>
      </contour>
      <contour>
        <pt x="121" y="526" on="1"/>
        <pt x="224" y="526" on="1"/>
        <pt x="131" y="0" on="1"/>
        <pt x="28" y="0" on="1"/>
      </contour>
    </TTGlyph>
    <TTGlyph name="ij" xMin="13" yMin="-182" xMax="482" yMax="723">
      <component glyphName=".ttfautohint" x="13" y="0" flags="0x0"/>
      <component glyphName="i" x="0" y="0" flags="0x0"/>
      <component glyphName="j" x="239" y="0" flags="0x0"/>
    </TTGlyph>
    <TTGlyph name="imacron" xMin="28" yMin="0" xMax="350" yMax="716">
      <contour>
        <pt x="45" y="716" on="1"/>
        <pt x="350" y="716" on="1"/>
        <pt x="336" y="639" on="1"/>
        <pt x="31" y="639" on="1"/>
      </contour>
      <contour>
        <pt x="121" y="526" on="1"/>
        <pt x="224" y="526" on="1"/>
        <pt x="131" y="0" on="1"/>
        <pt x="28" y="0" on="1"/>
      </contour>
    </TTGlyph>
    <TTGlyph name="infinity" xMin="43" yMin="141" xMax="667" yMax="454">
      <contour>
        <pt x="111" y="141" on="0"/>
        <pt x="43" y="212" on="0"/>
        <pt x="43" y="269" on="1"/>
        <pt x="43" y="319" on="0"/>
        <pt x="89" y="404" on="0"/>
        <pt x="167" y="454" on="0"/>
        <pt x="215" y="454" on="1"/>
        <pt x="266" y="454" on="0"/>
        <pt x="339" y="404" on="0"/>
        <pt x="368" y="359" on="1"/>
        <pt x="412" y="403" on="0"/>
        <pt x="492" y="454" on="0"/>
        <pt x="540" y="454" on="1"/>
        <pt x="598" y="454" on="0"/>
        <pt x="667" y="383" on="0"/>
        <pt x="667" y="327" on="1"/>
        <pt x="667" y="275" on="0"/>
        <pt x="622" y="190" on="0"/>
        <pt x="545" y="141" on="0"/>
        <pt x="498" y="141" on="1"/>
        <pt x="403" y="141" on="0"/>
        <pt x="344" y="236" on="1"/>
        <pt x="298" y="190" on="0"/>
        <pt x="216" y="141" on="0"/>
        <pt x="169" y="141" on="1"/>
      </contour>
      <contour>
        <pt x="214" y="216" on="0"/>
        <pt x="272" y="257" on="0"/>
        <pt x="308" y="296" on="1"/>
        <pt x="285" y="337" on="0"/>
        <pt x="242" y="376" on="0"/>
        <pt x="212" y="376" on="1"/>
        <pt x="191" y="376" on="0"/>
        <pt x="150" y="351" on="0"/>
        <pt x="124" y="307" on="0"/>
        <pt x="124" y="281" on="1"/>
        <pt x="124" y="253" on="0"/>
        <pt x="158" y="216" on="0"/>
        <pt x="184" y="216" on="1"/>
      </contour>
      <contour>
        <pt x="535" y="216" on="0"/>
        <pt x="585" y="276" on="0"/>
        <pt x="585" y="311" on="1"/>
        <pt x="585" y="339" on="0"/>
        <pt x="552" y="376" on="0"/>
        <pt x="526" y="376" on="1"/>
        <pt x="497" y="376" on="0"/>
        <pt x="442" y="338" on="0"/>
        <pt x="402" y="297" on="1"/>
        <pt x="426" y="255" on="0"/>
        <pt x="471" y="216" on="0"/>
        <pt x="500" y="216" on="1"/>
      </contour>
    </TTGlyph>
    <TTGlyph name="integral" xMin="-58" yMin="-141" xMax="340" yMax="859">
      <contour>
        <pt x="-48" y="-85" on="1"/>
        <pt x="34" y="-85" on="0"/>
        <pt x="43" y="-27" on="1"/>
        <pt x="56" y="72" on="0"/>
        <pt x="136" y="651" on="0"/>
        <pt x="153" y="747" on="1"/>
        <pt x="161" y="793" on="0"/>
        <pt x="204" y="841" on="0"/>
        <pt x="278" y="859" on="0"/>
        <pt x="340" y="859" on="1"/>
        <pt x="330" y="804" on="1"/>
        <pt x="247" y="804" on="0"/>
        <pt x="236" y="747" on="1"/>
        <pt x="223" y="647" on="0"/>
        <pt x="144" y="66" on="0"/>
        <pt x="127" y="-29" on="1"/>
        <pt x="119" y="-76" on="0"/>
        <pt x="76" y="-124" on="0"/>
        <pt x="4" y="-141" on="0"/>
        <pt x="-58" y="-141" on="1"/>
      </contour>
    </TTGlyph>
    <TTGlyph name="integralbt" xMin="86" yMin="-250" xMax="434" yMax="859">
      <contour>
        <pt x="95" y="-195" on="1"/>
        <pt x="180" y="-195" on="0"/>
        <pt x="189" y="-138" on="1"/>
        <pt x="203" y="-49" on="0"/>
        <pt x="291" y="502" on="0"/>
        <pt x="348" y="859" on="1"/>
        <pt x="434" y="859" on="1"/>
        <pt x="381" y="529" on="0"/>
        <pt x="294" y="-10" on="0"/>
        <pt x="272" y="-138" on="1"/>
        <pt x="264" y="-184" on="0"/>
        <pt x="219" y="-232" on="0"/>
        <pt x="146" y="-250" on="0"/>
        <pt x="86" y="-250" on="1"/>
      </contour>
    </TTGlyph>
    <TTGlyph name="integraltp" xMin="169" yMin="-250" xMax="517" yMax="859">
      <contour>
        <pt x="222" y="80" on="0"/>
        <pt x="309" y="619" on="0"/>
        <pt x="331" y="747" on="1"/>
        <pt x="339" y="793" on="0"/>
        <pt x="384" y="841" on="0"/>
        <pt x="457" y="859" on="0"/>
        <pt x="517" y="859" on="1"/>
        <pt x="508" y="804" on="1"/>
        <pt x="423" y="804" on="0"/>
        <pt x="414" y="747" on="1"/>
        <pt x="400" y="658" on="0"/>
        <pt x="312" y="107" on="0"/>
        <pt x="255" y="-250" on="1"/>
        <pt x="169" y="-250" on="1"/>
      </contour>
    </TTGlyph>
    <TTGlyph name="intersection" xMin="44" yMin="0" xMax="651" yMax="676">
      <contour>
        <pt x="116" y="410" on="1"/>
        <pt x="129" y="485" on="0"/>
        <pt x="218" y="607" on="0"/>
        <pt x="346" y="676" on="0"/>
        <pt x="415" y="676" on="1"/>
        <pt x="483" y="676" on="0"/>
        <pt x="591" y="619" on="0"/>
        <pt x="651" y="520" on="0"/>
        <pt x="651" y="458" on="1"/>
        <pt x="651" y="431" on="0"/>
        <pt x="647" y="410" on="1"/>
        <pt x="575" y="0" on="1"/>
        <pt x="496" y="0" on="1"/>
        <pt x="568" y="411" on="1"/>
        <pt x="571" y="428" on="0"/>
        <pt x="571" y="445" on="1"/>
        <pt x="571" y="512" on="0"/>
        <pt x="486" y="599" on="0"/>
        <pt x="419" y="599" on="1"/>
        <pt x="365" y="599" on="0"/>
        <pt x="269" y="549" on="0"/>
        <pt x="204" y="463" on="0"/>
        <pt x="195" y="411" on="1"/>
        <pt x="123" y="0" on="1"/>
        <pt x="44" y="0" on="1"/>
      </contour>
    </TTGlyph>
    <TTGlyph name="iogonek" xMin="-41" yMin="-190" xMax="259" yMax="723">
      <contour>
        <pt x="259" y="723" on="1"/>
        <pt x="240" y="618" on="1"/>
        <pt x="138" y="618" on="1"/>
        <pt x="157" y="723" on="1"/>
      </contour>
      <contour>
        <pt x="121" y="526" on="1"/>
        <pt x="224" y="526" on="1"/>
        <pt x="131" y="0" on="1"/>
        <pt x="101" y="0" on="1"/>
        <pt x="81" y="-16" on="0"/>
        <pt x="52" y="-60" on="0"/>
        <pt x="52" y="-84" on="1"/>
        <pt x="52" y="-101" on="0"/>
        <pt x="73" y="-124" on="0"/>
        <pt x="95" y="-124" on="1"/>
        <pt x="124" y="-124" on="1"/>
        <pt x="115" y="-176" on="1"/>
        <pt x="78" y="-190" on="0"/>
        <pt x="48" y="-190" on="1"/>
        <pt x="11" y="-190" on="0"/>
        <pt x="-41" y="-154" on="0"/>
        <pt x="-41" y="-115" on="1"/>
        <pt x="-41" y="-78" on="0"/>
        <pt x="-3" y="-24" on="0"/>
        <pt x="29" y="0" on="1"/>
        <pt x="28" y="0" on="1"/>
      </contour>
    </TTGlyph>
    <TTGlyph name="itilde" xMin="11" yMin="0" xMax="360" yMax="723">
      <contour>
        <pt x="19" y="661" on="0"/>
        <pt x="73" y="723" on="0"/>
        <pt x="117" y="723" on="1"/>
        <pt x="136" y="723" on="0"/>
        <pt x="168" y="714" on="0"/>
        <pt x="191" y="706" on="1"/>
        <pt x="212" y="698" on="0"/>
        <pt x="241" y="690" on="0"/>
        <pt x="257" y="690" on="1"/>
        <pt x="284" y="690" on="0"/>
        <pt x="293" y="723" on="1"/>
        <pt x="360" y="723" on="1"/>
        <pt x="351" y="675" on="0"/>
        <pt x="297" y="613" on="0"/>
        <pt x="252" y="613" on="1"/>
        <pt x="234" y="613" on="0"/>
        <pt x="203" y="621" on="0"/>
        <pt x="179" y="630" on="1"/>
        <pt x="158" y="638" on="0"/>
        <pt x="129" y="646" on="0"/>
        <pt x="113" y="646" on="1"/>
        <pt x="86" y="646" on="0"/>
        <pt x="77" y="613" on="1"/>
        <pt x="11" y="613" on="1"/>
      </contour>
      <contour>
        <pt x="121" y="526" on="1"/>
        <pt x="224" y="526" on="1"/>
        <pt x="131" y="0" on="1"/>
        <pt x="28" y="0" on="1"/>
      </contour>
    </TTGlyph>
    <TTGlyph name="j" xMin="-108" yMin="-182" xMax="243" yMax="723">
      <contour>
        <pt x="140" y="723" on="1"/>
        <pt x="243" y="723" on="1"/>
        <pt x="224" y="617" on="1"/>
        <pt x="121" y="617" on="1"/>
      </contour>
      <contour>
        <pt x="-69" y="-182" on="0"/>
        <pt x="-108" y="-169" on="1"/>
        <pt x="-96" y="-100" on="1"/>
        <pt x="-50" y="-100" on="1"/>
        <pt x="-5" y="-100" on="0"/>
        <pt x="3" y="-53" on="1"/>
        <pt x="106" y="526" on="1"/>
        <pt x="209" y="526" on="1"/>
        <pt x="106" y="-55" on="1"/>
        <pt x="96" y="-112" on="0"/>
        <pt x="35" y="-182" on="0"/>
        <pt x="-31" y="-182" on="1"/>
      </contour>
    </TTGlyph>
    <TTGlyph name="jcircumflex" xMin="-108" yMin="-182" xMax="311" yMax="723">
      <contour>
        <pt x="133" y="723" on="1"/>
        <pt x="229" y="723" on="1"/>
        <pt x="311" y="588" on="1"/>
        <pt x="219" y="588" on="1"/>
        <pt x="175" y="664" on="1"/>
        <pt x="106" y="588" on="1"/>
        <pt x="5" y="588" on="1"/>
      </contour>
      <contour>
        <pt x="-69" y="-182" on="0"/>
        <pt x="-108" y="-169" on="1"/>
        <pt x="-96" y="-100" on="1"/>
        <pt x="-50" y="-100" on="1"/>
        <pt x="-5" y="-100" on="0"/>
        <pt x="3" y="-53" on="1"/>
        <pt x="106" y="526" on="1"/>
        <pt x="209" y="526" on="1"/>
        <pt x="106" y="-55" on="1"/>
        <pt x="96" y="-112" on="0"/>
        <pt x="35" y="-182" on="0"/>
        <pt x="-31" y="-182" on="1"/>
      </contour>
    </TTGlyph>
    <TTGlyph name="k" xMin="13" yMin="0" xMax="541" yMax="723">
      <contour>
        <pt x="140" y="723" on="1"/>
        <pt x="243" y="723" on="1"/>
        <pt x="166" y="286" on="1"/>
        <pt x="417" y="526" on="1"/>
        <pt x="541" y="526" on="1"/>
        <pt x="326" y="319" on="1"/>
        <pt x="458" y="0" on="1"/>
        <pt x="346" y="0" on="1"/>
        <pt x="253" y="248" on="1"/>
        <pt x="144" y="161" on="1"/>
        <pt x="116" y="0" on="1"/>
        <pt x="13" y="0" on="1"/>
      </contour>
    </TTGlyph>
    <TTGlyph name="kcommaaccent" xMin="13" yMin="-230" xMax="541" yMax="723">
      <component glyphName=".ttfautohint" x="13" y="0" flags="0x0"/>
      <component glyphName="k" x="0" y="0" flags="0x0"/>
      <component glyphName="uni0326" x="335" y="0" flags="0x0"/>
    </TTGlyph>
    <TTGlyph name="kgreenlandic" xMin="13" yMin="0" xMax="541" yMax="526">
      <contour>
        <pt x="105" y="526" on="1"/>
        <pt x="208" y="526" on="1"/>
        <pt x="166" y="286" on="1"/>
        <pt x="417" y="526" on="1"/>
        <pt x="541" y="526" on="1"/>
        <pt x="326" y="319" on="1"/>
        <pt x="458" y="0" on="1"/>
        <pt x="346" y="0" on="1"/>
        <pt x="253" y="248" on="1"/>
        <pt x="144" y="161" on="1"/>
        <pt x="116" y="0" on="1"/>
        <pt x="13" y="0" on="1"/>
      </contour>
    </TTGlyph>
    <TTGlyph name="l" xMin="13" yMin="0" xMax="243" yMax="723">
      <contour>
        <pt x="140" y="723" on="1"/>
        <pt x="243" y="723" on="1"/>
        <pt x="116" y="0" on="1"/>
        <pt x="13" y="0" on="1"/>
      </contour>
    </TTGlyph>
    <TTGlyph name="lacute" xMin="13" yMin="0" xMax="374" yMax="883">
      <component glyphName=".ttfautohint" x="13" y="0" flags="0x0"/>
      <component glyphName="l" x="0" y="0" flags="0x0"/>
      <component glyphName="acute" x="93" y="160" flags="0x4"/>
    </TTGlyph>
    <TTGlyph name="lcaron" xMin="13" yMin="0" xMax="397" yMax="723">
      <contour>
        <pt x="140" y="723" on="1"/>
        <pt x="243" y="723" on="1"/>
        <pt x="116" y="0" on="1"/>
        <pt x="13" y="0" on="1"/>
      </contour>
      <contour>
        <pt x="316" y="584" on="1"/>
        <pt x="278" y="584" on="1"/>
        <pt x="296" y="686" on="1"/>
        <pt x="397" y="686" on="1"/>
        <pt x="380" y="593" on="1"/>
        <pt x="311" y="475" on="1"/>
        <pt x="257" y="475" on="1"/>
      </contour>
    </TTGlyph>
    <TTGlyph name="lcommaaccent" xMin="-28" yMin="-230" xMax="243" yMax="723">
      <component glyphName=".ttfautohint" x="0" y="0" flags="0x0"/>
      <component glyphName="l" x="0" y="0" flags="0x0"/>
      <component glyphName="uni0326" x="169" y="0" flags="0x0"/>
    </TTGlyph>
    <TTGlyph name="ldot" xMin="13" yMin="0" xMax="352" yMax="723">
      <component glyphName=".ttfautohint" x="13" y="0" flags="0x0"/>
      <component glyphName="l" x="0" y="0" flags="0x0"/>
      <component glyphName="periodcentered" x="111" y="0" flags="0x0"/>
    </TTGlyph>
    <TTGlyph name="less" xMin="42" yMin="3" xMax="571" yMax="510">
      <contour>
        <pt x="42" y="199" on="1"/>
        <pt x="62" y="313" on="1"/>
        <pt x="571" y="510" on="1"/>
        <pt x="553" y="408" on="1"/>
        <pt x="139" y="253" on="1"/>
        <pt x="498" y="99" on="1"/>
        <pt x="482" y="3" on="1"/>
      </contour>
    </TTGlyph>
    <TTGlyph name="lessequal" xMin="-17" yMin="0" xMax="566" yMax="630">
      <contour>
        <pt x="37" y="320" on="1"/>
        <pt x="58" y="433" on="1"/>
        <pt x="566" y="630" on="1"/>
        <pt x="548" y="528" on="1"/>
        <pt x="134" y="373" on="1"/>
        <pt x="493" y="219" on="1"/>
        <pt x="477" y="124" on="1"/>
      </contour>
      <contour>
        <pt x="-1" y="89" on="1"/>
        <pt x="471" y="89" on="1"/>
        <pt x="455" y="0" on="1"/>
        <pt x="-17" y="0" on="1"/>
      </contour>
    </TTGlyph>
    <TTGlyph name="lira" xMin="-12" yMin="0" xMax="563" yMax="698">
      <contour>
        <pt x="4" y="89" on="1"/>
        <pt x="75" y="89" on="1"/>
        <pt x="94" y="200" on="1"/>
        <pt x="13" y="200" on="1"/>
        <pt x="26" y="278" on="1"/>
        <pt x="107" y="278" on="1"/>
        <pt x="120" y="347" on="1"/>
        <pt x="38" y="347" on="1"/>
        <pt x="52" y="425" on="1"/>
        <pt x="133" y="425" on="1"/>
        <pt x="147" y="499" on="1"/>
        <pt x="165" y="603" on="0"/>
        <pt x="279" y="698" on="0"/>
        <pt x="374" y="698" on="1"/>
        <pt x="563" y="698" on="0"/>
        <pt x="563" y="555" on="1"/>
        <pt x="563" y="522" on="0"/>
        <pt x="557" y="491" on="1"/>
        <pt x="455" y="491" on="1"/>
        <pt x="459" y="518" on="0"/>
        <pt x="459" y="533" on="1"/>
        <pt x="459" y="613" on="0"/>
        <pt x="376" y="613" on="1"/>
        <pt x="271" y="613" on="0"/>
        <pt x="253" y="514" on="1"/>
        <pt x="237" y="425" on="1"/>
        <pt x="400" y="425" on="1"/>
        <pt x="386" y="347" on="1"/>
        <pt x="222" y="347" on="1"/>
        <pt x="209" y="278" on="1"/>
        <pt x="373" y="278" on="1"/>
        <pt x="360" y="200" on="1"/>
        <pt x="195" y="200" on="1"/>
        <pt x="165" y="89" on="1"/>
        <pt x="484" y="89" on="1"/>
        <pt x="468" y="0" on="1"/>
        <pt x="-12" y="0" on="1"/>
      </contour>
    </TTGlyph>
    <TTGlyph name="logicalnot" xMin="57" yMin="196" xMax="555" yMax="454">
      <contour>
        <pt x="450" y="359" on="1"/>
        <pt x="57" y="359" on="1"/>
        <pt x="74" y="454" on="1"/>
        <pt x="555" y="454" on="1"/>
        <pt x="510" y="196" on="1"/>
        <pt x="421" y="196" on="1"/>
      </contour>
    </TTGlyph>
    <TTGlyph name="longs" xMin="-100" yMin="-182" xMax="356" yMax="731">
      <contour>
        <pt x="-41" y="-182" on="0"/>
        <pt x="-86" y="-174" on="0"/>
        <pt x="-100" y="-169" on="1"/>
        <pt x="-87" y="-97" on="1"/>
        <pt x="-36" y="-97" on="1"/>
        <pt x="10" y="-97" on="0"/>
        <pt x="18" y="-51" on="1"/>
        <pt x="105" y="441" on="1"/>
        <pt x="29" y="441" on="1"/>
        <pt x="44" y="526" on="1"/>
        <pt x="120" y="526" on="1"/>
        <pt x="134" y="603" on="1"/>
        <pt x="144" y="660" on="0"/>
        <pt x="208" y="731" on="0"/>
        <pt x="276" y="731" on="1"/>
        <pt x="297" y="731" on="0"/>
        <pt x="341" y="724" on="0"/>
        <pt x="356" y="718" on="1"/>
        <pt x="343" y="646" on="1"/>
        <pt x="291" y="646" on="1"/>
        <pt x="245" y="646" on="0"/>
        <pt x="237" y="600" on="1"/>
        <pt x="121" y="-54" on="1"/>
        <pt x="110" y="-111" on="0"/>
        <pt x="47" y="-182" on="0"/>
        <pt x="-20" y="-182" on="1"/>
      </contour>
    </TTGlyph>
    <TTGlyph name="lozenge" xMin="54" yMin="-132" xMax="525" yMax="727">
      <contour>
        <pt x="54" y="298" on="1"/>
        <pt x="309" y="727" on="1"/>
        <pt x="423" y="727" on="1"/>
        <pt x="525" y="298" on="1"/>
        <pt x="271" y="-132" on="1"/>
        <pt x="157" y="-132" on="1"/>
      </contour>
      <contour>
        <pt x="426" y="306" on="1"/>
        <pt x="353" y="637" on="1"/>
        <pt x="154" y="290" on="1"/>
        <pt x="226" y="-42" on="1"/>
      </contour>
    </TTGlyph>
    <TTGlyph name="lslash" xMin="-13" yMin="0" xMax="272" yMax="723">
      <contour>
        <pt x="64" y="273" on="1"/>
        <pt x="-13" y="219" on="1"/>
        <pt x="2" y="304" on="1"/>
        <pt x="78" y="358" on="1"/>
        <pt x="143" y="723" on="1"/>
        <pt x="246" y="723" on="1"/>
        <pt x="195" y="437" on="1"/>
        <pt x="272" y="490" on="1"/>
        <pt x="257" y="405" on="1"/>
        <pt x="181" y="352" on="1"/>
        <pt x="119" y="0" on="1"/>
        <pt x="16" y="0" on="1"/>
      </contour>
    </TTGlyph>
</ttFont>
